<?xml version="1.0" standalone="no"?>
<!DOCTYPE svg PUBLIC "-//W3C//DTD SVG 1.1//EN" "http://www.w3.org/Graphics/SVG/1.1/DTD/svg11.dtd" >
<svg xmlns="http://www.w3.org/2000/svg" xmlns:xlink="http://www.w3.org/1999/xlink" version="1.1">
<metadata>
Created by FontForge 20170731 at Fri Oct 24 17:25:36 2014
 By Aleksey,,,
Copyright (c) 2012 by Fontfabric LLC. All rights reserved.
</metadata>
<defs>
<font id="Panton-Regular" horiz-adv-x="549" >
  <font-face 
    font-family="Panton"
    font-weight="400"
    font-stretch="normal"
    units-per-em="1000"
    panose-1="0 0 5 0 0 0 0 0 0 0"
    ascent="740"
    descent="-260"
    x-height="514"
    cap-height="710"
    bbox="-208.9 -254 1148 961.263"
    underline-thickness="50"
    underline-position="-300"
    unicode-range="U+0020-FB02"
  />
<missing-glyph horiz-adv-x="686" 
d="M605 20q0 -11 -4.5 -15.5t-15.5 -4.5h-479q-11 0 -15.5 4.5t-4.5 15.5v670q0 11 4.5 15.5t15.5 4.5h479q11 0 15.5 -4.5t4.5 -15.5v-670zM158 642v-574h375v574h-375z" />
    <glyph glyph-name="fi" unicode="fi" horiz-adv-x="568" 
d="M484 740q10 0 14 -4t4 -14v-26q0 -10 -4 -14t-14 -4h-159q-81 0 -112 -30t-31 -108v-26h302q10 0 14 -4t4 -14v-478q0 -10 -4 -14t-14 -4h-31q-11 0 -14.5 4t-3.5 14v434h-253v-434q0 -10 -4 -14t-14 -4h-31q-18 0 -18 18v434h-89q-18 0 -18 18v26q0 10 4 14t14 4h89v26
q0 108 49 154t161 46h159z" />
    <glyph glyph-name="fl" unicode="fl" horiz-adv-x="538" 
d="M450 740q18 0 18 -18v-704q0 -18 -18 -18h-31q-11 0 -14.5 4t-3.5 14v660h-76q-80 0 -111.5 -29.5t-31.5 -108.5v-26h116q18 0 18 -18v-26q0 -18 -18 -18h-116v-434q0 -10 -4 -14t-14 -4h-31q-18 0 -18 18v434h-89q-18 0 -18 18v26q0 10 4 14t14 4h89v27q0 106 49 152.5
t161 46.5h125z" />
    <glyph glyph-name=".notdef" horiz-adv-x="686" 
d="M605 20q0 -11 -4.5 -15.5t-15.5 -4.5h-479q-11 0 -15.5 4.5t-4.5 15.5v670q0 11 4.5 15.5t15.5 4.5h479q11 0 15.5 -4.5t4.5 -15.5v-670zM158 642v-574h375v574h-375z" />
    <glyph glyph-name=".null" horiz-adv-x="262" 
 />
    <glyph glyph-name="nonmarkingreturn" horiz-adv-x="333" 
 />
    <glyph glyph-name="space" unicode=" " horiz-adv-x="236" 
 />
    <glyph glyph-name="exclam" unicode="!" horiz-adv-x="207" 
d="M121 740q18 0 18 -18l-9 -536q0 -18 -18 -18h-18q-17 0 -18 18l-8 536q0 18 18 18h35zM106 80q23 0 31.5 -8.5t8.5 -31.5v-6q0 -22 -9 -31t-31 -9h-6q-23 0 -31 8.5t-8 31.5v6q0 23 8 31.5t31 8.5h6z" />
    <glyph glyph-name="quotedbl" unicode="&#x22;" horiz-adv-x="295" 
d="M117 490q-1 -10 -4 -13t-14 -3h-18q-11 0 -14 3t-3 13v204q0 10 3.5 13t13.5 3h28q11 0 14.5 -3t2.5 -13zM227 490q-1 -10 -4 -13t-13 -3h-19q-10 0 -13 3t-3 13v204q0 10 3 13t13 3h29q10 0 14 -3.5t3 -12.5z" />
    <glyph glyph-name="numbersign" unicode="#" horiz-adv-x="680" 
d="M631 480q11 0 14 -4t0 -14l-8 -28q-5 -16 -24 -16h-105l-49 -165h105q11 0 14 -4t0 -14l-9 -28q-5 -16 -23 -16h-105l-52 -173q-7 -18 -23 -18h-30q-19 0 -13 18l51 173h-157l-52 -173q-4 -18 -22 -18h-30q-19 0 -13 18l51 173h-103q-18 0 -13 18l8 27q5 17 25 17h102
l49 165h-103q-11 0 -14 4t0 14l9 27q4 17 24 17h102l47 156q6 18 23 18h30q19 0 13 -18l-47 -156h157l47 156q6 18 23 18h30q19 0 13 -18l-46 -156h104zM285 418l-49 -165h157l49 165h-157z" />
    <glyph glyph-name="dollar" unicode="$" horiz-adv-x="590" 
d="M308 783q18 0 18 -18v-63q79 -7 126 -44t82 -109q11 -19 -11 -28l-28 -13q-18 -7 -27 10q-31 61 -70.5 89t-111.5 28q-160 0 -160 -128q0 -28 10.5 -48t25 -31t41.5 -19t47 -11t55 -6q43 -4 69.5 -8.5t62.5 -16.5t57 -30.5t36 -52t15 -78.5q0 -88 -55.5 -138.5
t-163.5 -57.5v-65q0 -18 -18 -18h-31q-18 0 -18 18v64q-157 13 -217 167q-8 20 13 28l28 10q19 7 27 -12q27 -65 68.5 -96t114.5 -31q179 0 179 129q0 29 -11 50t-24.5 32.5t-42 19.5t-47 10.5t-55.5 6.5q-42 4 -69.5 8.5t-63 17t-56.5 30.5t-36 50.5t-15 76.5
q0 88 52 138.5t155 57.5v63q0 18 18 18h31z" />
    <glyph glyph-name="percent" unicode="%" horiz-adv-x="812" 
d="M36 578q0 69 41 108t117 39q77 0 118 -39t41 -108v-73q0 -69 -41 -107.5t-118 -38.5q-76 0 -117 38.5t-41 107.5v73zM681 710q23 0 9 -19l-495 -673q-8 -12 -14.5 -15t-24.5 -3h-23q-11 0 -14 6t3 14l496 673q8 11 14 14t22 3h27zM296 576q0 45 -26.5 69.5t-75.5 24.5
q-48 0 -74.5 -24.5t-26.5 -69.5v-68q0 -45 26.5 -69.5t74.5 -24.5q49 0 75.5 24.5t26.5 69.5v68zM459 204q0 69 41 108t117 39q77 0 118 -39t41 -108v-74q0 -68 -41 -106.5t-118 -38.5q-76 0 -117 38.5t-41 106.5v74zM718 201q0 45 -26 70t-75 25t-75 -25t-26 -70v-67
q0 -45 26 -70t75 -25t75 25t26 70v67z" />
    <glyph glyph-name="ampersand" unicode="&#x26;" horiz-adv-x="661" 
d="M106 553q0 70 49.5 120.5t131.5 50.5q76 0 126.5 -49t50.5 -118q0 -68 -37.5 -109.5t-121.5 -78.5l-9 -4l179 -175l69 67q12 12 24 0l23 -24q10 -10 -1 -21l-71 -69l126 -125q18 -18 -8 -18h-42q-18 0 -28 11l-92 90q-75 -69 -125.5 -92t-110.5 -23q-84 0 -140.5 55.5
t-56.5 139.5q0 75 40.5 121.5t111.5 80.5q-88 88 -88 170zM401 557q0 43 -33 75.5t-81 32.5q-53 0 -85 -33.5t-32 -79.5q0 -27 12.5 -53t27 -43t42.5 -45l25 13q65 28 94.5 54.5t29.5 78.5zM238 337q-64 -29 -95.5 -64.5t-31.5 -92.5q0 -56 38 -93t93 -37q47 0 87 20.5
t102 77.5z" />
    <glyph glyph-name="quotesingle" unicode="'" horiz-adv-x="184" 
d="M117 490q-1 -10 -4 -13t-14 -3h-18q-11 0 -14 3t-3 13v204q0 10 3.5 13t13.5 3h28q11 0 14.5 -3t2.5 -13z" />
    <glyph glyph-name="parenleft" unicode="(" horiz-adv-x="256" 
d="M60 611q0 90 34.5 144t105.5 86q15 7 24 -10l13 -26q6 -14 -10 -24q-52 -25 -76.5 -62.5t-24.5 -103.5v-520q0 -66 24.5 -103.5t76.5 -62.5q17 -10 10 -24l-13 -26q-9 -17 -24 -10q-71 32 -105.5 86t-34.5 144v512z" />
    <glyph glyph-name="parenright" unicode=")" horiz-adv-x="256" 
d="M32 831q9 17 24 10q71 -32 105.5 -86t34.5 -144v-512q0 -90 -34.5 -144t-105.5 -86q-15 -7 -24 10l-13 26q-6 14 10 24q52 25 76.5 62.5t24.5 103.5v520q0 66 -24.5 103.5t-76.5 62.5q-16 10 -10 24z" />
    <glyph glyph-name="asterisk" unicode="*" horiz-adv-x="379" 
d="M200 673q14 0 11 -12l-8 -105l98 39q11 6 17 -6l6 -20q3 -12 -9 -15l-103 -24l68 -82q10 -8 -1 -16l-18 -12q-10 -9 -16 3l-55 89l-56 -88q-5 -12 -17 -5l-17 13q-11 8 -2 17l69 81l-101 25q-14 1 -9 14l6 21q6 11 16 6l97 -40l-7 105q-3 12 10 12h21z" />
    <glyph glyph-name="plus" unicode="+" horiz-adv-x="567" 
d="M500 359q19 0 19 -20v-24q0 -11 -4 -15t-15 -4h-185v-185q0 -11 -4.5 -15.5t-15.5 -4.5h-24q-11 0 -15.5 4.5t-4.5 15.5v185h-184q-11 0 -15.5 4t-4.5 15v24q0 11 4.5 15.5t15.5 4.5h184v184q0 11 4.5 15.5t15.5 4.5h24q11 0 15.5 -4.5t4.5 -15.5v-184h185z" />
    <glyph glyph-name="comma" unicode="," horiz-adv-x="181" 
d="M71 -103q-5 -18 -22 -18h-13q-15 0 -12 14l34 166q1 13 6.5 17.5t18.5 4.5h26q28 0 19 -22z" />
    <glyph glyph-name="hyphen" unicode="-" horiz-adv-x="422" 
d="M340 298q11 0 15.5 -4.5t4.5 -15.5v-25q0 -11 -4.5 -15.5t-15.5 -4.5h-259q-19 0 -19 20v25q0 20 19 20h259z" />
    <glyph glyph-name="period" unicode="." horiz-adv-x="186" 
d="M96 80q23 0 31 -8.5t8 -31.5v-6q0 -23 -8.5 -31.5t-30.5 -8.5h-6q-23 0 -31.5 8.5t-8.5 31.5v6q0 23 8.5 31.5t31.5 8.5h6z" />
    <glyph glyph-name="slash" unicode="/" horiz-adv-x="408" 
d="M102 -43q-7 -17 -24 -17h-33q-18 0 -12 17l273 737q6 16 25 16h33q18 0 12 -16z" />
    <glyph glyph-name="zero" unicode="0" horiz-adv-x="626" 
d="M58 492q0 108 67 170t188 62t188 -62t67 -170v-274q0 -108 -67 -170t-188 -62t-188 62t-67 170v274zM495 492q0 78 -47.5 121.5t-134.5 43.5t-135 -43.5t-48 -121.5v-274q0 -78 48 -121.5t135 -43.5t134.5 43.5t47.5 121.5v274z" />
    <glyph glyph-name="one" unicode="1" horiz-adv-x="444" 
d="M336 710q11 0 15.5 -4.5t4.5 -15.5v-670q0 -11 -4.5 -15.5t-15.5 -4.5h-32q-12 0 -16.5 4.5t-4.5 15.5v602l-211 -117q-19 -11 -29 7l-15 27q-9 16 9 26l244 137q13 8 28 8h27z" />
    <glyph glyph-name="two" unicode="2" horiz-adv-x="590" 
d="M54 562q69 162 257 162q102 0 165.5 -62t63.5 -152q0 -55 -16.5 -95.5t-55 -71t-78.5 -50.5t-111 -48q-38 -14 -57 -22.5t-45.5 -25.5t-38.5 -39t-12 -51v-39h388q11 0 15.5 -4.5t4.5 -15.5v-28q0 -11 -4.5 -15.5t-15.5 -4.5h-443q-21 0 -21 20v73q0 39 12.5 70.5
t29.5 52t48.5 40.5t54.5 30.5t63 25.5q103 40 137 64q68 49 69 131q0 63 -43 106.5t-112 43.5q-71 0 -115 -29.5t-72 -90.5q-5 -11 -9.5 -13.5t-15.5 1.5l-31 12q-20 7 -12 25z" />
    <glyph glyph-name="three" unicode="3" horiz-adv-x="599" 
d="M529 526q0 -118 -90 -157q112 -40 112 -173q0 -99 -60.5 -154.5t-182.5 -55.5q-111 0 -172 43.5t-88 130.5q-6 19 12 26l31 11q19 7 26 -13q21 -68 63 -99.5t128 -31.5q85 0 126.5 37.5t41.5 106.5q0 62 -34.5 97.5t-99.5 35.5h-145q-20 0 -20 19v27q0 11 4.5 15.5
t15.5 4.5h136q60 0 92 34.5t32 88.5q0 67 -38 102.5t-113 35.5q-82 0 -122 -30t-61 -98q-6 -17 -26 -12l-31 11q-18 7 -12 25q27 87 86 129t168 42q108 0 164.5 -52t56.5 -146z" />
    <glyph glyph-name="four" unicode="4" horiz-adv-x="610" 
d="M562 258q11 0 15.5 -4.5t4.5 -15.5v-25q0 -11 -4.5 -15.5t-15.5 -4.5h-92v-173q0 -11 -4.5 -15.5t-15.5 -4.5h-29q-11 0 -15.5 4.5t-4.5 15.5v173h-356q-11 0 -15.5 4.5t-4.5 15.5v21q0 15 7 24l358 446q11 14 28 14h31q12 0 16.5 -4.5t4.5 -15.5v-440h92zM401 618
l-290 -360h290v360z" />
    <glyph glyph-name="five" unicode="5" horiz-adv-x="585" 
d="M497 710q11 0 15.5 -4.5t4.5 -15.5v-28q0 -11 -4.5 -15.5t-15.5 -4.5h-329l-21 -213h165q113 0 172.5 -61t59.5 -156q0 -96 -65.5 -161.5t-176.5 -65.5q-202 0 -260 158q-7 18 11 25l33 12q17 7 25 -13q42 -114 191 -114q75 0 120 44.5t45 114.5q0 67 -41.5 108.5
t-117.5 41.5h-216q-25 0 -22 24l30 293q1 18 8.5 24.5t25.5 6.5h363z" />
    <glyph glyph-name="six" unicode="6" horiz-adv-x="621" 
d="M129 389q97 31 196 31q126 0 187 -54t61 -163q0 -102 -68.5 -159.5t-189.5 -57.5q-125 0 -191.5 66.5t-66.5 185.5v234q0 122 66 187t192 65q189 0 248 -153q6 -18 -13 -25l-30 -11q-11 -4 -15.5 -1t-9.5 14q-45 109 -180 109q-91 0 -138.5 -47t-47.5 -138v-83zM129 238
q0 -89 47.5 -137t138.5 -48q89 0 137.5 39t48.5 111q0 76 -43.5 112.5t-137.5 36.5q-113 0 -191 -34v-80z" />
    <glyph glyph-name="seven" unicode="7" horiz-adv-x="519" 
d="M487 710q19 0 19 -20v-20q0 -13 -5 -28l-277 -624q-5 -12 -11.5 -15t-25.5 -3h-32q-18 0 -10 20l278 622h-377q-11 0 -15 4.5t-4 15.5v28q0 11 4 15.5t15 4.5h441z" />
    <glyph glyph-name="eight" unicode="8" horiz-adv-x="616" 
d="M69 538q0 89 63.5 137.5t174.5 48.5q118 0 179 -46t61 -135q0 -125 -140 -178q76 -27 118.5 -67.5t42.5 -117.5q0 -91 -63 -142.5t-198 -51.5q-259 0 -259 183q0 133 162 192q-66 27 -103.5 67.5t-37.5 109.5zM476 537q0 61 -43 92.5t-125 31.5q-79 0 -122.5 -32
t-43.5 -92q0 -34 12.5 -58t40 -40t51.5 -24.5t66 -19.5l23 -7q23 7 37 12.5t43 22.5t45 46t16 68zM492 179q0 24 -5.5 43.5t-21 34t-27 24t-40.5 19.5t-42.5 14t-50.5 14q-6 2 -9 2.5t-8 2t-9 2.5q-158 -42 -158 -159q0 -127 187 -127q184 0 184 130z" />
    <glyph glyph-name="nine" unicode="9" horiz-adv-x="621" 
d="M491 321q-93 -31 -195 -31q-126 0 -187 54t-61 163q0 102 68.5 159.5t189.5 57.5q125 0 191.5 -66.5t66.5 -185.5v-234q0 -122 -66 -187t-192 -65q-189 0 -248 153q-6 18 13 25l30 11q11 4 15.5 1t9.5 -14q45 -109 180 -109q91 0 138 47t47 138v83zM491 472q0 89 -47 137
t-138 48q-89 0 -137.5 -39t-48.5 -111q0 -76 43.5 -112.5t137.5 -36.5q117 0 190 34v80z" />
    <glyph glyph-name="colon" unicode=":" horiz-adv-x="209" 
d="M107 486q23 0 31.5 -8.5t8.5 -30.5v-7q0 -22 -8.5 -30.5t-31.5 -8.5h-6q-23 0 -31 8.5t-8 30.5v7q0 23 8 31t31 8h6zM107 80q23 0 31.5 -8.5t8.5 -31.5v-6q0 -22 -8.5 -31t-31.5 -9h-6q-23 0 -31 8.5t-8 31.5v6q0 23 8 31.5t31 8.5h6z" />
    <glyph glyph-name="semicolon" unicode=";" horiz-adv-x="237" 
d="M131 486q23 0 31.5 -8.5t8.5 -30.5v-7q0 -22 -8.5 -30.5t-31.5 -8.5h-6q-23 0 -31 8.5t-8 30.5v7q0 23 8 31t31 8h6zM101 -103q-6 -18 -23 -18h-12q-9 0 -11.5 3t-1.5 11l34 166q2 13 7.5 17.5t18.5 4.5h26q26 0 19 -22z" />
    <glyph glyph-name="less" unicode="&#x3c;" horiz-adv-x="497" 
d="M414 557q22 11 22 -15v-26q0 -15 -3.5 -21t-16.5 -12l-294 -154v-3l294 -155q13 -6 16.5 -11.5t3.5 -21.5v-28q0 -26 -22 -15l-362 196q-16 9 -16 26v18q0 17 16 26z" />
    <glyph glyph-name="equal" unicode="=" horiz-adv-x="598" 
d="M515 458q20 0 20 -19v-26q0 -11 -4.5 -15.5t-15.5 -4.5h-433q-19 0 -19 20v26q0 19 19 19h433zM515 261q11 0 15.5 -4.5t4.5 -15.5v-26q0 -11 -4.5 -15.5t-15.5 -4.5h-433q-19 0 -19 20v26q0 20 19 20h433z" />
    <glyph glyph-name="greater" unicode="&#x3e;" horiz-adv-x="497" 
d="M61 542q0 27 22 15l361 -196q17 -9 17 -25v-19q0 -17 -17 -26l-361 -195q-22 -12 -22 14v26q0 16 3.5 21.5t15.5 11.5l295 155v3l-294 154q-13 6 -16.5 11.5t-3.5 21.5v28z" />
    <glyph glyph-name="question" unicode="?" horiz-adv-x="558" 
d="M32 575q65 165 254 165q110 0 174 -59t64 -147q0 -47 -11.5 -83.5t-36 -63.5t-41.5 -40t-50 -34q-8 -5 -11 -7q-44 -29 -66.5 -57.5t-22.5 -74.5q0 -11 -4 -15t-15 -4h-23q-11 0 -15 4t-4 15q0 68 28 106t81 73q32 21 45.5 31.5t35 32.5t30.5 50t9 64q0 63 -45 103.5
t-124 40.5q-137 0 -186 -123q-5 -11 -9.5 -13.5t-15.5 1.5l-29 9q-19 7 -12 26zM258 80q23 0 31 -8.5t8 -31.5v-6q0 -23 -8.5 -31.5t-30.5 -8.5h-6q-23 0 -31.5 8.5t-8.5 31.5v6q0 23 8.5 31.5t31.5 8.5h6z" />
    <glyph glyph-name="at" unicode="@" horiz-adv-x="901" 
d="M48 328q0 183 105.5 289.5t294.5 106.5q193 0 297 -107t104 -289v-72q0 -101 -50 -156t-123 -55q-29 0 -44.5 9.5t-26.5 31.5q-86 -36 -183 -36q-87 0 -130 43t-43 122v153q0 79 43 122t130 43q107 0 178 -30q20 -8 27 -17.5t7 -29.5v-320q0 -40 42 -40q50 0 84.5 39.5
t34.5 119.5v73q0 161 -90 254.5t-257 93.5q-163 0 -254.5 -92.5t-91.5 -255.5v-73q0 -163 90.5 -250.5t255.5 -87.5q87 0 215 27q11 3 11 -7v-27q0 -12 -11 -15q-94 -27 -215 -27q-191 0 -295.5 101.5t-104.5 286.5v72zM559 461q-55 19 -130 19q-122 0 -122 -114v-150
q0 -112 122 -112q85 0 147 31v302q0 16 -17 24z" />
    <glyph glyph-name="A" unicode="A" horiz-adv-x="641" 
d="M629 19q8 -19 -14 -19h-29q-31 0 -36 18l-75 190h-313l-75 -190q-3 -11 -10 -14.5t-25 -3.5h-27q-21 0 -13 19l268 677q6 17 25 17h30q20 0 26 -16zM335 575q-14 40 -14 69h-5q0 -32 -12 -69l-121 -307h272z" />
    <glyph glyph-name="B" unicode="B" horiz-adv-x="643" 
d="M380 710q92 0 142.5 -47t50.5 -135q0 -119 -94 -160v-2q119 -31 119 -175q0 -91 -56 -141t-151 -50h-293q-11 0 -15.5 4.5t-4.5 15.5v670q0 11 4.5 15.5t15.5 4.5h282zM499 519q0 123 -128 123h-221v-248h221q62 0 95 31.5t33 93.5zM522 198q0 64 -34.5 97.5t-99.5 33.5
h-238v-261h238q65 0 99.5 33t34.5 97z" />
    <glyph glyph-name="C" unicode="C" horiz-adv-x="636" 
d="M57 473q0 118 70.5 184.5t203.5 66.5q112 0 175.5 -42.5t90.5 -128.5q4 -11 1.5 -16.5t-13.5 -9.5l-31 -11q-19 -5 -26 12q-21 67 -66.5 98t-130.5 31q-98 0 -149.5 -48t-51.5 -135v-238q0 -86 52 -134.5t149 -48.5q86 0 132 32t67 100q8 18 26 13l31 -12q18 -7 12 -25
q-27 -87 -91 -131t-177 -44q-131 0 -202.5 66.5t-71.5 184.5v236z" />
    <glyph glyph-name="D" unicode="D" horiz-adv-x="653" 
d="M309 710q138 0 214 -70.5t76 -193.5v-182q0 -123 -76 -193.5t-214 -70.5h-211q-11 0 -15.5 4.5t-4.5 15.5v670q0 11 4.5 15.5t15.5 4.5h211zM526 446q0 94 -56 145t-161 51h-159v-574h159q105 0 161 51t56 145v182z" />
    <glyph glyph-name="E" unicode="E" horiz-adv-x="573" 
d="M503 710q19 0 19 -20v-28q0 -20 -19 -20h-353v-248h308q19 0 19 -20v-28q0 -20 -19 -20h-308v-258h366q19 0 19 -20v-28q0 -20 -19 -20h-418q-11 0 -15.5 4.5t-4.5 15.5v670q0 11 4.5 15.5t15.5 4.5h405z" />
    <glyph glyph-name="F" unicode="F" horiz-adv-x="555" 
d="M503 710q19 0 19 -20v-28q0 -20 -19 -20h-353v-259h304q11 0 15 -4t4 -15v-28q0 -20 -19 -20h-304v-296q0 -11 -4 -15.5t-15 -4.5h-33q-11 0 -15.5 4.5t-4.5 15.5v670q0 11 4.5 15.5t15.5 4.5h405z" />
    <glyph glyph-name="G" unicode="G" horiz-adv-x="655" 
d="M586 368q11 0 15.5 -4.5t4.5 -15.5v-123q0 -110 -71.5 -174.5t-202.5 -64.5q-133 0 -204 67t-71 185v235q0 118 70.5 184.5t203.5 66.5q112 0 175.5 -42.5t90.5 -128.5q4 -11 1.5 -16.5t-13.5 -9.5l-31 -11q-19 -5 -26 12q-21 67 -66.5 98t-130.5 31q-99 0 -150.5 -48
t-51.5 -135v-236q0 -88 52.5 -136.5t150.5 -48.5q97 0 150 46.5t53 125.5v75h-193q-11 0 -15.5 4.5t-4.5 15.5v28q0 11 4.5 15.5t15.5 4.5h244z" />
    <glyph glyph-name="H" unicode="H" horiz-adv-x="681" 
d="M584 710q19 0 19 -20v-670q0 -20 -19 -20h-33q-11 0 -15.5 4.5t-4.5 15.5v306h-381v-306q0 -11 -4 -15.5t-15 -4.5h-33q-11 0 -15.5 4.5t-4.5 15.5v670q0 11 4.5 15.5t15.5 4.5h33q11 0 15 -4.5t4 -15.5v-296h381v296q0 11 4.5 15.5t15.5 4.5h33z" />
    <glyph glyph-name="I" unicode="I" horiz-adv-x="228" 
d="M78 690q0 11 4.5 15.5t15.5 4.5h33q11 0 15 -4.5t4 -15.5v-670q0 -11 -4 -15.5t-15 -4.5h-33q-11 0 -15.5 4.5t-4.5 15.5v670z" />
    <glyph glyph-name="J" unicode="J" horiz-adv-x="570" 
d="M478 710q20 0 20 -19v-468q0 -112 -63 -175t-179 -63q-191 0 -236 187q-7 19 12 26l32 11q18 7 25 -13q16 -71 55.5 -107t111.5 -36q82 0 125.5 44.5t43.5 124.5v469q0 11 4 15t15 4h34z" />
    <glyph glyph-name="K" unicode="K" horiz-adv-x="609" 
d="M589 20q11 -20 -11 -20h-32q-19 0 -26.5 3.5t-13.5 14.5l-111 222q-24 48 -54.5 67.5t-88.5 19.5h-102v-307q0 -11 -4 -15.5t-15 -4.5h-33q-11 0 -15.5 4.5t-4.5 15.5v670q0 11 4.5 15.5t15.5 4.5h33q11 0 15 -4.5t4 -15.5v-297h96h22l224 300q13 17 40 17h36
q11 0 13.5 -6t-3.5 -13l-237 -312q75 -21 121 -112z" />
    <glyph glyph-name="L" unicode="L" horiz-adv-x="521" 
d="M131 710q11 0 15 -4.5t4 -15.5v-622h339q19 0 19 -20v-28q0 -20 -19 -20h-391q-11 0 -15.5 4.5t-4.5 15.5v670q0 11 4.5 15.5t15.5 4.5h33z" />
    <glyph glyph-name="M" unicode="M" horiz-adv-x="800" 
d="M703 710q11 0 15.5 -4.5t4.5 -15.5v-670q0 -11 -4.5 -15.5t-15.5 -4.5h-30q-11 0 -15.5 4.5t-4.5 15.5l1 408q0 92 12 177h-4q-32 -76 -77 -156l-152 -268q-7 -15 -23 -15h-20q-16 0 -24 15l-154 271q-37 63 -73 154h-4q11 -91 11 -179v-407q0 -11 -4.5 -15.5t-15.5 -4.5
h-28q-11 0 -15.5 4.5t-4.5 15.5v670q0 11 4.5 15.5t15.5 4.5h26q19 0 28 -16l248 -439l246 438q6 11 11 14t17 3h29z" />
    <glyph glyph-name="N" unicode="N" horiz-adv-x="691" 
d="M593 710q11 0 15.5 -4.5t4.5 -15.5v-670q0 -11 -4.5 -15.5t-15.5 -4.5h-32q-15 0 -21 11l-319 458q-21 31 -48 83.5t-32 59.5h-4q0 -8 5.5 -71t5.5 -106v-415q0 -20 -19 -20h-31q-11 0 -15.5 4.5t-4.5 15.5v670q0 11 4.5 15.5t15.5 4.5h32q14 0 21 -10l311 -449
q23 -33 52.5 -87t36.5 -64h3q0 10 -6 75.5t-6 110.5v405q0 19 20 19h31z" />
    <glyph glyph-name="O" unicode="O" horiz-adv-x="663" 
d="M57 473q0 118 71 184.5t204 66.5q132 0 203 -66.5t71 -184.5v-236q0 -118 -71 -184.5t-203 -66.5q-133 0 -204 66.5t-71 184.5v236zM534 473q0 88 -52 136t-150 48t-150.5 -48t-52.5 -136v-236q0 -88 52.5 -136t150.5 -48t150 48t52 136v236z" />
    <glyph glyph-name="P" unicode="P" horiz-adv-x="622" 
d="M365 710q105 0 165.5 -59t60.5 -163t-60.5 -162.5t-165.5 -58.5h-215v-247q0 -11 -4 -15.5t-15 -4.5h-33q-11 0 -15.5 4.5t-4.5 15.5v670q0 11 4.5 15.5t15.5 4.5h267zM359 334q73 0 115 41t42 113t-42 113t-115 41h-209v-308h209z" />
    <glyph glyph-name="Q" unicode="Q" horiz-adv-x="675" 
d="M617 -15q12 -15 -2 -28l-22 -18q-15 -14 -28 2l-72 85q-61 -40 -161 -40q-133 0 -204 66.5t-71 184.5v236q0 118 71 184.5t204 66.5q132 0 203 -66.5t71 -184.5v-236q0 -105 -58 -171zM129 237q0 -88 52.5 -136t150.5 -48t150 48t52 136v236q0 88 -52 136t-150 48
t-150.5 -48t-52.5 -136v-236z" />
    <glyph glyph-name="R" unicode="R" horiz-adv-x="644" 
d="M381 710q99 0 154.5 -54.5t55.5 -152.5q0 -82 -42.5 -133t-118.5 -63q39 -18 65 -69l112 -218q13 -20 -10 -20h-33q-31 0 -39 18l-97 193q-24 48 -54.5 67.5t-88.5 19.5h-135v-278q0 -11 -4 -15.5t-15 -4.5h-33q-11 0 -15.5 4.5t-4.5 15.5v670q0 11 4.5 15.5t15.5 4.5
h283zM516 503q0 67 -37 103t-105 36h-224v-276h224q67 0 104.5 35.5t37.5 101.5z" />
    <glyph glyph-name="S" unicode="S" horiz-adv-x="626" 
d="M52 519q0 94 68 149.5t190 55.5q102 0 163 -37t100 -117q9 -17 -11 -26l-31 -14q-10 -4 -15 -2.5t-11 11.5q-30 60 -75.5 88t-119.5 28q-89 0 -136.5 -34t-47.5 -98q0 -30 12 -52t29.5 -35t48 -22.5t54.5 -13.5t63 -8q44 -5 73 -10.5t66 -19t59 -33t37.5 -53.5t15.5 -80
q0 -99 -70 -154.5t-202 -55.5q-107 0 -171.5 42t-99.5 130q-6 19 12 27l31 11q17 6 26 -12q55 -130 202 -130q199 0 199 140q0 30 -11.5 51.5t-27.5 34.5t-44.5 22t-51.5 12.5t-60 7.5q-47 5 -76 10t-69 18.5t-63 33t-39.5 54t-16.5 81.5z" />
    <glyph glyph-name="T" unicode="T" horiz-adv-x="543" 
d="M510 710q11 0 15.5 -4.5t4.5 -15.5v-28q0 -11 -4.5 -15.5t-15.5 -4.5h-202v-622q0 -11 -4.5 -15.5t-15.5 -4.5h-33q-11 0 -15.5 4.5t-4.5 15.5v622h-202q-11 0 -15.5 4.5t-4.5 15.5v28q0 11 4.5 15.5t15.5 4.5h477z" />
    <glyph glyph-name="U" unicode="U" horiz-adv-x="682" 
d="M145 241q0 -89 49.5 -138.5t146.5 -49.5t146.5 49.5t49.5 138.5v449q0 11 4.5 15.5t15.5 4.5h33q11 0 15.5 -4.5t4.5 -15.5v-448q0 -120 -69 -188.5t-200 -68.5t-200 68.5t-69 188.5v448q0 11 4.5 15.5t15.5 4.5h33q11 0 15.5 -4.5t4.5 -15.5v-449z" />
    <glyph glyph-name="V" unicode="V" horiz-adv-x="622" 
d="M597 710q19 0 13 -19l-258 -674q-7 -17 -26 -17h-30q-19 0 -26 16l-257 675q-8 19 13 19h29q30 0 36 -18l196 -525q6 -18 14 -47t10 -33h3q2 4 9.5 33t13.5 47l196 525q5 18 35 18h29z" />
    <glyph glyph-name="W" unicode="W" horiz-adv-x="881" 
d="M844 710q19 0 13 -19l-178 -674q-5 -17 -26 -17h-31q-22 0 -26 16l-133 484q-11 42 -20 98h-4q-5 -41 -20 -97l-135 -484q-5 -17 -25 -17h-32q-21 0 -25 16l-179 675q-4 19 13 19h40q13 0 18.5 -3.5t8.5 -14.5l122 -483q4 -18 10.5 -60t7.5 -47h4q14 83 21 107l133 472
q5 18 27 18h31q22 0 27 -18l131 -473q7 -24 22 -106h4q11 72 18 105l122 485q2 11 7.5 14.5t18.5 3.5h35z" />
    <glyph glyph-name="X" unicode="X" horiz-adv-x="617" 
d="M600 21q6 -8 4 -14.5t-14 -6.5h-40q-18 0 -25 3t-13 15l-206 287l-203 -287q-7 -12 -14 -15t-24 -3h-38q-11 0 -13 6.5t4 14.5l244 340l-237 330q-5 7 -2.5 13t12.5 6h40q16 0 23 -3t15 -14l196 -275l197 275q7 11 13.5 14t22.5 3h40q10 0 12.5 -6t-2.5 -13l-238 -330z
" />
    <glyph glyph-name="Y" unicode="Y" horiz-adv-x="627" 
d="M601 710q10 0 13 -6t-3 -14l-261 -402v-268q0 -11 -4.5 -15.5t-15.5 -4.5h-33q-11 0 -15.5 4.5t-4.5 15.5v269l-261 401q-6 8 -3 14t13 6h41q18 0 25 -3t13 -15l209 -329l211 329q6 12 13 15t25 3h38z" />
    <glyph glyph-name="Z" unicode="Z" horiz-adv-x="566" 
d="M506 710q11 0 15.5 -4.5t4.5 -15.5v-27q0 -12 -7 -22l-396 -573h393q20 0 20 -19v-29q0 -11 -4.5 -15.5t-15.5 -4.5h-464q-19 0 -19 20v27q0 15 7 23l395 572h-378q-11 0 -15.5 4.5t-4.5 15.5v28q0 11 4.5 15.5t15.5 4.5h449z" />
    <glyph glyph-name="bracketleft" unicode="[" horiz-adv-x="272" 
d="M239 856q11 0 14 -3.5t3 -14.5v-25q0 -11 -3 -14.5t-14 -3.5h-107v-880h107q11 0 14 -3.5t3 -13.5v-26q0 -11 -3 -14.5t-14 -3.5h-154q-11 0 -14.5 3.5t-3.5 14.5v966q0 11 3.5 14.5t14.5 3.5h154z" />
    <glyph glyph-name="backslash" unicode="\" horiz-adv-x="408" 
d="M32 693q-6 17 12 17h34q17 0 24 -17l274 -736q6 -17 -12 -17h-34q-17 0 -24 17z" />
    <glyph glyph-name="bracketright" unicode="]" horiz-adv-x="272" 
d="M187 856q11 0 14.5 -3.5t3.5 -14.5v-966q0 -11 -3.5 -14.5t-14.5 -3.5h-153q-11 0 -14.5 3.5t-3.5 14.5v26q0 11 3.5 14t14.5 3h106v880h-106q-11 0 -14.5 3.5t-3.5 14.5v25q0 11 3.5 14.5t14.5 3.5h153z" />
    <glyph glyph-name="asciicircum" unicode="^" horiz-adv-x="592" 
d="M304 810q3 0 5 -0.5t3.5 -0.5t3 -1t2.5 -1.5t2.5 -2.5t2.5 -3t3 -3.5t3 -3.5l208 -252q19 -22 -10 -22h-30q-16 0 -22 2.5t-14 13.5l-165 205h-4l-164 -205q-8 -11 -14 -13.5t-22 -2.5h-28q-27 0 -10 22l206 252q13 16 25 16h19z" />
    <glyph glyph-name="underscore" unicode="_" horiz-adv-x="506" 
d="M459 0q11 0 15.5 -4.5t4.5 -15.5v-25q0 -11 -4.5 -15.5t-15.5 -4.5h-413q-19 0 -19 20v25q0 20 19 20h413z" />
    <glyph glyph-name="grave" unicode="`" horiz-adv-x="257" 
d="M40 724q11 14 33 1l162 -100q12 -7 2 -20l-10 -12q-7 -8 -23 -1l-176 93q-6 2 -8.5 5t-1 6.5t6.5 9.5z" />
    <glyph glyph-name="a" unicode="a" horiz-adv-x="512" 
d="M54 424q56 105 201 105q111 0 155.5 -53.5t44.5 -144.5v-262q0 -26 -7.5 -37t-28.5 -20q-60 -26 -166 -26q-124 0 -170 37.5t-46 117.5q0 85 50.5 120t169.5 35q41 0 131 -10v46q0 65 -29.5 101t-105.5 36q-99 0 -140 -73q-11 -15 -25 -8l-24 10q-19 7 -10 26zM388 231
q-90 9 -138 9q-79 0 -111.5 -23t-32.5 -75q0 -51 29.5 -75.5t112.5 -24.5q76 0 121 16q12 5 15.5 10t3.5 19v144z" />
    <glyph glyph-name="b" unicode="b" horiz-adv-x="537" 
d="M114 740q18 0 18 -18v-224q93 31 158 31q197 0 197 -196v-142q0 -205 -215 -205q-103 0 -169 30q-24 11 -31.5 21t-7.5 34v651q0 18 18 18h32zM420 331q0 136 -139 136q-72 0 -149 -32v-342q0 -12 3 -16.5t15 -9.5q49 -20 117 -20q153 0 153 145v139z" />
    <glyph glyph-name="c" unicode="c" horiz-adv-x="515" 
d="M49 332q0 93 55 145t163 52q168 0 209 -135q6 -19 -12 -26l-26 -9q-18 -6 -25 12q-16 51 -50.5 74.5t-97.5 23.5q-73 0 -111 -35.5t-38 -99.5v-153q0 -64 38.5 -100t110.5 -36q117 0 149 103q7 17 26 12l26 -8q19 -7 12 -26q-46 -140 -215 -140q-105 0 -159.5 52
t-54.5 145v149z" />
    <glyph glyph-name="d" unicode="d" horiz-adv-x="537" 
d="M50 329q0 96 49 148t148 52q74 0 158 -29v222q0 18 18 18h31q10 0 14 -4t4 -14v-652q0 -24 -7.5 -34t-31.5 -20q-71 -30 -173 -30q-210 0 -210 200v143zM405 437q-77 30 -146 30q-142 0 -142 -140v-140q0 -140 149 -140q67 0 120 19q12 5 15.5 9.5t3.5 16.5v345z" />
    <glyph glyph-name="e" unicode="e" horiz-adv-x="530" 
d="M47 318q0 100 56.5 155.5t164.5 55.5q109 0 165.5 -56.5t56.5 -150.5v-55q0 -28 -30 -28h-346v-58q0 -65 38.5 -101t111.5 -36q111 0 157 83q12 16 29 7l21 -11q19 -10 7 -29q-60 -108 -214 -108q-109 0 -163 54t-54 148v130zM423 326q0 68 -39.5 106.5t-115.5 38.5
q-75 0 -114.5 -38.5t-39.5 -106.5v-35h309v35z" />
    <glyph glyph-name="f" unicode="f" horiz-adv-x="353" 
d="M325 740q11 0 14.5 -4t3.5 -14v-26q0 -19 -18 -19q-82 0 -112.5 -29t-30.5 -109v-25h145q11 0 14.5 -4t3.5 -14v-26q0 -18 -18 -18h-145v-434q0 -10 -4 -14t-14 -4h-31q-18 0 -18 18v434h-89q-18 0 -18 18v26q0 10 4 14t14 4h89v25q0 107 47 153t155 48h8z" />
    <glyph glyph-name="g" unicode="g" horiz-adv-x="536" 
d="M49 324q0 205 216 205q97 0 169 -30q24 -11 31 -20.5t7 -34.5v-475q0 -216 -211 -216q-140 0 -198 107q-13 19 7 30l22 11q18 10 29 -7q43 -80 138 -80q146 0 146 152v62q-81 -30 -158 -30q-198 0 -198 195v131zM386 448q-51 19 -117 19q-152 0 -152 -144v-128
q0 -135 138 -135q73 0 150 29v333q0 12 -3 16.5t-16 9.5z" />
    <glyph glyph-name="h" unicode="h" horiz-adv-x="551" 
d="M116 740q10 0 14 -4t4 -14v-221q62 28 157 28q199 0 199 -196v-315q0 -18 -18 -18h-32q-18 0 -18 18v313q0 136 -140 136q-90 0 -148 -29v-420q0 -10 -4 -14t-14 -4h-31q-11 0 -14.5 4t-3.5 14v704q0 10 3.5 14t14.5 4h31z" />
    <glyph glyph-name="i" unicode="i" horiz-adv-x="200" 
d="M103 698q21 0 29 -8t8 -29v-7q0 -21 -8 -29t-29 -8h-6q-21 0 -29 8t-8 29v7q0 21 8 29t29 8h6zM116 514q18 0 18 -18v-478q0 -18 -18 -18h-32q-18 0 -18 18v478q0 18 18 18h32z" />
    <glyph glyph-name="j" unicode="j" horiz-adv-x="201" 
d="M103 698q22 0 30 -8t8 -29v-7q0 -21 -8 -29t-30 -8h-5q-22 0 -30 8t-8 29v7q0 21 8 29t30 8h5zM116 514q10 0 14 -4t4 -14v-505q0 -109 -49 -165t-159 -56q-10 0 -14 4t-4 14v26q0 19 18 19q78 0 109.5 39.5t31.5 119.5v504q0 10 3.5 14t14.5 4h31z" />
    <glyph glyph-name="k" unicode="k" horiz-adv-x="507" 
d="M483 21q6 -11 3.5 -16t-14.5 -5h-30q-15 0 -20.5 3t-10.5 13l-76 156q-15 32 -37.5 46.5t-59.5 14.5h-104v-214q0 -11 -4 -15t-15 -4h-29q-11 0 -15 4t-4 15v703q0 11 4 14.5t15 3.5h29q11 0 15 -3.5t4 -14.5v-427h96h9l161 205q7 10 13 12t22 2h28q27 0 12 -21
l-169 -211q54 -14 87 -81z" />
    <glyph glyph-name="l" unicode="l" horiz-adv-x="207" 
d="M137 18q0 -10 -3.5 -14t-14.5 -4h-31q-10 0 -14 4t-4 14v704q0 10 4 14t14 4h31q11 0 14.5 -4t3.5 -14v-704z" />
    <glyph glyph-name="m" unicode="m" horiz-adv-x="817" 
d="M391 486q95 43 181 43q183 0 183 -190v-321q0 -10 -3.5 -14t-14.5 -4h-31q-10 0 -14 4t-4 14v318q0 131 -124 131q-71 0 -136 -34q19 -37 19 -94v-321q0 -10 -3.5 -14t-14.5 -4h-31q-10 0 -14 4t-4 14v318q0 131 -127 131q-59 0 -105 -20q-16 -7 -16 -27v-402
q0 -18 -18 -18h-32q-18 0 -18 18v422q0 23 8 35t30 22q72 32 160 32q84 0 129 -43z" />
    <glyph glyph-name="n" unicode="n" 
d="M102 495q83 34 186 34q199 0 199 -196v-315q0 -18 -18 -18h-31q-10 0 -14 4t-4 14v313q0 136 -140 136q-71 0 -133 -22q-15 -7 -15 -25v-402q0 -18 -18 -18h-32q-18 0 -18 18v422q0 23 7.5 34t30.5 21z" />
    <glyph glyph-name="o" unicode="o" horiz-adv-x="539" 
d="M50 345q0 86 58.5 135t160.5 49q103 0 162 -49t59 -135v-176q0 -86 -59 -134.5t-162 -48.5q-102 0 -160.5 49t-58.5 134v176zM422 345q0 57 -41 90t-112 33q-70 0 -111 -33t-41 -90v-176q0 -57 41.5 -89.5t110.5 -32.5q71 0 112 32.5t41 89.5v176z" />
    <glyph glyph-name="p" unicode="p" horiz-adv-x="537" 
d="M104 500q73 29 175 29q208 0 208 -200v-144q0 -199 -205 -199q-65 0 -150 34v-222q0 -18 -18 -18h-32q-18 0 -18 18v646q0 24 8 35t32 21zM420 327q0 140 -149 140q-67 0 -120 -19q-13 -5 -16 -10t-3 -17v-339q73 -35 145 -35q143 0 143 140v140z" />
    <glyph glyph-name="q" unicode="q" horiz-adv-x="537" 
d="M265 529q99 0 169 -30q24 -11 31 -20.5t7 -34.5v-646q0 -10 -4 -14t-14 -4h-31q-18 0 -18 18v223q-86 -35 -158 -35q-197 0 -197 195v143q0 205 215 205zM117 182q0 -135 139 -135q73 0 149 35v339q0 12 -3.5 17t-16.5 10q-51 19 -116 19q-152 0 -152 -144v-141z" />
    <glyph glyph-name="r" unicode="r" horiz-adv-x="342" 
d="M283 529h31q18 0 18 -18v-26q0 -18 -18 -18h-33q-75 0 -132 -21q-17 -7 -17 -26v-402q0 -18 -18 -18h-32q-18 0 -18 18v424q0 23 8 34.5t30 21.5q76 29 181 31z" />
    <glyph glyph-name="s" unicode="s" horiz-adv-x="496" 
d="M46 379q0 70 50.5 110t146.5 40q156 0 204 -109q10 -18 -9 -26l-25 -11q-16 -7 -25 9q-17 38 -49.5 57t-94.5 19q-131 0 -131 -87q0 -23 8 -39.5t19 -25.5t33.5 -15t40 -8.5t50.5 -5.5q46 -4 77 -11.5t60 -23t43.5 -43.5t14.5 -70q0 -72 -52 -112.5t-153 -40.5
q-168 0 -216 124q-8 18 11 24l26 9q16 5 24 -11q33 -87 153 -87q141 0 141 91q0 49 -34.5 66.5t-110.5 25.5q-38 4 -60.5 7.5t-53 13.5t-47.5 25t-29 41.5t-12 63.5z" />
    <glyph glyph-name="t" unicode="t" horiz-adv-x="359" 
d="M167 634q11 0 14.5 -4t3.5 -14v-102h145q18 0 18 -18v-26q0 -18 -18 -18h-145v-260q0 -87 29.5 -114.5t113.5 -27.5q18 0 18 -19v-27q0 -10 -4 -14t-14 -4q-117 -2 -163.5 41.5t-46.5 162.5v262h-95q-18 0 -18 18v26q0 18 18 18h95v102q0 18 18 18h31z" />
    <glyph glyph-name="u" unicode="u" 
d="M467 514q18 0 18 -18v-422q0 -23 -7.5 -34t-30.5 -21q-80 -33 -187 -33q-198 0 -198 195v315q0 10 4 14t14 4h31q11 0 14.5 -4t3.5 -14v-312q0 -137 140 -137q75 0 130 22q18 8 18 28v399q0 18 18 18h32z" />
    <glyph glyph-name="v" unicode="v" horiz-adv-x="504" 
d="M473 514q13 0 16 -4t-2 -16l-200 -480q-8 -17 -25 -17h-19q-19 0 -26 17l-200 479q-5 13 -2 17t17 4h23q16 0 21.5 -3.5t9.5 -14.5l137 -330q7 -20 16.5 -51.5t11.5 -35.5h3q2 5 11 35.5t16 50.5l136 331q4 11 10 14.5t22 3.5h24z" />
    <glyph glyph-name="w" unicode="w" horiz-adv-x="731" 
d="M692 514q13 0 16 -4.5t-1 -16.5l-148 -480q-4 -16 -24 -16h-21q-20 0 -25 16l-103 327q-6 21 -12.5 51t-7.5 34h-3q-2 -5 -8 -35t-12 -50l-103 -327q-5 -16 -24 -16h-21q-19 0 -24 16l-147 480q-4 12 -1 16.5t16 4.5h23q16 0 22.5 -3.5t8.5 -14.5l91 -310
q5 -20 12.5 -58.5t9.5 -45.5h3q2 6 10.5 45t14.5 60l96 298q3 11 8 14.5t21 3.5h15q15 0 20 -3.5t9 -14.5l95 -295q7 -23 15.5 -62t10.5 -46h3q2 6 9 44t14 62l90 308q3 12 9 15t23 3h20z" />
    <glyph glyph-name="x" unicode="x" horiz-adv-x="487" 
d="M445 514q26 0 12 -20l-171 -230l182 -244q14 -20 -13 -20h-30q-22 0 -32 15l-150 201l-149 -201q-9 -15 -32 -15h-28q-28 0 -13 20l182 244l-174 230q-13 20 14 20h28q23 0 33 -15l140 -186l140 186q7 10 12 12.5t19 2.5h30z" />
    <glyph glyph-name="y" unicode="y" horiz-adv-x="551" 
d="M467 514q18 0 18 -18v-527q0 -216 -213 -216q-141 0 -199 107q-12 20 7 30l22 11q18 10 29 -7q43 -80 140 -80q146 0 146 152v59q-88 -26 -157 -26q-198 0 -198 195v302q0 10 4 14t14 4h31q11 0 14.5 -4t3.5 -14v-299q0 -137 140 -137q64 0 148 27v409q0 18 18 18h32z
" />
    <glyph glyph-name="z" unicode="z" horiz-adv-x="455" 
d="M407 61q18 0 18 -18v-25q0 -18 -18 -18h-358q-11 0 -14.5 4t-3.5 14v25q0 12 6 20l297 390h-282q-17 0 -17 18v25q0 10 3.5 14t13.5 4h350q10 0 14 -4t4 -14v-25q0 -12 -7 -21l-297 -389h291z" />
    <glyph glyph-name="braceleft" unicode="{" horiz-adv-x="320" 
d="M288 856q18 0 18 -18v-26q0 -18 -18 -18h-45q-65 0 -65 -70v-249q0 -92 -68 -121q68 -25 68 -122v-247q0 -70 65 -70h45q18 0 18 -18v-26q0 -18 -18 -18h-46q-70 0 -99.5 30.5t-29.5 97.5v242q0 96 -82 96h-10q-15 0 -15 18v33q0 18 15 18h10q82 0 82 96v243
q0 67 29.5 98t98.5 31h47z" />
    <glyph glyph-name="bar" unicode="|" horiz-adv-x="199" 
d="M113 856q11 0 14.5 -4t3.5 -14v-967q0 -11 -3.5 -14.5t-14.5 -3.5h-28q-18 0 -18 18v967q0 18 18 18h28z" />
    <glyph glyph-name="braceright" unicode="}" horiz-adv-x="320" 
d="M79 856q69 0 98.5 -31t29.5 -98v-243q0 -96 82 -96h10q15 0 15 -18v-33q0 -18 -15 -18h-10q-82 0 -82 -96v-242q0 -67 -29.5 -97.5t-99.5 -30.5h-46q-18 0 -18 18v26q0 18 18 18h45q65 0 65 70v247q0 97 68 122q-68 29 -68 121v249q0 70 -65 70h-45q-18 0 -18 18v26
q0 18 18 18h47z" />
    <glyph glyph-name="asciitilde" unicode="~" horiz-adv-x="560" 
d="M69 325q54 49 119 49q41 0 94.5 -20.5t83.5 -20.5q45 0 82 34q8 8 13.5 7.5t12.5 -8.5l19 -17q15 -15 0 -28q-56 -49 -120 -49q-41 0 -94 20.5t-83 20.5q-43 0 -82 -34q-13 -12 -26 1l-19 17q-14 15 0 28z" />
    <glyph glyph-name="exclamdown" unicode="&#xa1;" horiz-adv-x="196" 
d="M95 432q-22 0 -30.5 8.5t-8.5 31.5v6q0 23 8 31.5t31 8.5h6q23 0 31.5 -9t8.5 -31v-6q0 -22 -8.5 -31t-31.5 -9h-6zM81 -228q-18 0 -18 18l8 536q1 18 18 18h18q18 0 18 -18l9 -536q0 -18 -18 -18h-35z" />
    <glyph glyph-name="cent" unicode="&#xa2;" horiz-adv-x="534" 
d="M472 152q19 -7 12 -26q-40 -126 -179 -137v-55q0 -18 -18 -18h-32q-18 0 -18 18v54q-89 7 -136 58t-47 137v149q0 84 46.5 135t136.5 59v66q0 18 18 18h32q18 0 18 -18v-66q140 -11 177 -132q6 -19 -12 -26l-26 -9q-18 -6 -26 12q-15 51 -50 74.5t-98 23.5
q-73 0 -110.5 -35.5t-37.5 -99.5v-153q0 -64 38 -100t110 -36q118 0 150 103q6 17 25 12z" />
    <glyph glyph-name="sterling" unicode="&#xa3;" horiz-adv-x="635" 
d="M138 533q0 83 55 137t161 54q89 0 144.5 -37t84.5 -117q6 -18 -13 -25l-30 -11q-12 -4 -16 -1.5t-10 13.5q-23 61 -60 86t-98 25q-71 0 -106.5 -35t-35.5 -92v-160h257q11 0 15.5 -4.5t4.5 -15.5v-24q0 -19 -20 -19h-257v-136q0 -72 -50 -107v-3q72 7 129 7h268
q11 0 15.5 -4.5t4.5 -15.5v-28q0 -11 -4.5 -15.5t-15.5 -4.5h-503q-11 0 -15 4.5t-4 15.5v29q0 16 12 16h17q37 4 53.5 34t16.5 71v137h-71q-11 0 -15 4t-4 15v24q0 11 4 15.5t15 4.5h71v163z" />
    <glyph glyph-name="currency" unicode="&#xa4;" horiz-adv-x="601" 
d="M536 150q12 -12 0 -26l-22 -21q-14 -14 -26 0l-54 53q-58 -47 -134 -47q-74 0 -133 46l-53 -54q-14 -14 -26 0l-22 22q-12 13 0 25l54 55q-47 58 -47 133q0 76 46 133l-54 54q-12 14 0 26l22 22q13 13 25 0l54 -54q59 46 134 46q76 0 133 -45l53 54q14 12 26 0l22 -22
q12 -12 0 -25l-53 -54q46 -59 46 -135t-45 -133zM300 501q-68 0 -116 -47.5t-49 -116.5q1 -69 49 -117.5t116 -48.5q69 0 117 48.5t48 117.5t-47.5 116.5t-117.5 47.5z" />
    <glyph glyph-name="yen" unicode="&#xa5;" horiz-adv-x="638" 
d="M597 710q21 0 10 -20l-224 -340h123q17 0 17 -18v-18q0 -18 -17 -18h-151v-91h151q17 0 17 -18v-18q0 -18 -17 -18h-151v-131q0 -20 -19 -20h-33q-11 0 -15.5 4.5t-4.5 15.5v131h-152q-17 0 -17 18v18q0 18 17 18h152v91h-152q-17 0 -17 18v18q0 18 17 18h126l-225 340
q-6 8 -3 14t13 6h36q18 0 25 -3t13 -15l205 -318l204 318q6 12 13 15t25 3h34z" />
    <glyph glyph-name="brokenbar" unicode="&#xa6;" horiz-adv-x="208" 
d="M118 856q18 0 18 -18v-389q0 -18 -18 -18h-28q-10 0 -14 3.5t-4 14.5v389q0 10 4 14t14 4h28zM118 279q18 0 18 -18v-389q0 -18 -18 -18h-28q-10 0 -14 4t-4 14v389q0 11 4 14.5t14 3.5h28z" />
    <glyph glyph-name="section" unicode="&#xa7;" horiz-adv-x="596" 
d="M60 545q0 83 59 133.5t176 50.5q180 0 241 -160q9 -19 -11 -28l-28 -13q-19 -8 -28 11q-45 121 -174 121q-161 0 -161 -115q0 -27 10.5 -46.5t24 -30.5t40.5 -19t45.5 -11t53.5 -7q40 -5 66.5 -10t60.5 -17t54 -29.5t34.5 -47.5t14.5 -70q0 -90 -89 -146q96 -38 96 -149
q0 -83 -62.5 -133.5t-182.5 -50.5q-192 0 -249 166q-7 19 13 26l29 10q19 8 26 -13q42 -121 181 -121q87 0 130 30.5t43 84.5q0 27 -10.5 46.5t-24.5 30.5t-41 18.5t-46.5 10.5t-54.5 6q-38 4 -58 7t-54 10.5t-53 18.5t-39.5 29t-29.5 45t-9 62q0 100 104 151
q-97 40 -97 149zM293 363q-58 7 -70 10q-96 -36 -96 -119q0 -27 10.5 -46.5t25.5 -31t40.5 -19t47.5 -10.5t55 -6q71 -9 74 -9q85 40 85 119q0 31 -13.5 52t-41 33t-53 17t-64.5 10z" />
    <glyph glyph-name="dieresis" unicode="&#xa8;" horiz-adv-x="439" 
d="M122 687q19 0 26 -7t7 -25v-8q0 -19 -7 -26t-26 -7h-6q-19 0 -25.5 7t-6.5 26v8q0 18 6.5 25t25.5 7h6zM316 687q19 0 26 -7t7 -25v-8q0 -19 -7 -26t-26 -7h-6q-19 0 -26 7t-7 26v8q0 18 7 25t26 7h6z" />
    <glyph glyph-name="copyright" unicode="&#xa9;" horiz-adv-x="807" 
d="M45 351q0 151 104 255t256 104q150 0 253.5 -104t103.5 -255t-103.5 -255t-253.5 -104q-151 0 -255.5 104.5t-104.5 254.5zM714 351q0 132 -89.5 221.5t-219.5 89.5q-132 0 -221.5 -89.5t-89.5 -221.5q0 -131 89.5 -221t221.5 -90q130 0 219.5 90t89.5 221zM246 405
q0 67 40 104.5t115 37.5q120 0 150 -98q5 -15 -8 -19l-18 -6q-14 -6 -18 9q-11 37 -35 53t-71 16q-107 0 -107 -97v-115q0 -46 27 -71.5t80 -25.5q45 0 70.5 17.5t36.5 55.5q5 14 20 9l15 -6q15 -5 10 -19q-33 -102 -152 -102q-74 0 -114.5 38t-40.5 104v115z" />
    <glyph glyph-name="ordfeminine" unicode="&#xaa;" horiz-adv-x="368" 
d="M64 612q40 58 121 58q68 0 96.5 -32t28.5 -92v-125q0 -23 -6.5 -32.5t-25.5 -18.5q-33 -15 -97 -15q-70 0 -99 22t-29 66q0 46 29.5 69t100.5 23q50 0 74 -4v19q0 38 -16.5 56.5t-56.5 18.5q-48 0 -78 -40q-8 -7 -19 -3l-15 8q-18 9 -8 22zM257 491q-32 5 -77 5
q-42 0 -58.5 -13t-16.5 -38q0 -48 73 -48q43 0 63 9q16 6 16 24v61z" />
    <glyph glyph-name="guillemotleft" unicode="&#xab;" horiz-adv-x="564" 
d="M282 97q11 -11 0 -23l-21 -21q-12 -11 -24 0l-198 198q-10 11 0 23l201 201q13 11 23 0l20 -20q11 -12 0 -23l-168 -168zM511 97q11 -11 0 -23l-21 -21q-12 -11 -24 0l-198 198q-10 11 0 23l201 201q11 11 23 0l19 -20q11 -11 0 -23l-167 -168z" />
    <glyph glyph-name="logicalnot" unicode="&#xac;" horiz-adv-x="580" 
d="M498 389q18 0 18 -18v-213q0 -18 -18 -18h-32q-18 0 -18 18v168h-367q-18 0 -18 18v27q0 18 18 18h417z" />
    <glyph glyph-name="registered" unicode="&#xae;" horiz-adv-x="481" 
d="M47 516q0 80 57.5 137t137.5 57q79 0 136 -57t57 -137t-56.5 -137t-136.5 -57t-137.5 57t-57.5 137zM80 516q0 -68 47.5 -115.5t115.5 -47.5q66 0 113 48t47 115t-47 114.5t-113 47.5q-68 0 -115.5 -47t-47.5 -115zM262 617q33 0 51.5 -17.5t18.5 -48.5q0 -50 -45 -61
l38 -64q7 -11 -7 -11h-14q-9 0 -13 7l-37 65h-61v-65q0 -7 -8 -7h-14q-8 0 -8 7v185q0 10 11 10h88zM193 514h68q40 0 40 37t-40 37h-68v-74z" />
    <glyph glyph-name="macron" unicode="&#xaf;" horiz-adv-x="352" 
d="M293 676q10 0 13.5 -3.5t3.5 -13.5v-15q0 -10 -3.5 -13.5t-13.5 -3.5h-236q-10 0 -13.5 3.5t-3.5 13.5v15q0 10 4 13.5t13 3.5h236z" />
    <glyph glyph-name="degree" unicode="&#xb0;" horiz-adv-x="387" 
d="M345 555q0 -62 -44.5 -107t-106.5 -45q-63 0 -107.5 44.5t-44.5 107.5t44.5 107t107.5 44t107 -43.5t44 -107.5zM97 555q0 -40 28.5 -68.5t68.5 -28.5t68.5 28.5t28.5 68.5t-28.5 68t-68.5 28t-68.5 -28t-28.5 -68z" />
    <glyph glyph-name="plusminus" unicode="&#xb1;" horiz-adv-x="638" 
d="M535 425q11 0 15.5 -4.5t4.5 -15.5v-19q0 -11 -4.5 -15.5t-15.5 -4.5h-185v-112q0 -11 -4.5 -15.5t-15.5 -4.5h-22q-11 0 -15.5 4.5t-4.5 15.5v112h-185q-11 0 -15.5 4.5t-4.5 15.5v19q0 11 4.5 15.5t15.5 4.5h185v116q0 11 4.5 15.5t15.5 4.5h22q11 0 15.5 -4.5
t4.5 -15.5v-116h185zM535 181q11 0 15.5 -4.5t4.5 -15.5v-19q0 -11 -4.5 -15.5t-15.5 -4.5h-432q-11 0 -15.5 4.5t-4.5 15.5v19q0 11 4.5 15.5t15.5 4.5h432z" />
    <glyph glyph-name="twosuperior" unicode="&#xb2;" horiz-adv-x="355" 
d="M39 711q6 15 9 21.5t15.5 26t26 30t38 20t54.5 9.5q65 0 100.5 -33.5t35.5 -87.5q0 -52 -28.5 -78t-88.5 -46l-59 -19q-50 -19 -50 -62v-25h204q18 0 18 -18v-18q0 -17 -18 -17h-240q-19 0 -19 19v39q0 48 18.5 77t61.5 45l58 23q3 1 13 5t13 5t11.5 4.5t11.5 5.5t9.5 6
t9 7.5t6.5 8.5t5.5 10t3 11.5t1.5 14.5q0 31 -20 50t-58 19q-20 0 -35.5 -6.5t-25 -16.5t-14.5 -19t-8 -18l-4 -10q-5 -12 -9.5 -14t-15.5 1l-17 5q-20 8 -13 25z" />
    <glyph glyph-name="threesuperior" unicode="&#xb3;" horiz-adv-x="363" 
d="M36 712q32 106 152 106q60 0 94 -30.5t34 -81.5q0 -62 -48 -87q59 -27 59 -100q0 -52 -35.5 -82.5t-104.5 -30.5q-63 0 -99.5 26t-53.5 79q-6 19 10 25l18 6q18 5 25 -13q12 -38 34 -54.5t66 -16.5q41 0 62 18t21 49q0 28 -16 46t-44 18h-60q-11 0 -14 3.5t-3 14.5v15
q0 13 3 16t15 3h55q27 0 41.5 16.5t14.5 42.5q0 31 -19.5 49t-54.5 18q-78 0 -98 -71q-5 -13 -11 -16t-19 1l-12 5q-18 8 -12 26z" />
    <glyph glyph-name="acute" unicode="&#xb4;" horiz-adv-x="257" 
d="M190 725q23 12 34 -1l15 -18q5 -6 6.5 -9.5t-1 -6.5t-8.5 -5l-176 -93q-16 -7 -24 1l-9 12q-10 13 2 20z" />
    <glyph glyph-name="mu" unicode="&#xb5;" horiz-adv-x="548" 
d="M468 514q18 0 18 -18v-422q0 -23 -8 -34.5t-30 -21.5q-83 -33 -172 -33q-106 0 -146 69v-256q0 -10 -4 -14t-14 -4h-31q-18 0 -18 18v698q0 18 18 18h31q10 0 14 -4t4 -14v-313q0 -137 140 -137q71 0 131 22q18 8 18 28v400q0 10 3.5 14t14.5 4h31z" />
    <glyph glyph-name="paragraph" unicode="&#xb6;" horiz-adv-x="430" 
d="M339 710q11 0 14.5 -4t3.5 -14v-763q0 -11 -3.5 -14.5t-14.5 -3.5h-27q-10 0 -14 3.5t-4 14.5v713h-54v-713q0 -18 -18 -18h-27q-18 0 -18 18v508q-59 2 -96 39.5t-37 96.5q0 61 38 99t100 38h157z" />
    <glyph glyph-name="periodcentered" unicode="&#xb7;" horiz-adv-x="212" 
d="M109 316q22 0 30.5 -8.5t8.5 -31.5v-7q0 -23 -8 -31t-31 -8h-6q-23 0 -31.5 8.5t-8.5 30.5v7q0 22 8.5 31t31.5 9h6z" />
    <glyph glyph-name="cedilla" unicode="&#xb8;" horiz-adv-x="251" 
d="M127 -74q10 3 25 3q40 0 63.5 -22t21.5 -58q-3 -48 -35.5 -71.5t-83.5 -23.5q-48 0 -80 19q-12 7 -12 20v19q0 13 10 7q33 -23 74 -23q33 0 51 15t18 41q0 42 -60 42q-20 0 -33 -4q-9 -1 -12 3t1 14l36 93h42z" />
    <glyph glyph-name="onesuperior" unicode="&#xb9;" horiz-adv-x="281" 
d="M204 810q11 0 15.5 -4t4.5 -15v-357q0 -11 -4.5 -15.5t-15.5 -4.5h-18q-11 0 -15.5 4.5t-4.5 15.5v304l-110 -61q-18 -9 -28 7l-8 14q-9 18 9 27l140 80q9 5 24 5h11z" />
    <glyph glyph-name="ordmasculine" unicode="&#xba;" horiz-adv-x="373" 
d="M53 550q0 56 34.5 88t98.5 32q65 0 99.5 -32t34.5 -88v-75q0 -56 -34.5 -87.5t-99.5 -31.5q-64 0 -98.5 31.5t-34.5 87.5v75zM265 553q0 32 -20.5 50t-58.5 18t-58 -18t-20 -50v-80q0 -32 20 -50t58 -18t58.5 18t20.5 50v80z" />
    <glyph glyph-name="guillemotright" unicode="&#xbb;" horiz-adv-x="564" 
d="M281 432q-11 11 0 23l20 20q11 13 23 0l201 -201q10 -12 0 -23l-198 -198q-12 -11 -24 0l-21 21q-12 12 0 23l167 167zM52 432q-11 12 0 23l20 20q12 11 23 0l201 -201q10 -12 0 -23l-198 -198q-12 -11 -24 0l-21 21q-11 12 0 23l167 167z" />
    <glyph glyph-name="onequarter" unicode="&#xbc;" horiz-adv-x="786" 
d="M217 714q11 0 15.5 -4.5t4.5 -15.5v-357q0 -19 -20 -19h-18q-20 0 -20 19v305l-110 -61q-18 -11 -27 6l-8 15q-10 16 8 27l140 79q12 6 24 6h11zM673 710q10 0 13 -5.5t-3 -13.5l-494 -673q-9 -12 -15.5 -15t-24.5 -3h-23q-11 0 -14 6t4 14l495 673q7 11 13.5 14t22.5 3
h26zM678 396q11 0 14 -3.5t3 -14.5v-227h40q11 0 14 -3t3 -13v-17q0 -10 -3 -13t-14 -3h-40v-85q0 -10 -3 -13.5t-13 -3.5h-23q-9 0 -12 3.5t-3 13.5v85h-191q-10 0 -13.5 4t-3.5 14v13q0 13 6 21l189 231q8 11 25 11h25zM499 151h142v173z" />
    <glyph glyph-name="onehalf" unicode="&#xbd;" horiz-adv-x="841" 
d="M217 717q20 0 20 -19v-357q0 -11 -4.5 -15.5t-15.5 -4.5h-18q-11 0 -15.5 4.5t-4.5 15.5v304l-110 -61q-18 -10 -28 7l-8 14q-8 17 8 27l141 79q8 6 24 6h11zM670 710q10 0 13 -5.5t-3 -13.5l-494 -673q-9 -12 -15.5 -15t-24.5 -3h-24q-11 0 -13.5 6t4.5 14l494 673
q8 11 14.5 14t22.5 3h26zM520 297q39 107 143 107q65 0 100.5 -34t35.5 -87t-28.5 -78.5t-88.5 -45.5l-59 -20q-50 -17 -50 -62v-24h204q18 0 18 -18v-18q0 -17 -18 -17h-240q-20 0 -20 19v39q0 48 18.5 77t61.5 45l59 23q3 1 13 5t13 5t11.5 4.5t11.5 5.5t9.5 6t9 7.5
t6.5 8.5t5.5 10t3 11.5t1.5 14.5q0 31 -20 50t-58 19q-13 0 -24 -3t-19 -7t-15 -10.5t-11 -12t-8 -12.5t-5.5 -11.5t-3.5 -9.5l-1 -5q-9 -19 -25 -13l-18 6q-20 6 -12 25z" />
    <glyph glyph-name="threequarters" unicode="&#xbe;" horiz-adv-x="823" 
d="M43 619q17 55 53 81t98 26q61 0 95 -30.5t34 -82.5q0 -61 -48 -86q59 -28 59 -101q0 -52 -35.5 -82t-104.5 -30q-64 0 -100 25.5t-53 78.5q-7 19 10 25l18 6q18 5 25 -13q11 -37 33.5 -54t66.5 -17q41 0 62 18t21 49q0 28 -16 46.5t-44 18.5h-60q-11 0 -14.5 3t-3.5 14
v16q0 12 3.5 15t15.5 3h55q27 0 41 16.5t14 43.5q0 30 -19 48t-54 18q-41 0 -64.5 -17t-34.5 -54q-8 -23 -29 -14l-13 4q-18 7 -11 26zM713 710q10 0 13 -5.5t-3 -13.5l-494 -673q-9 -12 -15.5 -15t-24.5 -3h-23q-11 0 -14 6t4 14l495 673q7 11 13.5 14t22.5 3h26zM716 396
q12 0 15 -3.5t3 -14.5v-227h40q11 0 14 -3t3 -13v-17q0 -10 -3 -13t-14 -3h-40v-85q0 -10 -3 -13.5t-13 -3.5h-23q-10 0 -13 3.5t-3 13.5v85h-190q-10 0 -13.5 4t-3.5 14v13q0 14 6 21l188 231q9 11 26 11h24zM679 151v173l-141 -173h141z" />
    <glyph glyph-name="questiondown" unicode="&#xbf;" horiz-adv-x="553" 
d="M298 432q-22 0 -30.5 8.5t-8.5 31.5v6q0 23 8.5 31.5t30.5 8.5h6q23 0 31.5 -8.5t8.5 -31.5v-6q0 -22 -9 -31t-31 -9h-6zM524 -62q-65 -165 -254 -165q-110 0 -174.5 59t-64.5 147q0 38 9.5 70t20.5 52t33.5 41.5t36 30.5t40.5 26q7 5 11 7q44 29 66.5 57.5t22.5 74.5
q0 11 4 15t15 4h23q11 0 15 -4t4 -15q0 -68 -28 -106t-81 -73q-32 -21 -45.5 -31t-35 -32.5t-30.5 -50t-9 -63.5q0 -63 44.5 -104t124.5 -41q135 0 186 123q8 19 25 13l28 -10q19 -7 13 -25z" />
    <glyph glyph-name="Agrave" unicode="&#xc0;" horiz-adv-x="641" 
d="M229 891q12 14 34 1l164 -97q13 -7 1 -20l-9 -11q-6 -9 -23 -1l-179 89q-15 6 -3 21zM629 19q8 -19 -14 -19h-29q-31 0 -36 18l-75 190h-313l-75 -190q-3 -11 -10 -14.5t-25 -3.5h-27q-21 0 -13 19l268 677q6 17 25 17h30q20 0 26 -16zM335 575q-14 40 -14 69h-5
q0 -32 -12 -69l-121 -307h272z" />
    <glyph glyph-name="Aacute" unicode="&#xc1;" horiz-adv-x="641" 
d="M378 898q23 11 34 -2l15 -18q12 -15 -3 -21l-176 -93q-18 -6 -24 2l-9 11q-12 13 1 20zM629 19q8 -19 -14 -19h-29q-31 0 -36 18l-75 190h-313l-75 -190q-3 -11 -10 -14.5t-25 -3.5h-27q-21 0 -13 19l268 677q6 17 25 17h30q20 0 26 -16zM335 575q-14 40 -14 69h-5
q0 -32 -12 -69l-121 -307h272z" />
    <glyph glyph-name="Acircumflex" unicode="&#xc2;" horiz-adv-x="641" 
d="M326 901q18 0 34 -16l122 -108q14 -14 -9 -14h-27q-21 0 -30 10l-96 82l-97 -82q-11 -10 -29 -10h-26q-23 0 -9 14l123 108q12 11 17.5 13.5t18.5 2.5h8zM629 19q8 -19 -14 -19h-29q-31 0 -36 18l-75 190h-313l-75 -190q-3 -11 -10 -14.5t-25 -3.5h-27q-21 0 -13 19
l268 677q6 17 25 17h30q20 0 26 -16zM335 575q-14 40 -14 69h-5q0 -32 -12 -69l-121 -307h272z" />
    <glyph glyph-name="Atilde" unicode="&#xc3;" horiz-adv-x="641" 
d="M460 882q12 0 12 -12q0 -100 -78 -100q-36 0 -79 33.5t-68 33.5q-40 0 -40 -55q0 -12 -12 -12h-20q-12 0 -12 12q0 100 78 100q30 0 56 -17t48 -33.5t44 -16.5q40 0 40 55q0 12 11 12h20zM629 19q8 -19 -14 -19h-29q-31 0 -36 18l-75 190h-313l-75 -190q-3 -11 -10 -14.5
t-25 -3.5h-27q-21 0 -13 19l268 677q6 17 25 17h30q20 0 26 -16zM335 575q-14 40 -14 69h-5q0 -32 -12 -69l-121 -307h272z" />
    <glyph glyph-name="Adieresis" unicode="&#xc4;" horiz-adv-x="641" 
d="M226 864q19 0 26 -7t7 -25v-8q0 -19 -7 -25.5t-26 -6.5h-6q-19 0 -26 6.5t-7 25.5v8q0 18 7 25t26 7h6zM420 864q19 0 26 -7t7 -25v-8q0 -19 -7 -25.5t-26 -6.5h-6q-19 0 -26 6.5t-7 25.5v8q0 18 7 25t26 7h6zM629 19q8 -19 -14 -19h-29q-31 0 -36 18l-75 190h-313
l-75 -190q-3 -11 -10 -14.5t-25 -3.5h-27q-21 0 -13 19l268 677q6 17 25 17h30q20 0 26 -16zM335 575q-14 40 -14 69h-5q0 -32 -12 -69l-121 -307h272z" />
    <glyph glyph-name="Aring" unicode="&#xc5;" horiz-adv-x="641" 
d="M212 779q0 48 30 77t80 29q48 0 77.5 -29t29.5 -77q0 -35 -17 -59.5t-47 -33.5l264 -667q8 -19 -14 -19h-29q-31 0 -36 18l-75 190h-313l-75 -190q-3 -11 -10 -14.5t-25 -3.5h-27q-21 0 -13 19l264 668q-64 21 -64 92zM387 779q0 29 -18 47t-47 18q-31 0 -49.5 -18
t-18.5 -47t18.5 -47t49.5 -18q29 0 47 18t18 47zM335 575q-14 40 -14 69h-5q0 -32 -12 -69l-121 -307h272z" />
    <glyph glyph-name="AE" unicode="&#xc6;" horiz-adv-x="831" 
d="M774 68q19 0 19 -20v-28q0 -20 -19 -20h-332q-11 0 -15.5 4.5t-4.5 15.5v155h-249l-95 -157q-6 -11 -12.5 -14.5t-23.5 -3.5h-31q-21 0 -13 19l414 674q7 11 11.5 14t14.5 3h323q11 0 15.5 -4.5t4.5 -15.5v-28q0 -11 -4.5 -15.5t-15.5 -4.5h-268v-249h223q11 0 15 -4.5
t4 -15.5v-28q0 -11 -4 -15.5t-15 -4.5h-223v-257h281zM422 589l-213 -354h213v354z" />
    <glyph glyph-name="Ccedilla" unicode="&#xc7;" horiz-adv-x="636" 
d="M587 186q18 -7 12 -25q-27 -85 -86.5 -128.5t-167.5 -46.5l-22 -60q11 3 25 3q40 0 63.5 -22t21.5 -58q-3 -48 -35.5 -71.5t-83.5 -23.5q-48 0 -80 19q-12 7 -12 20v19q0 13 10 7q33 -23 74 -23q33 0 51 15t18 41q0 42 -60 42q-20 0 -33 -4q-9 -1 -12 3t1 14l32 79
q-118 7 -182 73.5t-64 177.5v236q0 118 70.5 184.5t203.5 66.5q112 0 175.5 -42.5t90.5 -128.5q4 -11 1.5 -16.5t-13.5 -9.5l-31 -11q-19 -5 -26 12q-21 67 -66.5 98t-130.5 31q-98 0 -149.5 -48t-51.5 -135v-238q0 -86 52 -134.5t149 -48.5q86 0 132 32t67 100q8 18 26 13z
" />
    <glyph glyph-name="Egrave" unicode="&#xc8;" horiz-adv-x="573" 
d="M209 891q12 14 34 1l164 -97q13 -6 2 -20l-9 -11q-7 -8 -24 -1l-179 89q-14 6 -2 21zM503 710q19 0 19 -20v-28q0 -20 -19 -20h-353v-248h308q19 0 19 -20v-28q0 -20 -19 -20h-308v-258h366q19 0 19 -20v-28q0 -20 -19 -20h-418q-11 0 -15.5 4.5t-4.5 15.5v670
q0 11 4.5 15.5t15.5 4.5h405z" />
    <glyph glyph-name="Eacute" unicode="&#xc9;" horiz-adv-x="573" 
d="M358 898q23 11 34 -2l15 -18q5 -6 6.5 -9.5t-1 -6.5t-8.5 -5l-176 -93q-17 -6 -24 2l-9 11q-11 14 2 20zM503 710q19 0 19 -20v-28q0 -20 -19 -20h-353v-248h308q19 0 19 -20v-28q0 -20 -19 -20h-308v-258h366q19 0 19 -20v-28q0 -20 -19 -20h-418q-11 0 -15.5 4.5
t-4.5 15.5v670q0 11 4.5 15.5t15.5 4.5h405z" />
    <glyph glyph-name="Ecircumflex" unicode="&#xca;" horiz-adv-x="573" 
d="M306 901q12 0 17.5 -2.5t16.5 -13.5l122 -108q7 -5 4.5 -9.5t-13.5 -4.5h-27q-20 0 -30 10l-95 82l-98 -82q-10 -10 -28 -10h-26q-11 0 -13.5 4.5t4.5 9.5l122 108q12 11 17.5 13.5t18.5 2.5h8zM503 710q19 0 19 -20v-28q0 -20 -19 -20h-353v-248h308q19 0 19 -20v-28
q0 -20 -19 -20h-308v-258h366q19 0 19 -20v-28q0 -20 -19 -20h-418q-11 0 -15.5 4.5t-4.5 15.5v670q0 11 4.5 15.5t15.5 4.5h405z" />
    <glyph glyph-name="Edieresis" unicode="&#xcb;" horiz-adv-x="573" 
d="M207 864q19 0 25.5 -7t6.5 -25v-8q0 -19 -6.5 -25.5t-25.5 -6.5h-7q-18 0 -25 6.5t-7 25.5v8q0 18 7 25t25 7h7zM401 864q18 0 25 -7t7 -25v-8q0 -19 -7 -25.5t-25 -6.5h-6q-20 0 -27 6.5t-7 25.5v8q0 18 7.5 25t26.5 7h6zM503 710q19 0 19 -20v-28q0 -20 -19 -20h-353
v-248h308q19 0 19 -20v-28q0 -20 -19 -20h-308v-258h366q19 0 19 -20v-28q0 -20 -19 -20h-418q-11 0 -15.5 4.5t-4.5 15.5v670q0 11 4.5 15.5t15.5 4.5h405z" />
    <glyph glyph-name="Igrave" unicode="&#xcc;" horiz-adv-x="228" 
d="M23 891q12 14 34 1l164 -97q13 -6 2 -20l-9 -11q-7 -8 -24 -1l-179 89q-14 6 -2 21zM78 690q0 11 4.5 15.5t15.5 4.5h33q11 0 15.5 -4.5t4.5 -15.5v-670q0 -11 -4.5 -15.5t-15.5 -4.5h-33q-11 0 -15.5 4.5t-4.5 15.5v670z" />
    <glyph glyph-name="Iacute" unicode="&#xcd;" horiz-adv-x="228" 
d="M172 898q23 11 34 -2l15 -18q12 -15 -3 -21l-177 -93q-17 -6 -23 2l-9 11q-12 13 1 20zM78 690q0 11 4.5 15.5t15.5 4.5h33q11 0 15 -4.5t4 -15.5v-670q0 -11 -4 -15.5t-15 -4.5h-33q-11 0 -15.5 4.5t-4.5 15.5v670z" />
    <glyph glyph-name="Icircumflex" unicode="&#xce;" horiz-adv-x="228" 
d="M119 901q12 0 18 -2.5t17 -13.5l122 -108q14 -14 -9 -14h-27q-21 0 -30 10l-96 82l-97 -82q-11 -10 -29 -10h-26q-23 0 -9 14l123 108q11 11 17 13.5t19 2.5h7zM78 690q0 11 4.5 15.5t15.5 4.5h33q11 0 15 -4.5t4 -15.5v-670q0 -11 -4 -15.5t-15 -4.5h-33
q-11 0 -15.5 4.5t-4.5 15.5v670z" />
    <glyph glyph-name="Idieresis" unicode="&#xcf;" horiz-adv-x="228" 
d="M20 864q19 0 26 -7t7 -25v-8q0 -19 -7 -25.5t-26 -6.5h-6q-19 0 -26 6.5t-7 25.5v8q0 18 7 25t26 7h6zM214 864q19 0 26 -7t7 -25v-8q0 -19 -7 -25.5t-26 -6.5h-6q-19 0 -26 6.5t-7 25.5v8q0 18 7 25t26 7h6zM78 690q0 11 4.5 15.5t15.5 4.5h33q11 0 15 -4.5t4 -15.5
v-670q0 -11 -4 -15.5t-15 -4.5h-33q-11 0 -15.5 4.5t-4.5 15.5v670z" />
    <glyph glyph-name="Eth" unicode="&#xd0;" horiz-adv-x="664" 
d="M320 710q138 0 214 -70.5t76 -193.5v-182q0 -123 -76 -193.5t-214 -70.5h-211q-11 0 -15.5 4.5t-4.5 15.5v316h-73q-14 0 -14 14v21q0 14 14 14h73v305q0 11 4.5 15.5t15.5 4.5h211zM538 446q0 94 -56 145t-161 51h-159v-257h172q13 0 13 -14v-21q0 -14 -13 -14h-172
v-268h159q104 0 160.5 51t56.5 145v182z" />
    <glyph glyph-name="Ntilde" unicode="&#xd1;" horiz-adv-x="691" 
d="M486 882q11 0 11 -12q0 -100 -78 -100q-36 0 -78.5 33.5t-67.5 33.5q-40 0 -40 -55q0 -12 -12 -12h-20q-12 0 -12 12q0 100 78 100q30 0 56 -17t48 -33.5t44 -16.5q40 0 40 55q0 12 11 12h20zM593 710q11 0 15.5 -4.5t4.5 -15.5v-670q0 -11 -4.5 -15.5t-15.5 -4.5h-32
q-15 0 -21 11l-319 458q-21 31 -48 83.5t-32 59.5h-4q0 -8 5.5 -71t5.5 -106v-415q0 -20 -19 -20h-31q-11 0 -15.5 4.5t-4.5 15.5v670q0 11 4.5 15.5t15.5 4.5h32q14 0 21 -10l311 -449q23 -33 52.5 -87t36.5 -64h3q0 10 -6 75.5t-6 110.5v405q0 19 20 19h31z" />
    <glyph glyph-name="Ograve" unicode="&#xd2;" horiz-adv-x="663" 
d="M241 901q11 13 34 1l164 -97q13 -7 1 -20l-9 -11q-6 -8 -24 -1l-178 89q-15 6 -3 21zM57 473q0 118 71 184.5t204 66.5q132 0 203 -66.5t71 -184.5v-236q0 -118 -71 -184.5t-203 -66.5q-133 0 -204 66.5t-71 184.5v236zM534 473q0 88 -52 136t-150 48t-150.5 -48
t-52.5 -136v-236q0 -88 52.5 -136t150.5 -48t150 48t52 136v236z" />
    <glyph glyph-name="Oacute" unicode="&#xd3;" horiz-adv-x="663" 
d="M390 908q23 11 34 -2l15 -18q12 -15 -3 -21l-177 -93q-17 -6 -23 2l-9 11q-12 13 1 20zM57 473q0 118 71 184.5t204 66.5q132 0 203 -66.5t71 -184.5v-236q0 -118 -71 -184.5t-203 -66.5q-133 0 -204 66.5t-71 184.5v236zM534 473q0 88 -52 136t-150 48t-150.5 -48
t-52.5 -136v-236q0 -88 52.5 -136t150.5 -48t150 48t52 136v236z" />
    <glyph glyph-name="Ocircumflex" unicode="&#xd4;" horiz-adv-x="663" 
d="M337 911q12 0 18 -2.5t17 -13.5l122 -108q14 -14 -9 -14h-27q-21 0 -30 10l-96 82l-97 -82q-11 -10 -29 -10h-26q-23 0 -9 14l123 108q11 11 17 13.5t19 2.5h7zM57 473q0 118 71 184.5t204 66.5q132 0 203 -66.5t71 -184.5v-236q0 -118 -71 -184.5t-203 -66.5
q-133 0 -204 66.5t-71 184.5v236zM534 473q0 88 -52 136t-150 48t-150.5 -48t-52.5 -136v-236q0 -88 52.5 -136t150.5 -48t150 48t52 136v236z" />
    <glyph glyph-name="Otilde" unicode="&#xd5;" horiz-adv-x="663" 
d="M472 892q11 0 11 -12q0 -100 -78 -100q-36 0 -78.5 33.5t-67.5 33.5q-40 0 -40 -55q0 -12 -12 -12h-20q-12 0 -12 12q0 100 78 100q30 0 56 -17t48 -33.5t44 -16.5q40 0 40 55q0 12 11 12h20zM57 473q0 118 71 184.5t204 66.5q132 0 203 -66.5t71 -184.5v-236
q0 -118 -71 -184.5t-203 -66.5q-133 0 -204 66.5t-71 184.5v236zM534 473q0 88 -52 136t-150 48t-150.5 -48t-52.5 -136v-236q0 -88 52.5 -136t150.5 -48t150 48t52 136v236z" />
    <glyph glyph-name="Odieresis" unicode="&#xd6;" horiz-adv-x="663" 
d="M238 874q19 0 26 -7t7 -25v-8q0 -19 -7 -25.5t-26 -6.5h-6q-19 0 -26 6.5t-7 25.5v8q0 18 7 25t26 7h6zM432 874q19 0 26 -7t7 -25v-8q0 -19 -7 -25.5t-26 -6.5h-6q-19 0 -26 6.5t-7 25.5v8q0 18 7 25t26 7h6zM57 473q0 118 71 184.5t204 66.5q132 0 203 -66.5t71 -184.5
v-236q0 -118 -71 -184.5t-203 -66.5q-133 0 -204 66.5t-71 184.5v236zM534 473q0 88 -52 136t-150 48t-150.5 -48t-52.5 -136v-236q0 -88 52.5 -136t150.5 -48t150 48t52 136v236z" />
    <glyph glyph-name="multiply" unicode="&#xd7;" horiz-adv-x="507" 
d="M442 180q13 -14 0 -28l-16 -16q-13 -13 -28 0l-145 145l-144 -144q-14 -14 -28 0l-15 16q-14 13 0 27l144 144l-144 145q-15 15 0 28l15 16q14 13 28 0l144 -145l145 145q15 13 28 0l16 -16q14 -13 0 -27l-146 -146z" />
    <glyph glyph-name="Oslash" unicode="&#xd8;" horiz-adv-x="663" 
d="M610 751q8 0 4 -7l-65 -101q57 -63 57 -170v-236q0 -118 -71 -184t-203 -67q-105 -1 -174 44l-42 -65q-4 -7 -15 -7h-38q-9 0 -4 7l60 96q-62 64 -62 176v236q0 118 71 184.5t204 66.5q113 0 180 -50l44 70q6 7 14 7h40zM473 614q-51 43 -141 43q-98 0 -150.5 -48
t-52.5 -136v-236q0 -65 36 -106zM197 91q50 -38 135 -38q98 0 150 48t52 136v236q0 62 -30 98z" />
    <glyph glyph-name="Ugrave" unicode="&#xd9;" horiz-adv-x="682" 
d="M250 891q11 13 34 1l164 -97q13 -7 1 -20l-9 -11q-6 -8 -24 -1l-178 89q-15 6 -3 21zM145 241q0 -89 49.5 -138.5t146.5 -49.5t146.5 49.5t49.5 138.5v449q0 11 4.5 15.5t15.5 4.5h33q11 0 15.5 -4.5t4.5 -15.5v-448q0 -120 -69 -188.5t-200 -68.5t-200 68.5t-69 188.5
v448q0 11 4.5 15.5t15.5 4.5h33q11 0 15.5 -4.5t4.5 -15.5v-449z" />
    <glyph glyph-name="Uacute" unicode="&#xda;" horiz-adv-x="682" 
d="M399 898q23 11 34 -2l15 -18q12 -15 -3 -21l-177 -93q-17 -6 -23 2l-9 11q-12 13 1 20zM145 241q0 -89 49.5 -138.5t146.5 -49.5t146.5 49.5t49.5 138.5v449q0 11 4.5 15.5t15.5 4.5h33q11 0 15.5 -4.5t4.5 -15.5v-448q0 -120 -69 -188.5t-200 -68.5t-200 68.5t-69 188.5
v448q0 11 4.5 15.5t15.5 4.5h33q11 0 15.5 -4.5t4.5 -15.5v-449z" />
    <glyph glyph-name="Ucircumflex" unicode="&#xdb;" horiz-adv-x="682" 
d="M346 901q12 0 18 -2.5t17 -13.5l122 -108q14 -14 -9 -14h-27q-21 0 -30 10l-96 82l-97 -82q-11 -10 -29 -10h-26q-23 0 -9 14l123 108q11 11 17 13.5t19 2.5h7zM145 241q0 -89 49.5 -138.5t146.5 -49.5t146.5 49.5t49.5 138.5v449q0 11 4.5 15.5t15.5 4.5h33
q11 0 15.5 -4.5t4.5 -15.5v-448q0 -120 -69 -188.5t-200 -68.5t-200 68.5t-69 188.5v448q0 11 4.5 15.5t15.5 4.5h33q11 0 15.5 -4.5t4.5 -15.5v-449z" />
    <glyph glyph-name="Udieresis" unicode="&#xdc;" horiz-adv-x="682" 
d="M247 864q19 0 26 -7t7 -25v-8q0 -19 -7 -25.5t-26 -6.5h-6q-19 0 -26 6.5t-7 25.5v8q0 18 7 25t26 7h6zM441 864q19 0 26 -7t7 -25v-8q0 -19 -7 -25.5t-26 -6.5h-6q-19 0 -26 6.5t-7 25.5v8q0 18 7 25t26 7h6zM145 241q0 -89 49.5 -138.5t146.5 -49.5t146.5 49.5
t49.5 138.5v449q0 11 4.5 15.5t15.5 4.5h33q11 0 15.5 -4.5t4.5 -15.5v-448q0 -120 -69 -188.5t-200 -68.5t-200 68.5t-69 188.5v448q0 11 4.5 15.5t15.5 4.5h33q11 0 15.5 -4.5t4.5 -15.5v-449z" />
    <glyph glyph-name="Yacute" unicode="&#xdd;" horiz-adv-x="627" 
d="M373 898q23 11 34 -2l15 -18q12 -15 -3 -21l-177 -93q-17 -6 -23 2l-9 11q-12 13 1 20zM601 710q10 0 13 -6t-3 -14l-261 -402v-268q0 -11 -4.5 -15.5t-15.5 -4.5h-33q-11 0 -15.5 4.5t-4.5 15.5v269l-261 401q-6 8 -3 14t13 6h41q18 0 25 -3t13 -15l209 -329l211 329
q6 12 13 15t25 3h38z" />
    <glyph glyph-name="Thorn" unicode="&#xde;" horiz-adv-x="620" 
d="M355 591q108 0 172 -62t64 -170q0 -107 -63.5 -169t-172.5 -62h-205v-108q0 -11 -4 -15.5t-15 -4.5h-33q-11 0 -15.5 4.5t-4.5 15.5v670q0 11 4.5 15.5t15.5 4.5h33q11 0 15 -4.5t4 -15.5v-99h205zM349 196q77 0 122 44t45 119t-45.5 120t-121.5 45h-199v-328h199z" />
    <glyph glyph-name="germandbls" unicode="&#xdf;" 
d="M67 528q0 101 53.5 161.5t151.5 60.5q104 0 157 -52t53 -149q0 -51 -22 -95t-69 -64v-3q117 -36 117 -182q0 -100 -53.5 -152.5t-152.5 -52.5h-81q-11 0 -15.5 4.5t-4.5 15.5v27q0 11 4.5 15.5t15.5 4.5h74q68 0 104 37t36 108q0 64 -35.5 101t-98.5 37h-78q-19 0 -19 20
v26q0 20 19 20h73q57 0 86 38t29 89q0 140 -139 140q-66 0 -102 -41.5t-36 -113.5v-508q0 -11 -4.5 -15.5t-15.5 -4.5h-27q-11 0 -15.5 4.5t-4.5 15.5v508z" />
    <glyph glyph-name="agrave" unicode="&#xe0;" horiz-adv-x="512" 
d="M162 718q11 13 34 2l162 -101q13 -6 2 -20l-10 -11q-6 -8 -23 -2l-177 93q-14 6 -2 21zM54 424q56 105 201 105q111 0 155.5 -53.5t44.5 -144.5v-262q0 -26 -7.5 -37t-28.5 -20q-60 -26 -166 -26q-124 0 -170 37.5t-46 117.5q0 85 50.5 120t169.5 35q41 0 131 -10v46
q0 65 -29.5 101t-105.5 36q-99 0 -140 -73q-11 -15 -25 -8l-24 10q-19 7 -10 26zM388 231q-90 9 -138 9q-79 0 -111.5 -23t-32.5 -75q0 -51 29.5 -75.5t112.5 -24.5q76 0 121 16q12 5 15.5 10t3.5 19v144z" />
    <glyph glyph-name="aacute" unicode="&#xe1;" horiz-adv-x="512" 
d="M310 720q23 11 34 -2l15 -18q5 -6 6.5 -9.5t-1 -6.5t-8.5 -5l-176 -93q-17 -6 -24 2l-9 11q-11 13 1 20zM54 424q56 105 201 105q111 0 155.5 -53.5t44.5 -144.5v-262q0 -26 -7.5 -37t-28.5 -20q-60 -26 -166 -26q-124 0 -170 37.5t-46 117.5q0 85 50.5 120t169.5 35
q41 0 131 -10v46q0 65 -29.5 101t-105.5 36q-99 0 -140 -73q-11 -15 -25 -8l-24 10q-19 7 -10 26zM388 231q-90 9 -138 9q-79 0 -111.5 -23t-32.5 -75q0 -51 29.5 -75.5t112.5 -24.5q76 0 121 16q12 5 15.5 10t3.5 19v144z" />
    <glyph glyph-name="acircumflex" unicode="&#xe2;" horiz-adv-x="512" 
d="M258 719q17 0 34 -17l122 -107q15 -15 -9 -15h-27q-20 0 -30 10l-96 83l-97 -83q-10 -10 -28 -10h-26q-23 0 -10 15l123 107q12 12 17.5 14.5t18.5 2.5h8zM54 424q56 105 201 105q111 0 155.5 -53.5t44.5 -144.5v-262q0 -26 -7.5 -37t-28.5 -20q-60 -26 -166 -26
q-124 0 -170 37.5t-46 117.5q0 85 50.5 120t169.5 35q41 0 131 -10v46q0 65 -29.5 101t-105.5 36q-99 0 -140 -73q-11 -15 -25 -8l-24 10q-19 7 -10 26zM388 231q-90 9 -138 9q-79 0 -111.5 -23t-32.5 -75q0 -51 29.5 -75.5t112.5 -24.5q76 0 121 16q12 5 15.5 10t3.5 19
v144z" />
    <glyph glyph-name="atilde" unicode="&#xe3;" horiz-adv-x="512" 
d="M392 706q12 0 12 -12q0 -100 -78 -100q-36 0 -79 33.5t-68 33.5q-40 0 -40 -55q0 -12 -11 -12h-20q-12 0 -12 12q0 100 77 100q38 0 81.5 -33.5t67.5 -33.5q39 0 39 55q0 12 11 12h20zM54 424q56 105 201 105q111 0 155.5 -53.5t44.5 -144.5v-262q0 -26 -7.5 -37
t-28.5 -20q-60 -26 -166 -26q-124 0 -170 37.5t-46 117.5q0 85 50.5 120t169.5 35q41 0 131 -10v46q0 65 -29.5 101t-105.5 36q-99 0 -140 -73q-11 -15 -25 -8l-24 10q-19 7 -10 26zM388 231q-90 9 -138 9q-79 0 -111.5 -23t-32.5 -75q0 -51 29.5 -75.5t112.5 -24.5
q76 0 121 16q12 5 15.5 10t3.5 19v144z" />
    <glyph glyph-name="adieresis" unicode="&#xe4;" horiz-adv-x="512" 
d="M158 687q19 0 26 -7t7 -25v-8q0 -19 -7 -26t-26 -7h-6q-19 0 -25.5 7t-6.5 26v8q0 18 6.5 25t25.5 7h6zM352 687q19 0 26 -7t7 -25v-8q0 -19 -7 -26t-26 -7h-5q-19 0 -26.5 7t-7.5 26v8q0 18 7.5 25t26.5 7h5zM54 424q56 105 201 105q111 0 155.5 -53.5t44.5 -144.5v-262
q0 -26 -7.5 -37t-28.5 -20q-60 -26 -166 -26q-124 0 -170 37.5t-46 117.5q0 85 50.5 120t169.5 35q41 0 131 -10v46q0 65 -29.5 101t-105.5 36q-99 0 -140 -73q-11 -15 -25 -8l-24 10q-19 7 -10 26zM388 231q-90 9 -138 9q-79 0 -111.5 -23t-32.5 -75q0 -51 29.5 -75.5
t112.5 -24.5q76 0 121 16q12 5 15.5 10t3.5 19v144z" />
    <glyph glyph-name="aring" unicode="&#xe5;" horiz-adv-x="512" 
d="M154 681q0 44 28 71t74 27q45 0 72 -27t27 -71t-27 -71t-72 -27q-46 0 -74 27t-28 71zM319 681q0 29 -17.5 46t-45.5 17q-31 0 -48.5 -17t-17.5 -46t17.5 -46t48.5 -17q28 0 45.5 17t17.5 46zM54 424q56 105 201 105q111 0 155.5 -53.5t44.5 -144.5v-262q0 -26 -7.5 -37
t-28.5 -20q-60 -26 -166 -26q-124 0 -170 37.5t-46 117.5q0 85 50.5 120t169.5 35q41 0 131 -10v46q0 65 -29.5 101t-105.5 36q-99 0 -140 -73q-11 -15 -25 -8l-24 10q-19 7 -10 26zM388 231q-90 9 -138 9q-79 0 -111.5 -23t-32.5 -75q0 -51 29.5 -75.5t112.5 -24.5
q76 0 121 16q12 5 15.5 10t3.5 19v144z" />
    <glyph glyph-name="ae" unicode="&#xe6;" horiz-adv-x="788" 
d="M55 424q56 105 182 105q115 0 151 -87q43 87 161 87q101 0 149.5 -55.5t48.5 -150.5v-56q0 -28 -30 -28h-299v-59q0 -136 128 -136q52 0 80 20t52 62q12 16 30 7l20 -12q20 -9 7 -28q-29 -53 -71.5 -80t-117.5 -27q-100 0 -144 60q-52 -60 -166 -60q-113 0 -155.5 36.5
t-42.5 116.5q0 86 46 120.5t156 34.5q56 0 110 -9v55q0 62 -23.5 95.5t-91.5 33.5q-80 0 -121 -72q-10 -15 -25 -9l-24 10q-19 9 -10 26zM680 327q0 144 -131 144t-131 -144v-36h262v36zM350 229q-67 10 -118 10q-71 0 -98.5 -23t-27.5 -76q0 -51 26 -74.5t98 -23.5
q35 0 60.5 6.5t39 16.5t19 17.5t8.5 14.5q-7 28 -7 66v66z" />
    <glyph glyph-name="ccedilla" unicode="&#xe7;" horiz-adv-x="514" 
d="M466 152q19 -7 12 -26q-41 -130 -190 -139l-23 -61q11 3 26 3q40 0 63.5 -22t21.5 -58q-3 -48 -35.5 -71.5t-83.5 -23.5q-48 0 -80 19q-12 7 -12 20v19q0 13 10 7q33 -23 74 -23q33 0 51 15t18 41q0 42 -60 42q-20 0 -33 -4q-10 -1 -12.5 3t1.5 14l32 79q-97 4 -147 56
t-50 141v149q0 93 55 145t163 52q168 0 209 -135q6 -19 -12 -26l-26 -9q-18 -6 -25 12q-16 51 -50.5 74.5t-97.5 23.5q-73 0 -111 -35.5t-38 -99.5v-153q0 -64 38.5 -100t110.5 -36q117 0 149 103q7 17 26 12z" />
    <glyph glyph-name="egrave" unicode="&#xe8;" horiz-adv-x="530" 
d="M178 719q12 14 34 1l162 -100q12 -7 2 -20l-10 -12q-7 -8 -23 -1l-177 92q-14 7 -2 22zM47 318q0 100 56.5 155.5t164.5 55.5q109 0 165.5 -56.5t56.5 -150.5v-55q0 -28 -30 -28h-346v-58q0 -65 38.5 -101t111.5 -36q111 0 157 83q12 16 29 7l21 -11q19 -10 7 -29
q-60 -108 -214 -108q-109 0 -163 54t-54 148v130zM423 326q0 68 -39.5 106.5t-115.5 38.5q-75 0 -114.5 -38.5t-39.5 -106.5v-35h309v35z" />
    <glyph glyph-name="eacute" unicode="&#xe9;" horiz-adv-x="530" 
d="M326 720q22 12 34 -1l15 -18q5 -6 6.5 -9.5t-1 -6.5t-8.5 -6l-176 -92q-16 -7 -24 1l-9 12q-10 13 1 20zM47 318q0 100 56.5 155.5t164.5 55.5q109 0 165.5 -56.5t56.5 -150.5v-55q0 -28 -30 -28h-346v-58q0 -65 38.5 -101t111.5 -36q111 0 157 83q12 16 29 7l21 -11
q19 -10 7 -29q-60 -108 -214 -108q-109 0 -163 54t-54 148v130zM423 326q0 68 -39.5 106.5t-115.5 38.5q-75 0 -114.5 -38.5t-39.5 -106.5v-35h309v35z" />
    <glyph glyph-name="ecircumflex" unicode="&#xea;" horiz-adv-x="530" 
d="M274 715q16 0 33 -16l120 -105q13 -15 -9 -15h-27q-19 0 -29 10l-94 81l-95 -81q-10 -10 -28 -10h-25q-22 0 -9 15l120 105q11 11 16.5 13.5t18.5 2.5h8zM47 318q0 100 56.5 155.5t164.5 55.5q109 0 165.5 -56.5t56.5 -150.5v-55q0 -28 -30 -28h-346v-58q0 -65 38.5 -101
t111.5 -36q111 0 157 83q12 16 29 7l21 -11q19 -10 7 -29q-60 -108 -214 -108q-109 0 -163 54t-54 148v130zM423 326q0 68 -39.5 106.5t-115.5 38.5q-75 0 -114.5 -38.5t-39.5 -106.5v-35h309v35z" />
    <glyph glyph-name="edieresis" unicode="&#xeb;" horiz-adv-x="530" 
d="M174 688q19 0 26 -7.5t7 -25.5v-8q0 -18 -7 -25t-26 -7h-6q-19 0 -25.5 7t-6.5 25v8q0 18 7 25.5t25 7.5h6zM368 688q19 0 26 -7.5t7 -25.5v-8q0 -18 -7 -25t-26 -7h-5q-19 0 -26.5 7t-7.5 25v8q0 18 7.5 25.5t26.5 7.5h5zM47 318q0 100 56.5 155.5t164.5 55.5
q109 0 165.5 -56.5t56.5 -150.5v-55q0 -28 -30 -28h-346v-58q0 -65 38.5 -101t111.5 -36q111 0 157 83q12 16 29 7l21 -11q19 -10 7 -29q-60 -108 -214 -108q-109 0 -163 54t-54 148v130zM423 326q0 68 -39.5 106.5t-115.5 38.5q-75 0 -114.5 -38.5t-39.5 -106.5v-35h309v35
z" />
    <glyph glyph-name="igrave" unicode="&#xec;" horiz-adv-x="199" 
d="M28 715q11 15 33 2l130 -98q12 -8 2 -20l-9 -11q-5 -9 -23 -1l-145 89q-15 6 -3 21zM116 514q18 0 18 -18v-478q0 -18 -18 -18h-32q-18 0 -18 18v478q0 18 18 18h32z" />
    <glyph glyph-name="iacute" unicode="&#xed;" horiz-adv-x="199" 
d="M141 717q22 13 33 -2l15 -18q12 -15 -4 -21l-144 -90q-18 -8 -24 1l-8 11q-10 13 2 21zM115 514q11 0 14.5 -4t3.5 -14v-478q0 -10 -3.5 -14t-14.5 -4h-31q-10 0 -14 4t-4 14v478q0 10 4 14t14 4h31z" />
    <glyph glyph-name="icircumflex" unicode="&#xee;" horiz-adv-x="199" 
d="M229 599q12 -14 -9 -14h-24q-23 0 -30 10l-67 77l-69 -77q-6 -10 -28 -10h-23q-21 0 -10 14l93 101q10 11 15.5 13.5t19.5 2.5h7q12 0 17.5 -2.5t15.5 -13.5zM115 514q11 0 14.5 -4t3.5 -14v-478q0 -10 -3.5 -14t-14.5 -4h-31q-10 0 -14 4t-4 14v478q0 10 4 14t14 4h31z
" />
    <glyph glyph-name="idieresis" unicode="&#xef;" horiz-adv-x="199" 
d="M27 698q19 0 26 -7t7 -25v-8q0 -19 -7 -25.5t-26 -6.5h-6q-19 0 -26 6.5t-7 25.5v8q0 18 7 25t26 7h6zM178 698q18 0 25.5 -7t7.5 -25v-8q0 -18 -7.5 -25t-25.5 -7h-6q-20 0 -27 6.5t-7 25.5v8q0 18 7.5 25t26.5 7h6zM115 514q11 0 14.5 -4t3.5 -14v-478q0 -10 -3.5 -14
t-14.5 -4h-31q-10 0 -14 4t-4 14v478q0 10 4 14t14 4h31z" />
    <glyph glyph-name="eth" unicode="&#xf0;" horiz-adv-x="551" 
d="M416 747q6 7 15 0l18 -13q8 -7 1 -15l-48 -51q88 -79 88 -269v-220q0 -92 -56.5 -142.5t-163.5 -50.5q-109 0 -165.5 50.5t-56.5 142.5v131q0 91 55 143t154 52q128 0 169 -79q-3 135 -68 193l-66 -70q-7 -7 -15 -1l-17 13q-8 7 -1 15l62 66q-62 38 -175 38
q-11 0 -15 3.5t-4 13.5l-1 26q0 19 18 19q140 0 221 -49zM423 311q0 64 -39.5 98.5t-113.5 34.5q-76 0 -115 -35t-39 -99v-130q0 -64 39 -98.5t115 -34.5q74 0 113.5 34.5t39.5 98.5v131z" />
    <glyph glyph-name="ntilde" unicode="&#xf1;" 
d="M413 706q12 0 12 -12q0 -99 -78 -99q-36 0 -79 33.5t-68 33.5q-19 0 -29.5 -14.5t-10.5 -40.5q0 -12 -11 -12h-20q-12 0 -12 12q0 99 78 99q30 0 56 -17t48 -33.5t44 -16.5q39 0 39 55q0 12 12 12h19zM102 495q83 34 186 34q199 0 199 -196v-315q0 -18 -18 -18h-31
q-10 0 -14 4t-4 14v313q0 136 -140 136q-71 0 -133 -22q-15 -7 -15 -25v-402q0 -18 -18 -18h-32q-18 0 -18 18v422q0 23 7.5 34t30.5 21z" />
    <glyph glyph-name="ograve" unicode="&#xf2;" horiz-adv-x="539" 
d="M179 718q11 13 34 2l162 -101q13 -7 1 -20l-9 -11q-6 -8 -24 -2l-176 93q-15 6 -3 21zM50 345q0 86 58.5 135t160.5 49q103 0 162 -49t59 -135v-176q0 -86 -59 -134.5t-162 -48.5q-102 0 -160.5 49t-58.5 134v176zM422 345q0 57 -41 90t-112 33q-70 0 -111 -33t-41 -90
v-176q0 -57 41.5 -89.5t110.5 -32.5q71 0 112 32.5t41 89.5v176z" />
    <glyph glyph-name="oacute" unicode="&#xf3;" horiz-adv-x="539" 
d="M327 720q23 11 34 -2l15 -18q12 -15 -3 -21l-176 -93q-18 -6 -24 2l-9 11q-12 13 1 20zM50 345q0 86 58.5 135t160.5 49q103 0 162 -49t59 -135v-176q0 -86 -59 -134.5t-162 -48.5q-102 0 -160.5 49t-58.5 134v176zM422 345q0 57 -41 90t-112 33q-70 0 -111 -33t-41 -90
v-176q0 -57 41.5 -89.5t110.5 -32.5q71 0 112 32.5t41 89.5v176z" />
    <glyph glyph-name="ocircumflex" unicode="&#xf4;" horiz-adv-x="539" 
d="M274 714q12 0 17.5 -2.5t16.5 -13.5l119 -105q14 -14 -9 -14h-26q-20 0 -29 10l-94 80l-95 -80q-11 -10 -28 -10h-26q-11 0 -12.5 4.5t4.5 9.5l120 105q11 11 16.5 13.5t18.5 2.5h7zM50 345q0 86 58.5 135t160.5 49q103 0 162 -49t59 -135v-176q0 -86 -59 -134.5
t-162 -48.5q-102 0 -160.5 49t-58.5 134v176zM422 345q0 57 -41 90t-112 33q-70 0 -111 -33t-41 -90v-176q0 -57 41.5 -89.5t110.5 -32.5q71 0 112 32.5t41 89.5v176z" />
    <glyph glyph-name="otilde" unicode="&#xf5;" horiz-adv-x="539" 
d="M409 706q12 0 12 -12q0 -100 -78 -100q-36 0 -79 33.5t-68 33.5q-40 0 -40 -55q0 -12 -12 -12h-20q-12 0 -12 12q0 100 78 100q30 0 56 -17t48 -33.5t44 -16.5q40 0 40 55q0 12 11 12h20zM50 345q0 86 58.5 135t160.5 49q103 0 162 -49t59 -135v-176q0 -86 -59 -134.5
t-162 -48.5q-102 0 -160.5 49t-58.5 134v176zM422 345q0 57 -41 90t-112 33q-70 0 -111 -33t-41 -90v-176q0 -57 41.5 -89.5t110.5 -32.5q71 0 112 32.5t41 89.5v176z" />
    <glyph glyph-name="odieresis" unicode="&#xf6;" horiz-adv-x="539" 
d="M175 687q19 0 26 -7t7 -25v-8q0 -19 -7 -26t-26 -7h-6q-19 0 -26 7t-7 26v8q0 18 7 25t26 7h6zM369 687q19 0 26 -7t7 -25v-8q0 -19 -7 -26t-26 -7h-6q-19 0 -26 7t-7 26v8q0 18 7 25t26 7h6zM50 345q0 86 58.5 135t160.5 49q103 0 162 -49t59 -135v-176
q0 -86 -59 -134.5t-162 -48.5q-102 0 -160.5 49t-58.5 134v176zM422 345q0 57 -41 90t-112 33q-70 0 -111 -33t-41 -90v-176q0 -57 41.5 -89.5t110.5 -32.5q71 0 112 32.5t41 89.5v176z" />
    <glyph glyph-name="divide" unicode="&#xf7;" horiz-adv-x="578" 
d="M292 564q22 0 31 -9t9 -31v-7q0 -22 -8.5 -30.5t-31.5 -8.5h-6q-22 0 -30.5 8t-8.5 31v7q0 23 8.5 31.5t30.5 8.5h6zM505 357q11 0 15 -4.5t4 -15.5v-25q0 -11 -4 -15.5t-15 -4.5h-432q-19 0 -19 20v25q0 20 19 20h432zM292 173q23 0 31.5 -8.5t8.5 -30.5v-7
q0 -23 -9 -31.5t-31 -8.5h-6q-23 0 -31 8.5t-8 31.5v7q0 22 8.5 30.5t30.5 8.5h6z" />
    <glyph glyph-name="oslash" unicode="&#xf8;" horiz-adv-x="539" 
d="M472 552q8 0 3 -7l-42 -67q57 -49 57 -133v-176q0 -86 -59 -134.5t-162 -48.5q-77 0 -130 29l-27 -44q-5 -6 -14 -6h-28q-4 0 -4.5 2.5t1.5 4.5l40 64q-57 49 -57 133v176q0 86 58.5 135t160.5 49q77 0 131 -30l30 47q5 6 13 6h29zM366 445q-41 23 -97 23q-70 0 -111 -33
t-41 -90v-176q0 -43 30 -70zM174 70q38 -23 95 -23q71 0 112 32.5t41 89.5v176q0 43 -29 70z" />
    <glyph glyph-name="ugrave" unicode="&#xf9;" 
d="M183 718q11 13 34 2l162 -101q13 -7 1 -20l-9 -11q-6 -8 -24 -2l-176 93q-15 6 -3 21zM467 514q18 0 18 -18v-422q0 -23 -7.5 -34t-30.5 -21q-80 -33 -187 -33q-198 0 -198 195v315q0 10 4 14t14 4h31q11 0 14.5 -4t3.5 -14v-312q0 -137 140 -137q75 0 130 22q18 8 18 28
v399q0 18 18 18h32z" />
    <glyph glyph-name="uacute" unicode="&#xfa;" 
d="M331 720q23 11 34 -2l15 -18q12 -15 -3 -21l-176 -93q-18 -6 -24 2l-9 11q-12 13 1 20zM467 514q18 0 18 -18v-422q0 -23 -7.5 -34t-30.5 -21q-80 -33 -187 -33q-198 0 -198 195v315q0 10 4 14t14 4h31q11 0 14.5 -4t3.5 -14v-312q0 -137 140 -137q75 0 130 22
q18 8 18 28v399q0 18 18 18h32z" />
    <glyph glyph-name="ucircumflex" unicode="&#xfb;" 
d="M279 719q17 0 34 -17l122 -107q13 -15 -9 -15h-27q-21 0 -30 10l-96 83l-97 -83q-11 -10 -29 -10h-26q-22 0 -9 15l123 107q12 12 17.5 14.5t18.5 2.5h8zM467 514q18 0 18 -18v-422q0 -23 -7.5 -34t-30.5 -21q-80 -33 -187 -33q-198 0 -198 195v315q0 10 4 14t14 4h31
q11 0 14.5 -4t3.5 -14v-312q0 -137 140 -137q75 0 130 22q18 8 18 28v399q0 18 18 18h32z" />
    <glyph glyph-name="udieresis" unicode="&#xfc;" 
d="M179 687q19 0 26 -7t7 -25v-8q0 -19 -7 -26t-26 -7h-6q-19 0 -26 7t-7 26v8q0 18 7 25t26 7h6zM373 687q19 0 26 -7t7 -25v-8q0 -19 -7 -26t-26 -7h-6q-19 0 -26 7t-7 26v8q0 18 7 25t26 7h6zM467 514q18 0 18 -18v-422q0 -23 -7.5 -34t-30.5 -21q-80 -33 -187 -33
q-198 0 -198 195v315q0 10 4 14t14 4h31q11 0 14.5 -4t3.5 -14v-312q0 -137 140 -137q75 0 130 22q18 8 18 28v399q0 18 18 18h32z" />
    <glyph glyph-name="yacute" unicode="&#xfd;" horiz-adv-x="551" 
d="M331 720q23 11 34 -2l15 -18q12 -15 -3 -21l-176 -93q-18 -6 -24 2l-9 11q-12 13 1 20zM467 514q18 0 18 -18v-527q0 -216 -213 -216q-141 0 -199 107q-12 20 7 30l22 11q18 10 29 -7q43 -80 140 -80q146 0 146 152v59q-88 -26 -157 -26q-198 0 -198 195v302q0 10 4 14
t14 4h31q11 0 14.5 -4t3.5 -14v-299q0 -137 140 -137q64 0 148 27v409q0 18 18 18h32z" />
    <glyph glyph-name="thorn" unicode="&#xfe;" horiz-adv-x="539" 
d="M67 722q0 18 18 18h31q18 0 18 -18v-226q78 28 148 28q208 0 208 -200v-140q0 -199 -206 -199q-70 0 -150 35v-222q0 -10 -4 -14t-14 -4h-31q-11 0 -14.5 4t-3.5 14v924zM422 322q0 140 -149 140q-62 0 -139 -30v-351q84 -35 146 -35q142 0 142 140v136z" />
    <glyph glyph-name="ydieresis" unicode="&#xff;" horiz-adv-x="551" 
d="M179 687q19 0 26 -7t7 -25v-8q0 -19 -7 -26t-26 -7h-6q-19 0 -26 7t-7 26v8q0 18 7 25t26 7h6zM373 687q19 0 26 -7t7 -25v-8q0 -19 -7 -26t-26 -7h-6q-19 0 -26 7t-7 26v8q0 18 7 25t26 7h6zM467 514q18 0 18 -18v-527q0 -216 -213 -216q-141 0 -199 107q-12 20 7 30
l22 11q18 10 29 -7q43 -80 140 -80q146 0 146 152v59q-88 -26 -157 -26q-198 0 -198 195v302q0 10 4 14t14 4h31q11 0 14.5 -4t3.5 -14v-299q0 -137 140 -137q64 0 148 27v409q0 18 18 18h32z" />
    <glyph glyph-name="Amacron" unicode="&#x100;" horiz-adv-x="641" 
d="M438 850q10 0 13.5 -3.5t3.5 -13.5v-16q0 -10 -3.5 -13.5t-13.5 -3.5h-236q-10 0 -13.5 3.5t-3.5 13.5v16q0 17 17 17h236zM629 19q8 -19 -14 -19h-29q-31 0 -36 18l-75 190h-313l-75 -190q-3 -11 -10 -14.5t-25 -3.5h-27q-21 0 -13 19l268 677q6 17 25 17h30
q20 0 26 -16zM335 575q-14 40 -14 69h-5q0 -32 -12 -69l-121 -307h272z" />
    <glyph glyph-name="amacron" unicode="&#x101;" horiz-adv-x="512" 
d="M370 671q10 0 13.5 -3.5t3.5 -13.5v-16q0 -10 -3.5 -13.5t-13.5 -3.5h-235q-10 0 -13.5 3.5t-3.5 13.5v16q0 17 17 17h235zM54 424q56 105 201 105q111 0 155.5 -53.5t44.5 -144.5v-262q0 -26 -7.5 -37t-28.5 -20q-60 -26 -166 -26q-124 0 -170 37.5t-46 117.5
q0 85 50.5 120t169.5 35q41 0 131 -10v46q0 65 -29.5 101t-105.5 36q-99 0 -140 -73q-11 -15 -25 -8l-24 10q-19 7 -10 26zM388 231q-90 9 -138 9q-79 0 -111.5 -23t-32.5 -75q0 -51 29.5 -75.5t112.5 -24.5q76 0 121 16q12 5 15.5 10t3.5 19v144z" />
    <glyph glyph-name="Abreve" unicode="&#x102;" horiz-adv-x="641" 
d="M472 871q-33 -108 -152 -108q-118 0 -151 108q-4 13 8 18l24 9q14 4 19 -7q21 -78 100 -78t101 78q5 11 16 7l27 -9q12 -5 8 -18zM629 19q8 -19 -14 -19h-29q-31 0 -36 18l-75 190h-313l-75 -190q-3 -11 -10 -14.5t-25 -3.5h-27q-21 0 -13 19l268 677q6 17 25 17h30
q20 0 26 -16zM335 575q-14 40 -14 69h-5q0 -32 -12 -69l-121 -307h272z" />
    <glyph glyph-name="abreve" unicode="&#x103;" horiz-adv-x="512" 
d="M404 692q-32 -109 -152 -109q-118 0 -151 109q-4 11 9 17l24 9q13 4 18 -7q22 -77 100 -77q79 0 101 77q5 11 16 8l27 -10q13 -6 8 -17zM54 424q56 105 201 105q111 0 155.5 -53.5t44.5 -144.5v-262q0 -26 -7.5 -37t-28.5 -20q-60 -26 -166 -26q-124 0 -170 37.5
t-46 117.5q0 85 50.5 120t169.5 35q41 0 131 -10v46q0 65 -29.5 101t-105.5 36q-99 0 -140 -73q-11 -15 -25 -8l-24 10q-19 7 -10 26zM388 231q-90 9 -138 9q-79 0 -111.5 -23t-32.5 -75q0 -51 29.5 -75.5t112.5 -24.5q76 0 121 16q12 5 15.5 10t3.5 19v144z" />
    <glyph glyph-name="Aogonek" unicode="&#x104;" horiz-adv-x="640" 
d="M336 713q20 0 25 -16l267 -677q6 -12 -1 -19q-51 -43 -77 -92t-17 -76q10 -29 38 -29q30 0 52 22q9 7 12 -3l8 -20q4 -9 -2 -14q-36 -36 -90 -36q-63 0 -76 52q-12 41 14 94.5t86 103.5q-13 1 -18 4.5t-8 13.5l-75 192h-309l-77 -195q-6 -18 -36 -18h-26q-22 0 -14 19
l268 677q6 17 25 17h31zM377 472q-13 37 -31 96t-24 75h-5q-7 -16 -24 -75t-31 -95l-76 -199h266z" />
    <glyph glyph-name="aogonek" unicode="&#x105;" horiz-adv-x="515" 
d="M54 424q56 105 201 105q111 0 155.5 -53.5t44.5 -144.5v-262q0 -32 -12 -44q-55 -53 -80.5 -108.5t-15.5 -83.5q9 -28 39 -28q29 0 51 22q7 6 12 -3l8 -21q4 -8 -2 -14q-38 -36 -89 -36q-65 0 -77 52q-12 38 10.5 92t71.5 101q-48 -12 -118 -12q-124 0 -170 37.5
t-46 117.5q0 85 50.5 120t169.5 35q41 0 131 -10v46q0 65 -29.5 101t-105.5 36q-99 0 -140 -73q-11 -15 -25 -8l-24 10q-19 7 -10 26zM388 231q-90 9 -138 9q-79 0 -111.5 -23t-32.5 -75q0 -51 29.5 -75.5t112.5 -24.5q76 0 121 16q12 5 15.5 10t3.5 19v144z" />
    <glyph glyph-name="Cacute" unicode="&#x106;" horiz-adv-x="636" 
d="M392 898q23 11 34 -2l15 -18q12 -15 -3 -21l-177 -93q-17 -6 -23 2l-9 11q-12 13 1 20zM57 473q0 118 70.5 184.5t203.5 66.5q112 0 175.5 -42.5t90.5 -128.5q4 -11 1.5 -16.5t-13.5 -9.5l-31 -11q-19 -5 -26 12q-21 67 -66.5 98t-130.5 31q-98 0 -149.5 -48t-51.5 -135
v-238q0 -86 52 -134.5t149 -48.5q86 0 132 32t67 100q8 18 26 13l31 -12q18 -7 12 -25q-27 -87 -91 -131t-177 -44q-131 0 -202.5 66.5t-71.5 184.5v236z" />
    <glyph glyph-name="cacute" unicode="&#x107;" horiz-adv-x="515" 
d="M325 720q23 11 34 -2l15 -18q5 -6 6.5 -9.5t-1 -6.5t-8.5 -5l-176 -93q-17 -6 -24 2l-9 11q-11 13 1 20zM49 332q0 93 55 145t163 52q168 0 209 -135q6 -19 -12 -26l-26 -9q-18 -6 -25 12q-16 51 -50.5 74.5t-97.5 23.5q-73 0 -111 -35.5t-38 -99.5v-153q0 -64 38.5 -100
t110.5 -36q117 0 149 103q7 17 26 12l26 -8q19 -7 12 -26q-46 -140 -215 -140q-105 0 -159.5 52t-54.5 145v149z" />
    <glyph glyph-name="Ccircumflex" unicode="&#x108;" horiz-adv-x="636" 
d="M339 901q12 0 18 -2.5t17 -13.5l122 -108q14 -14 -9 -14h-27q-21 0 -30 10l-96 82l-97 -82q-11 -10 -29 -10h-26q-23 0 -9 14l123 108q12 11 17.5 13.5t18.5 2.5h7zM57 473q0 118 70.5 184.5t203.5 66.5q112 0 175.5 -42.5t90.5 -128.5q4 -11 1.5 -16.5t-13.5 -9.5
l-31 -11q-19 -5 -26 12q-21 67 -66.5 98t-130.5 31q-98 0 -149.5 -48t-51.5 -135v-238q0 -86 52 -134.5t149 -48.5q86 0 132 32t67 100q8 18 26 13l31 -12q18 -7 12 -25q-27 -87 -91 -131t-177 -44q-131 0 -202.5 66.5t-71.5 184.5v236z" />
    <glyph glyph-name="ccircumflex" unicode="&#x109;" horiz-adv-x="515" 
d="M273 714q11 0 16.5 -2.5t16.5 -13.5l120 -105q6 -5 4 -9.5t-13 -4.5h-27q-20 0 -29 10l-94 80l-95 -80q-10 -10 -28 -10h-25q-23 0 -9 14l120 105q11 11 16.5 13.5t18.5 2.5h8zM49 332q0 93 55 145t163 52q168 0 209 -135q6 -19 -12 -26l-26 -9q-18 -6 -25 12
q-16 51 -50.5 74.5t-97.5 23.5q-73 0 -111 -35.5t-38 -99.5v-153q0 -64 38.5 -100t110.5 -36q117 0 149 103q7 17 26 12l26 -8q19 -7 12 -26q-46 -140 -215 -140q-105 0 -159.5 52t-54.5 145v149z" />
    <glyph glyph-name="Cdotaccent" unicode="&#x10a;" horiz-adv-x="636" 
d="M337 862q19 0 26 -7t7 -27v-6q0 -20 -7 -26.5t-26 -6.5h-5q-20 0 -27 7t-7 26v6q0 20 7 27t27 7h5zM57 473q0 118 70.5 184.5t203.5 66.5q112 0 175.5 -42.5t90.5 -128.5q4 -11 1.5 -16.5t-13.5 -9.5l-31 -11q-19 -5 -26 12q-21 67 -66.5 98t-130.5 31q-98 0 -149.5 -48
t-51.5 -135v-238q0 -86 52 -134.5t149 -48.5q86 0 132 32t67 100q8 18 26 13l31 -12q18 -7 12 -25q-27 -87 -91 -131t-177 -44q-131 0 -202.5 66.5t-71.5 184.5v236z" />
    <glyph glyph-name="cdotaccent" unicode="&#x10b;" horiz-adv-x="515" 
d="M270 683q20 0 27 -7.5t7 -26.5v-5q0 -20 -7 -27t-27 -7h-5q-20 0 -27 7t-7 27v5q0 19 7.5 26.5t26.5 7.5h5zM49 332q0 93 55 145t163 52q168 0 209 -135q6 -19 -12 -26l-26 -9q-18 -6 -25 12q-16 51 -50.5 74.5t-97.5 23.5q-73 0 -111 -35.5t-38 -99.5v-153
q0 -64 38.5 -100t110.5 -36q117 0 149 103q7 17 26 12l26 -8q19 -7 12 -26q-46 -140 -215 -140q-105 0 -159.5 52t-54.5 145v149z" />
    <glyph glyph-name="Ccaron" unicode="&#x10c;" horiz-adv-x="636" 
d="M485 901q11 0 13 -5t-4 -10l-122 -107q-17 -17 -34 -17h-8q-13 0 -18.5 2.5t-17.5 14.5l-122 107q-6 5 -4.5 10t12.5 5h26q18 0 29 -10l97 -83l96 83q10 10 30 10h27zM57 473q0 118 70.5 184.5t203.5 66.5q112 0 175.5 -42.5t90.5 -128.5q4 -11 1.5 -16.5t-13.5 -9.5
l-31 -11q-19 -5 -26 12q-21 67 -66.5 98t-130.5 31q-98 0 -149.5 -48t-51.5 -135v-238q0 -86 52 -134.5t149 -48.5q86 0 132 32t67 100q8 18 26 13l31 -12q18 -7 12 -25q-27 -87 -91 -131t-177 -44q-131 0 -202.5 66.5t-71.5 184.5v236z" />
    <glyph glyph-name="ccaron" unicode="&#x10d;" horiz-adv-x="515" 
d="M406 703q10 0 11.5 -5t-3.5 -10l-112 -99q-16 -15 -31 -15h-7q-12 0 -17.5 2.5t-15.5 12.5l-113 100q-12 14 8 14h25q16 0 26 -10l89 -76l87 76q10 10 28 10h25zM49 332q0 93 55 145t163 52q168 0 209 -135q6 -19 -12 -26l-26 -9q-18 -6 -25 12q-16 51 -50.5 74.5
t-97.5 23.5q-73 0 -111 -35.5t-38 -99.5v-153q0 -64 38.5 -100t110.5 -36q117 0 149 103q7 17 26 12l26 -8q19 -7 12 -26q-46 -140 -215 -140q-105 0 -159.5 52t-54.5 145v149z" />
    <glyph glyph-name="Dcaron" unicode="&#x10e;" horiz-adv-x="653" 
d="M461 901q11 0 13 -5t-4 -10l-122 -107q-12 -12 -17.5 -14.5t-16.5 -2.5h-8q-13 0 -18.5 2.5t-17.5 14.5l-122 107q-6 5 -4 10t13 5h26q18 0 28 -10l98 -83l95 83q10 10 30 10h27zM309 710q138 0 214 -70.5t76 -193.5v-182q0 -123 -76 -193.5t-214 -70.5h-211
q-11 0 -15.5 4.5t-4.5 15.5v670q0 11 4.5 15.5t15.5 4.5h211zM526 446q0 94 -56 145t-161 51h-159v-574h159q105 0 161 51t56 145v182z" />
    <glyph glyph-name="dcaron" unicode="&#x10f;" horiz-adv-x="575" 
d="M50 329q0 96 49 148t148 52q74 0 158 -29v222q0 18 18 18h31q10 0 14 -4t4 -14v-652q0 -24 -7.5 -34t-31.5 -20q-71 -30 -173 -30q-210 0 -210 200v143zM595 526q-3 -10 -6.5 -13.5t-12.5 -3.5h-18q-8 0 -10.5 2.5t-1.5 10.5l38 200q2 18 21 18h26q22 0 16 -18zM405 437
q-77 30 -146 30q-142 0 -142 -140v-140q0 -140 149 -140q67 0 120 19q12 5 15.5 9.5t3.5 16.5v345z" />
    <glyph glyph-name="Dcroat" unicode="&#x110;" horiz-adv-x="664" 
d="M320 710q138 0 214 -70.5t76 -193.5v-182q0 -123 -76 -193.5t-214 -70.5h-211q-11 0 -15.5 4.5t-4.5 15.5v316h-73q-14 0 -14 14v21q0 14 14 14h73v305q0 11 4.5 15.5t15.5 4.5h211zM538 446q0 94 -56 145t-161 51h-159v-257h172q13 0 13 -14v-21q0 -14 -13 -14h-172
v-268h159q104 0 160.5 51t56.5 145v182z" />
    <glyph glyph-name="dcroat" unicode="&#x111;" horiz-adv-x="538" 
d="M541 654q13 0 13 -14v-16q0 -14 -13 -14h-67v-540q0 -24 -8 -34t-32 -20q-71 -30 -173 -30q-210 0 -210 200v143q0 96 49.5 147.5t148.5 51.5q79 0 157 -28v110h-152q-13 0 -13 14v16q0 14 13 14h152v68q0 18 18 18h32q18 0 18 -18v-68h67zM406 437q-77 30 -146 30
q-142 0 -142 -140v-140q0 -140 149 -140q68 0 121 19q12 5 15 9.5t3 16.5v345z" />
    <glyph glyph-name="Emacron" unicode="&#x112;" horiz-adv-x="573" 
d="M418 850q10 0 14 -3.5t4 -13.5v-16q0 -10 -4 -13.5t-14 -3.5h-235q-10 0 -13.5 3.5t-3.5 13.5v16q0 17 17 17h235zM503 710q19 0 19 -20v-28q0 -20 -19 -20h-353v-248h308q19 0 19 -20v-28q0 -20 -19 -20h-308v-258h366q19 0 19 -20v-28q0 -20 -19 -20h-418
q-11 0 -15.5 4.5t-4.5 15.5v670q0 11 4.5 15.5t15.5 4.5h405z" />
    <glyph glyph-name="emacron" unicode="&#x113;" horiz-adv-x="530" 
d="M376 665q10 0 13 -3.5t3 -13.5v-14q0 -10 -3 -13.5t-13 -3.5h-216q-9 0 -12 3.5t-3 13.5v14q0 17 15 17h216zM47 318q0 100 56.5 155.5t164.5 55.5q109 0 165.5 -56.5t56.5 -150.5v-55q0 -28 -30 -28h-346v-58q0 -65 38.5 -101t111.5 -36q111 0 157 83q12 16 29 7l21 -11
q19 -10 7 -29q-60 -108 -214 -108q-109 0 -163 54t-54 148v130zM423 326q0 68 -39.5 106.5t-115.5 38.5q-75 0 -114.5 -38.5t-39.5 -106.5v-35h309v35z" />
    <glyph glyph-name="Ebreve" unicode="&#x114;" horiz-adv-x="573" 
d="M453 871q-33 -108 -152 -108t-151 108q-5 12 8 18l24 9q14 4 18 -7q22 -78 101 -78q78 0 100 78q5 11 16 7l27 -9q13 -6 9 -18zM503 710q19 0 19 -20v-28q0 -20 -19 -20h-353v-248h308q19 0 19 -20v-28q0 -20 -19 -20h-308v-258h366q19 0 19 -20v-28q0 -20 -19 -20h-418
q-11 0 -15.5 4.5t-4.5 15.5v670q0 11 4.5 15.5t15.5 4.5h405z" />
    <glyph glyph-name="ebreve" unicode="&#x115;" horiz-adv-x="530" 
d="M420 692q-32 -108 -152 -108q-118 0 -151 108q-4 12 9 18l24 9q13 4 18 -7q22 -78 100 -78q79 0 101 78q5 11 16 7l27 -9q13 -6 8 -18zM47 318q0 100 56.5 155.5t164.5 55.5q109 0 165.5 -56.5t56.5 -150.5v-55q0 -28 -30 -28h-346v-58q0 -65 38.5 -101t111.5 -36
q111 0 157 83q12 16 29 7l21 -11q19 -10 7 -29q-60 -108 -214 -108q-109 0 -163 54t-54 148v130zM423 326q0 68 -39.5 106.5t-115.5 38.5q-75 0 -114.5 -38.5t-39.5 -106.5v-35h309v35z" />
    <glyph glyph-name="Edotaccent" unicode="&#x116;" horiz-adv-x="573" 
d="M303 862q19 0 26.5 -7t7.5 -27v-6q0 -19 -7 -26t-27 -7h-5q-20 0 -27 7t-7 26v6q0 20 7 27t27 7h5zM503 710q19 0 19 -20v-28q0 -20 -19 -20h-353v-248h308q19 0 19 -20v-28q0 -20 -19 -20h-308v-258h366q19 0 19 -20v-28q0 -20 -19 -20h-418q-11 0 -15.5 4.5t-4.5 15.5
v670q0 11 4.5 15.5t15.5 4.5h405z" />
    <glyph glyph-name="edotaccent" unicode="&#x117;" horiz-adv-x="530" 
d="M271 684q19 0 26.5 -7t7.5 -27v-6q0 -20 -7.5 -27t-26.5 -7h-5q-20 0 -27 7t-7 27v6q0 20 7 27t27 7h5zM47 318q0 100 56.5 155.5t164.5 55.5q109 0 165.5 -56.5t56.5 -150.5v-55q0 -28 -30 -28h-346v-58q0 -65 38.5 -101t111.5 -36q111 0 157 83q12 16 29 7l21 -11
q19 -10 7 -29q-60 -108 -214 -108q-109 0 -163 54t-54 148v130zM423 326q0 68 -39.5 106.5t-115.5 38.5q-75 0 -114.5 -38.5t-39.5 -106.5v-35h309v35z" />
    <glyph glyph-name="Eogonek" unicode="&#x118;" horiz-adv-x="573" 
d="M503 710q19 0 19 -20v-28q0 -20 -19 -20h-353v-249h308q19 0 19 -20v-28q0 -20 -19 -20h-308v-257h366q19 0 19 -20v-28q0 -11 -6 -17q-59 -49 -85 -95t-16 -74q10 -27 39 -27t49 21q9 6 12 -3l8 -21q4 -9 -1 -13q-36 -36 -89 -36q-28 0 -49 13.5t-28 37.5q-13 40 15 93
t90 101h-376q-11 0 -15.5 4.5t-4.5 15.5v670q0 11 4.5 15.5t15.5 4.5h405z" />
    <glyph glyph-name="eogonek" unicode="&#x119;" horiz-adv-x="530" 
d="M47 318q0 100 56.5 155.5t164.5 55.5q109 0 165.5 -56.5t56.5 -150.5v-55q0 -28 -30 -28h-346v-58q0 -65 38.5 -101t111.5 -36q111 0 157 83q12 16 29 7l21 -11q19 -10 7 -29q-15 -28 -39 -51q-53 -58 -81 -120t-18 -90q9 -29 40 -29q28 0 51 23q8 6 11 -3l8 -21
q4 -9 -1 -14q-39 -36 -90 -36q-63 0 -77 52q-11 37 11 90.5t70 106.5q-43 -16 -99 -16q-109 0 -163 54t-54 148v130zM423 326q0 68 -39.5 106.5t-115.5 38.5q-75 0 -114.5 -38.5t-39.5 -106.5v-35h309v35z" />
    <glyph glyph-name="Ecaron" unicode="&#x11a;" horiz-adv-x="573" 
d="M452 901q11 0 12.5 -5t-4.5 -10l-122 -107q-12 -12 -17.5 -14.5t-16.5 -2.5h-8q-13 0 -18.5 2.5t-16.5 14.5l-123 107q-6 5 -4 10t13 5h26q18 0 28 -10l98 -83l95 83q10 10 30 10h28zM503 710q19 0 19 -20v-28q0 -20 -19 -20h-353v-248h308q19 0 19 -20v-28
q0 -20 -19 -20h-308v-258h366q19 0 19 -20v-28q0 -20 -19 -20h-418q-11 0 -15.5 4.5t-4.5 15.5v670q0 11 4.5 15.5t15.5 4.5h405z" />
    <glyph glyph-name="ecaron" unicode="&#x11b;" horiz-adv-x="530" 
d="M407 703q20 0 8 -14l-112 -99q-15 -15 -31 -15h-7q-12 0 -17.5 2.5t-15.5 12.5l-113 99q-11 14 8 14h25q16 0 26 -9l89 -77l87 77q9 9 28 9h25zM47 318q0 100 56.5 155.5t164.5 55.5q109 0 165.5 -56.5t56.5 -150.5v-55q0 -28 -30 -28h-346v-58q0 -65 38.5 -101
t111.5 -36q111 0 157 83q12 16 29 7l21 -11q19 -10 7 -29q-60 -108 -214 -108q-109 0 -163 54t-54 148v130zM423 326q0 68 -39.5 106.5t-115.5 38.5q-75 0 -114.5 -38.5t-39.5 -106.5v-35h309v35z" />
    <glyph glyph-name="Gcircumflex" unicode="&#x11c;" horiz-adv-x="655" 
d="M337 911q18 0 34 -16l122 -108q7 -5 4.5 -9.5t-13.5 -4.5h-27q-20 0 -30 10l-96 82l-97 -82q-10 -10 -28 -10h-26q-11 0 -13.5 4.5t3.5 9.5l123 108q12 11 17.5 13.5t18.5 2.5h8zM586 368q11 0 15.5 -4.5t4.5 -15.5v-123q0 -110 -71.5 -174.5t-202.5 -64.5
q-133 0 -204 67t-71 185v235q0 118 70.5 184.5t203.5 66.5q112 0 175.5 -42.5t90.5 -128.5q4 -11 1.5 -16.5t-13.5 -9.5l-31 -11q-19 -5 -26 12q-21 67 -66.5 98t-130.5 31q-99 0 -150.5 -48t-51.5 -135v-236q0 -88 52.5 -136.5t150.5 -48.5q97 0 150 46.5t53 125.5v75h-193
q-11 0 -15.5 4.5t-4.5 15.5v28q0 11 4.5 15.5t15.5 4.5h244z" />
    <glyph glyph-name="gcircumflex" unicode="&#x11d;" horiz-adv-x="536" 
d="M280 714q11 0 16.5 -2.5t16.5 -13.5l120 -105q6 -5 4 -9.5t-13 -4.5h-27q-20 0 -29 10l-93 80l-96 -80q-10 -10 -28 -10h-25q-23 0 -9 14l120 105q11 11 16.5 13.5t18.5 2.5h8zM49 324q0 205 216 205q97 0 169 -30q24 -11 31 -20.5t7 -34.5v-475q0 -216 -211 -216
q-140 0 -198 107q-13 19 7 30l22 11q18 10 29 -7q43 -80 138 -80q146 0 146 152v62q-81 -30 -158 -30q-198 0 -198 195v131zM386 448q-51 19 -117 19q-152 0 -152 -144v-128q0 -135 138 -135q73 0 150 29v333q0 12 -3 16.5t-16 9.5z" />
    <glyph glyph-name="Gbreve" unicode="&#x11e;" horiz-adv-x="655" 
d="M483 881q-31 -108 -152 -108q-118 0 -151 108q-4 12 9 18l24 9q13 4 18 -7q22 -78 100 -78q79 0 101 78q5 11 16 7l27 -9q13 -6 8 -18zM586 368q11 0 15.5 -4.5t4.5 -15.5v-123q0 -110 -71.5 -174.5t-202.5 -64.5q-133 0 -204 67t-71 185v235q0 118 70.5 184.5
t203.5 66.5q112 0 175.5 -42.5t90.5 -128.5q4 -11 1.5 -16.5t-13.5 -9.5l-31 -11q-19 -5 -26 12q-21 67 -66.5 98t-130.5 31q-99 0 -150.5 -48t-51.5 -135v-236q0 -88 52.5 -136.5t150.5 -48.5q97 0 150 46.5t53 125.5v75h-193q-11 0 -15.5 4.5t-4.5 15.5v28q0 11 4.5 15.5
t15.5 4.5h244z" />
    <glyph glyph-name="gbreve" unicode="&#x11f;" horiz-adv-x="536" 
d="M427 692q-33 -109 -152 -109t-151 109q-5 11 8 17l24 9q14 4 18 -7q22 -77 101 -77q78 0 100 77q5 11 16 8l27 -10q13 -6 9 -17zM49 324q0 205 216 205q97 0 169 -30q24 -11 31 -20.5t7 -34.5v-475q0 -216 -211 -216q-140 0 -198 107q-13 19 7 30l22 11q18 10 29 -7
q43 -80 138 -80q146 0 146 152v62q-81 -30 -158 -30q-198 0 -198 195v131zM386 448q-51 19 -117 19q-152 0 -152 -144v-128q0 -135 138 -135q73 0 150 29v333q0 12 -3 16.5t-16 9.5z" />
    <glyph glyph-name="Gdotaccent" unicode="&#x120;" horiz-adv-x="655" 
d="M334 872q20 0 27 -7t7 -27v-6q0 -19 -7 -26t-27 -7h-5q-20 0 -27 7t-7 26v6q0 20 7.5 27t26.5 7h5zM586 368q11 0 15.5 -4.5t4.5 -15.5v-123q0 -110 -71.5 -174.5t-202.5 -64.5q-133 0 -204 67t-71 185v235q0 118 70.5 184.5t203.5 66.5q112 0 175.5 -42.5t90.5 -128.5
q4 -11 1.5 -16.5t-13.5 -9.5l-31 -11q-19 -5 -26 12q-21 67 -66.5 98t-130.5 31q-99 0 -150.5 -48t-51.5 -135v-236q0 -88 52.5 -136.5t150.5 -48.5q97 0 150 46.5t53 125.5v75h-193q-11 0 -15.5 4.5t-4.5 15.5v28q0 11 4.5 15.5t15.5 4.5h244z" />
    <glyph glyph-name="gdotaccent" unicode="&#x121;" horiz-adv-x="536" 
d="M277 683q19 0 26.5 -7.5t7.5 -26.5v-5q0 -20 -7.5 -27t-26.5 -7h-5q-20 0 -27 7t-7 27v5q0 19 7 26.5t27 7.5h5zM49 324q0 205 216 205q97 0 169 -30q24 -11 31 -20.5t7 -34.5v-475q0 -216 -211 -216q-140 0 -198 107q-13 19 7 30l22 11q18 10 29 -7q43 -80 138 -80
q146 0 146 152v62q-81 -30 -158 -30q-198 0 -198 195v131zM386 448q-51 19 -117 19q-152 0 -152 -144v-128q0 -135 138 -135q73 0 150 29v333q0 12 -3 16.5t-16 9.5z" />
    <glyph glyph-name="Gcommaaccent" unicode="&#x122;" horiz-adv-x="655" 
d="M586 368q11 0 15.5 -4.5t4.5 -15.5v-123q0 -110 -71.5 -174.5t-202.5 -64.5q-133 0 -204 67t-71 185v235q0 118 70.5 184.5t203.5 66.5q112 0 175.5 -42.5t90.5 -128.5q4 -11 1.5 -16.5t-13.5 -9.5l-31 -11q-19 -5 -26 12q-21 67 -66.5 98t-130.5 31q-99 0 -150.5 -48
t-51.5 -135v-236q0 -88 52.5 -136.5t150.5 -48.5q97 0 150 46.5t53 125.5v75h-193q-11 0 -15.5 4.5t-4.5 15.5v28q0 11 4.5 15.5t15.5 4.5h244zM338 -232q-5 -17 -21 -17h-22q-15 0 -12 13l33 145q1 11 6 15t16 4h30q25 0 17 -20z" />
    <glyph glyph-name="gcommaaccent" unicode="&#x123;" horiz-adv-x="537" 
d="M278 718q4 11 8.5 14t14.5 3h18q16 0 13 -14l-38 -126q-1 -13 -6 -17t-17 -4h-25q-25 0 -16 22zM49 324q0 205 216 205q97 0 169 -30q24 -11 31 -20.5t7 -34.5v-475q0 -216 -211 -216q-140 0 -198 107q-13 19 7 30l22 11q18 10 29 -7q43 -80 138 -80q146 0 146 152v62
q-81 -30 -158 -30q-198 0 -198 195v131zM386 448q-51 19 -117 19q-152 0 -152 -144v-128q0 -135 138 -135q73 0 150 29v333q0 12 -3 16.5t-16 9.5z" />
    <glyph glyph-name="Hcircumflex" unicode="&#x124;" horiz-adv-x="681" 
d="M346 901q12 0 17.5 -2.5t16.5 -13.5l122 -108q7 -5 4.5 -9.5t-13.5 -4.5h-27q-20 0 -30 10l-95 82l-98 -82q-10 -10 -28 -10h-26q-11 0 -13.5 4.5t4.5 9.5l122 108q12 11 17.5 13.5t18.5 2.5h8zM584 710q19 0 19 -20v-670q0 -20 -19 -20h-33q-11 0 -15.5 4.5t-4.5 15.5
v306h-381v-306q0 -11 -4 -15.5t-15 -4.5h-33q-11 0 -15.5 4.5t-4.5 15.5v670q0 11 4.5 15.5t15.5 4.5h33q11 0 15 -4.5t4 -15.5v-296h381v296q0 11 4.5 15.5t15.5 4.5h33z" />
    <glyph glyph-name="hcircumflex" unicode="&#x125;" horiz-adv-x="551" 
d="M105 922q17 0 33 -15l117 -104q13 -15 -8 -15h-27q-18 0 -28 11l-92 79l-94 -79q-10 -11 -27 -11h-25q-22 0 -9 15l118 104q11 10 16.5 12.5t18.5 2.5h7zM116 740q18 0 18 -18v-221q60 28 157 28q198 0 198 -196v-315q0 -10 -3.5 -14t-14.5 -4h-31q-10 0 -14 4t-4 14v313
q0 136 -140 136q-90 0 -148 -29v-420q0 -18 -18 -18h-32q-18 0 -18 18v704q0 18 18 18h32z" />
    <glyph glyph-name="Hbar" unicode="&#x126;" horiz-adv-x="690" 
d="M668 592q13 0 13 -14v-16q0 -15 -13 -15h-60v-527q0 -11 -4.5 -15.5t-15.5 -4.5h-33q-11 0 -15.5 4.5t-4.5 15.5v306h-380v-306q0 -11 -4.5 -15.5t-15.5 -4.5h-33q-11 0 -15.5 4.5t-4.5 15.5v527h-60q-13 0 -13 15v16q0 14 13 14h60v98q0 11 4.5 15.5t15.5 4.5h33
q11 0 15.5 -4.5t4.5 -15.5v-98h380v98q0 11 4.5 15.5t15.5 4.5h33q11 0 15.5 -4.5t4.5 -15.5v-98h60zM155 547v-153h380v153h-380z" />
    <glyph glyph-name="hbar" unicode="&#x127;" horiz-adv-x="551" 
d="M134 501q60 28 156 28q199 0 199 -196v-315q0 -18 -18 -18h-31q-10 0 -14 4t-4 14v313q0 136 -140 136q-90 0 -148 -29v-420q0 -18 -18 -18h-32q-18 0 -18 18v597h-52q-8 0 -10.5 2.5t-2.5 11.5v14q0 14 13 14h52v65q0 18 18 18h32q18 0 18 -18v-65h157q7 0 9.5 -3
t2.5 -11v-14q0 -9 -2 -11.5t-10 -2.5h-157v-114z" />
    <glyph glyph-name="Itilde" unicode="&#x128;" horiz-adv-x="228" 
d="M254 882q11 0 11 -12q0 -100 -78 -100q-36 0 -78.5 33.5t-67.5 33.5q-40 0 -40 -55q0 -12 -12 -12h-20q-12 0 -12 12q0 100 78 100q30 0 56 -17t48 -33.5t44 -16.5q40 0 40 55q0 12 11 12h20zM78 690q0 11 4.5 15.5t15.5 4.5h33q11 0 15 -4.5t4 -15.5v-670
q0 -11 -4 -15.5t-15 -4.5h-33q-11 0 -15.5 4.5t-4.5 15.5v670z" />
    <glyph glyph-name="itilde" unicode="&#x129;" horiz-adv-x="199" 
d="M204 712q10 0 10 -12q0 -54 -14.5 -76.5t-46.5 -22.5q-23 0 -40 16t-31.5 32t-32.5 16q-32 0 -32 -51q0 -13 -9 -13h-18q-10 0 -10 13q0 98 63 98q31 0 58 -32.5t47 -32.5q30 0 30 53q0 12 9 12h17zM115 514q11 0 14.5 -4t3.5 -14v-478q0 -10 -3.5 -14t-14.5 -4h-31
q-10 0 -14 4t-4 14v478q0 10 4 14t14 4h31z" />
    <glyph glyph-name="Imacron" unicode="&#x12a;" horiz-adv-x="228" 
d="M232 850q10 0 13.5 -3.5t3.5 -13.5v-16q0 -10 -3.5 -13.5t-13.5 -3.5h-236q-10 0 -13.5 3.5t-3.5 13.5v16q0 17 17 17h236zM78 690q0 11 4.5 15.5t15.5 4.5h33q11 0 15 -4.5t4 -15.5v-670q0 -11 -4 -15.5t-15 -4.5h-33q-11 0 -15.5 4.5t-4.5 15.5v670z" />
    <glyph glyph-name="imacron" unicode="&#x12b;" horiz-adv-x="199" 
d="M173 670q10 0 10 -16v-15q0 -17 -10 -17h-147q-11 0 -11 17v15q0 16 11 16h147zM115 514q11 0 14.5 -4t3.5 -14v-478q0 -10 -3.5 -14t-14.5 -4h-31q-10 0 -14 4t-4 14v478q0 10 4 14t14 4h31z" />
    <glyph glyph-name="Ibreve" unicode="&#x12c;" horiz-adv-x="228" 
d="M266 871q-33 -108 -152 -108t-151 108q-4 13 8 18l24 9q14 4 19 -7q21 -78 100 -78t101 78q5 11 16 7l27 -9q12 -5 8 -18zM78 690q0 11 4.5 15.5t15.5 4.5h33q11 0 15 -4.5t4 -15.5v-670q0 -11 -4 -15.5t-15 -4.5h-33q-11 0 -15.5 4.5t-4.5 15.5v670z" />
    <glyph glyph-name="ibreve" unicode="&#x12d;" horiz-adv-x="199" 
d="M220 708q13 -5 9 -17q-25 -105 -130 -105q-50 0 -83 27t-45 78q-4 13 8 17l23 8q15 4 19 -7q13 -72 78 -72q66 0 79 72q5 11 16 8zM115 514q11 0 14.5 -4t3.5 -14v-478q0 -10 -3.5 -14t-14.5 -4h-31q-10 0 -14 4t-4 14v478q0 10 4 14t14 4h31z" />
    <glyph glyph-name="Iogonek" unicode="&#x12e;" horiz-adv-x="228" 
d="M197 -197q4 -9 -1 -14q-39 -36 -90 -36q-63 0 -77 52q-23 76 69 196q-12 0 -16 4.5t-4 14.5v670q0 11 4.5 15.5t15.5 4.5h33q11 0 15 -4.5t4 -15.5v-670q0 -12 -4 -17q-39 -53 -53.5 -98t-4.5 -72q9 -28 39 -28t50 22q9 7 12 -3z" />
    <glyph glyph-name="iogonek" unicode="&#x12f;" horiz-adv-x="200" 
d="M97 617q-21 0 -29 8t-8 29v7q0 21 8 29t29 8h6q21 0 29 -8t8 -29v-7q0 -21 -8 -29t-29 -8h-6zM174 -195q4 -8 -1 -13q-27 -38 -75 -38q-30 0 -50.5 15.5t-24.5 44.5q-5 45 14.5 99t43.5 88q-15 1 -15 17v478q0 18 18 18h32q18 0 18 -18v-478q0 -10 -4 -14
q-20 -33 -36 -81.5t-13 -84.5q2 -15 12.5 -24.5t22.5 -9.5q24 0 37 22q8 5 13 -3z" />
    <glyph glyph-name="Idotaccent" unicode="&#x130;" horiz-adv-x="228" 
d="M117 862q19 0 26 -7t7 -27v-6q0 -20 -7 -26.5t-26 -6.5h-5q-20 0 -27 7t-7 26v6q0 20 7 27t27 7h5zM78 690q0 11 4.5 15.5t15.5 4.5h33q11 0 15 -4.5t4 -15.5v-670q0 -11 -4 -15.5t-15 -4.5h-33q-11 0 -15.5 4.5t-4.5 15.5v670z" />
    <glyph glyph-name="dotlessi" unicode="&#x131;" horiz-adv-x="200" 
d="M116 514q18 0 18 -18v-478q0 -18 -18 -18h-32q-18 0 -18 18v478q0 18 18 18h32z" />
    <glyph glyph-name="IJ" unicode="&#x132;" horiz-adv-x="801" 
d="M78 690q0 11 4.5 15.5t15.5 4.5h33q11 0 15 -4.5t4 -15.5v-670q0 -11 -4 -15.5t-15 -4.5h-33q-11 0 -15.5 4.5t-4.5 15.5v670zM709 710q19 0 19 -19v-468q0 -112 -62.5 -175t-179.5 -63q-192 0 -235 187q-7 19 12 26l31 11q19 7 26 -13q16 -71 55 -107t111 -36
q82 0 126 44.5t44 124.5v469q0 11 4 15t15 4h34z" />
    <glyph glyph-name="ij" unicode="&#x133;" horiz-adv-x="444" 
d="M103 698q21 0 29 -8t8 -29v-7q0 -21 -8 -29t-29 -8h-6q-21 0 -29 8t-8 29v7q0 21 8 29t29 8h6zM346 698q21 0 29.5 -8t8.5 -29v-7q0 -21 -8.5 -29t-29.5 -8h-5q-22 0 -30 8t-8 29v7q0 21 8 29t30 8h5zM116 514q18 0 18 -18v-478q0 -18 -18 -18h-32q-18 0 -18 18v478
q0 18 18 18h32zM359 514q11 0 14.5 -4t3.5 -14v-505q0 -109 -49 -165t-159 -56q-11 0 -14.5 4t-3.5 14v26q0 19 18 19q78 0 109.5 39.5t31.5 119.5v504q0 10 4 14t14 4h31z" />
    <glyph glyph-name="Jcircumflex" unicode="&#x134;" horiz-adv-x="570" 
d="M467 901q18 0 34 -16l122 -108q14 -14 -9 -14h-27q-21 0 -30 10l-96 82l-97 -82q-11 -10 -29 -10h-26q-23 0 -9 14l123 108q12 11 17.5 13.5t18.5 2.5h8zM478 710q20 0 20 -19v-468q0 -112 -63 -175t-179 -63q-191 0 -236 187q-7 19 12 26l32 11q18 7 25 -13
q16 -71 55.5 -107t111.5 -36q82 0 125.5 44.5t43.5 124.5v469q0 11 4 15t15 4h34z" />
    <glyph glyph-name="jcircumflex" unicode="&#x135;" horiz-adv-x="200" 
d="M105 714q9 0 12 -0.5t8.5 -4t13.5 -11.5l102 -105q13 -15 -9 -15h-26q-20 0 -30 10l-76 82l-78 -82q-11 -10 -29 -10h-25q-20 0 -9 15l103 105q11 11 16.5 13.5t18.5 2.5h8zM116 514q10 0 14 -4t4 -14v-505q0 -109 -49 -165t-159 -56q-10 0 -14 4t-4 14v26q0 19 18 19
q78 0 109.5 39.5t31.5 119.5v504q0 10 3.5 14t14.5 4h31z" />
    <glyph glyph-name="Kcommaaccent" unicode="&#x136;" horiz-adv-x="609" 
d="M589 20q11 -20 -11 -20h-32q-19 0 -26.5 3.5t-13.5 14.5l-111 222q-24 48 -54.5 67.5t-88.5 19.5h-102v-307q0 -11 -4 -15.5t-15 -4.5h-33q-11 0 -15.5 4.5t-4.5 15.5v670q0 11 4.5 15.5t15.5 4.5h33q11 0 15 -4.5t4 -15.5v-297h96h22l224 300q13 17 40 17h36
q11 0 13.5 -6t-3.5 -13l-237 -312q75 -21 121 -112zM317 -232q-5 -17 -21 -17h-22q-8 0 -10.5 2.5t-1.5 10.5l33 145q1 11 6 15t16 4h30q25 0 17 -20z" />
    <glyph glyph-name="kcommaaccent" unicode="&#x137;" horiz-adv-x="507" 
d="M483 21q6 -11 3.5 -16t-14.5 -5h-30q-15 0 -20.5 3t-10.5 13l-76 156q-15 32 -37.5 46.5t-59.5 14.5h-104v-214q0 -11 -4 -15t-15 -4h-29q-11 0 -15 4t-4 15v703q0 11 4 14.5t15 3.5h29q11 0 15 -3.5t4 -14.5v-427h96h9l161 205q7 10 13 12t22 2h28q27 0 12 -21
l-169 -211q54 -14 87 -81zM270 -211q-5 -17 -23 -17h-18q-16 0 -13 14l29 140q1 13 6 17t17 4h26q24 0 16 -21z" />
    <glyph glyph-name="kgreenlandic" unicode="&#x138;" horiz-adv-x="474" 
d="M453 22q16 -22 -11 -22h-29q-27 0 -38 15l-159 224l-82 -90v-130q0 -11 -4 -15t-15 -4h-30q-11 0 -15 4t-4 15v477q0 18 19 18h30q19 0 19 -18v-253l235 257q8 9 14.5 11.5t22.5 2.5h28q29 0 11 -21l-184 -203z" />
    <glyph glyph-name="Lacute" unicode="&#x139;" horiz-adv-x="521" 
d="M172 898q23 11 34 -2l15 -18q5 -6 6.5 -9.5t-1 -6.5t-8.5 -5l-176 -93q-17 -6 -24 2l-9 11q-11 14 2 20zM131 710q11 0 15 -4.5t4 -15.5v-622h339q19 0 19 -20v-28q0 -20 -19 -20h-391q-11 0 -15.5 4.5t-4.5 15.5v670q0 11 4.5 15.5t15.5 4.5h33z" />
    <glyph glyph-name="lacute" unicode="&#x13a;" horiz-adv-x="207" 
d="M146 889q18 10 30 -4l17 -20q12 -16 -4 -21l-146 -69q-18 -8 -24 1l-10 13q-9 15 2 21zM137 18q0 -18 -18 -18h-32q-10 0 -13.5 4t-3.5 14v704q0 10 3.5 14t13.5 4h32q18 0 18 -18v-704z" />
    <glyph glyph-name="Lcommaaccent" unicode="&#x13b;" horiz-adv-x="521" 
d="M131 710q11 0 15 -4.5t4 -15.5v-622h339q19 0 19 -20v-28q0 -20 -19 -20h-391q-11 0 -15.5 4.5t-4.5 15.5v670q0 11 4.5 15.5t15.5 4.5h33zM282 -232q-5 -17 -22 -17h-21q-15 0 -12 13l33 145q1 11 6 15t16 4h30q23 0 17 -20z" />
    <glyph glyph-name="lcommaaccent" unicode="&#x13c;" horiz-adv-x="207" 
d="M137 18q0 -10 -3.5 -14t-14.5 -4h-31q-10 0 -14 4t-4 14v704q0 10 4 14t14 4h31q11 0 14.5 -4t3.5 -14v-704zM97 -203q-4 -10 -8.5 -13.5t-14.5 -3.5h-17q-9 0 -11.5 3t-1.5 12l29 145q1 13 6 17t17 4h25q23 0 16 -21z" />
    <glyph glyph-name="Lcaron" unicode="&#x13d;" horiz-adv-x="522" 
d="M131 710q11 0 15 -4.5t4 -15.5v-622h339q19 0 19 -20v-28q0 -20 -19 -20h-391q-11 0 -15.5 4.5t-4.5 15.5v670q0 11 4.5 15.5t15.5 4.5h33zM371 503q-5 -17 -21 -17h-16q-15 0 -12 13l34 193q1 11 5.5 14.5t16.5 3.5h28q23 0 16 -19z" />
    <glyph glyph-name="lcaron" unicode="&#x13e;" horiz-adv-x="214" 
d="M137 18q0 -10 -3.5 -14t-14.5 -4h-31q-10 0 -14 4t-4 14v704q0 10 4 14t14 4h31q11 0 14.5 -4t3.5 -14v-704zM268 554q-7 -17 -21 -17h-16q-13 0 -12 14l29 171q1 11 5.5 14.5t16.5 3.5h28q23 0 16 -19z" />
    <glyph glyph-name="Ldot" unicode="&#x13f;" horiz-adv-x="522" 
d="M131 710q11 0 15 -4.5t4 -15.5v-622h339q19 0 19 -20v-28q0 -20 -19 -20h-391q-11 0 -15.5 4.5t-4.5 15.5v670q0 11 4.5 15.5t15.5 4.5h33zM351 406q23 0 31.5 -9t8.5 -31v-6q0 -22 -8.5 -31t-31.5 -9h-6q-23 0 -31 8.5t-8 31.5v6q0 23 8.5 31.5t30.5 8.5h6z" />
    <glyph glyph-name="ldot" unicode="&#x140;" horiz-adv-x="327" 
d="M137 18q0 -10 -3.5 -14t-14.5 -4h-31q-10 0 -14 4t-4 14v704q0 10 4 14t14 4h31q11 0 14.5 -4t3.5 -14v-704zM271 418q23 0 31.5 -9t8.5 -31v-7q0 -22 -8.5 -30.5t-31.5 -8.5h-6q-23 0 -31 8t-8 31v7q0 23 8.5 31.5t30.5 8.5h6z" />
    <glyph glyph-name="Lslash" unicode="&#x141;" horiz-adv-x="550" 
d="M516 68q11 0 15.5 -4.5t4.5 -15.5v-28q0 -11 -4.5 -15.5t-15.5 -4.5h-391q-19 0 -19 20v265l-79 -37q-12 -7 -19 6l-11 22q-7 13 5 18l104 49v347q0 20 19 20h34q19 0 19 -20v-314l208 100q15 6 21 -7l11 -21q6 -12 -7 -18l-233 -112v-250h338z" />
    <glyph glyph-name="lslash" unicode="&#x142;" horiz-adv-x="285" 
d="M275 437q7 -12 -5 -18l-96 -56v-345q0 -18 -18 -18h-32q-18 0 -18 18v308l-64 -38q-13 -7 -20 5l-12 20q-6 12 5 18l91 53v338q0 18 18 18h32q18 0 18 -18v-302l69 41q13 7 21 -5z" />
    <glyph glyph-name="Nacute" unicode="&#x143;" horiz-adv-x="691" 
d="M404 898q23 11 34 -2l15 -18q12 -15 -3 -21l-177 -93q-17 -6 -23 2l-9 11q-12 13 1 20zM593 710q11 0 15.5 -4.5t4.5 -15.5v-670q0 -11 -4.5 -15.5t-15.5 -4.5h-32q-15 0 -21 11l-319 458q-21 31 -48 83.5t-32 59.5h-4q0 -8 5.5 -71t5.5 -106v-415q0 -20 -19 -20h-31
q-11 0 -15.5 4.5t-4.5 15.5v670q0 11 4.5 15.5t15.5 4.5h32q14 0 21 -10l311 -449q23 -33 52.5 -87t36.5 -64h3q0 10 -6 75.5t-6 110.5v405q0 19 20 19h31z" />
    <glyph glyph-name="nacute" unicode="&#x144;" 
d="M332 720q22 13 33 -1l15 -18q12 -15 -2 -22l-177 -92q-16 -7 -23 1l-10 12q-10 13 2 20zM102 495q83 34 186 34q199 0 199 -196v-315q0 -18 -18 -18h-31q-10 0 -14 4t-4 14v313q0 136 -140 136q-71 0 -133 -22q-15 -7 -15 -25v-402q0 -18 -18 -18h-32q-18 0 -18 18v422
q0 23 7.5 34t30.5 21z" />
    <glyph glyph-name="Ncommaaccent" unicode="&#x145;" horiz-adv-x="691" 
d="M593 710q11 0 15.5 -4.5t4.5 -15.5v-670q0 -11 -4.5 -15.5t-15.5 -4.5h-32q-15 0 -21 11l-319 458q-21 31 -48 83.5t-32 59.5h-4q0 -8 5.5 -71t5.5 -106v-415q0 -20 -19 -20h-31q-11 0 -15.5 4.5t-4.5 15.5v670q0 11 4.5 15.5t15.5 4.5h32q14 0 21 -10l311 -449
q23 -33 52.5 -87t36.5 -64h3q0 10 -6 75.5t-6 110.5v405q0 19 20 19h31zM340 -232q-5 -17 -21 -17h-22q-8 0 -10.5 2.5t-1.5 10.5l33 145q1 11 6 15t16 4h30q25 0 17 -20z" />
    <glyph glyph-name="ncommaaccent" unicode="&#x146;" 
d="M102 495q83 34 186 34q199 0 199 -196v-315q0 -18 -18 -18h-31q-10 0 -14 4t-4 14v313q0 136 -140 136q-71 0 -133 -22q-15 -7 -15 -25v-402q0 -18 -18 -18h-32q-18 0 -18 18v422q0 23 7.5 34t30.5 21zM275 -201q-5 -17 -23 -17h-17q-9 0 -11.5 3t-1.5 12l29 143
q1 13 6 17t17 4h26q22 0 15 -21z" />
    <glyph glyph-name="Ncaron" unicode="&#x147;" horiz-adv-x="691" 
d="M497 901q11 0 13 -5t-4 -10l-122 -107q-17 -17 -34 -17h-8q-13 0 -18.5 2.5t-17.5 14.5l-122 107q-15 15 8 15h26q18 0 29 -10l97 -83l96 83q10 10 30 10h27zM593 710q11 0 15.5 -4.5t4.5 -15.5v-670q0 -11 -4.5 -15.5t-15.5 -4.5h-32q-15 0 -21 11l-319 458
q-21 31 -48 83.5t-32 59.5h-4q0 -8 5.5 -71t5.5 -106v-415q0 -20 -19 -20h-31q-11 0 -15.5 4.5t-4.5 15.5v670q0 11 4.5 15.5t15.5 4.5h32q14 0 21 -10l311 -449q23 -33 52.5 -87t36.5 -64h3q0 10 -6 75.5t-6 110.5v405q0 19 20 19h31z" />
    <glyph glyph-name="ncaron" unicode="&#x148;" 
d="M412 703q22 0 8 -14l-112 -99q-14 -15 -31 -15h-7q-12 0 -17 2t-16 13l-112 99q-12 14 7 14h25q16 0 26 -9l89 -77l88 77q9 9 27 9h25zM102 495q83 34 186 34q199 0 199 -196v-315q0 -18 -18 -18h-31q-10 0 -14 4t-4 14v313q0 136 -140 136q-71 0 -133 -22
q-15 -7 -15 -25v-402q0 -18 -18 -18h-32q-18 0 -18 18v422q0 23 7.5 34t30.5 21z" />
    <glyph glyph-name="napostrophe" unicode="&#x149;" 
d="M91 552q-8 -13 -23 -13h-16q-15 0 -9 14l71 171q4 10 7.5 13t14.5 3h32q23 0 12 -19zM102 495q83 34 186 34q199 0 199 -196v-315q0 -18 -18 -18h-31q-10 0 -14 4t-4 14v313q0 136 -140 136q-71 0 -133 -22q-15 -7 -15 -25v-402q0 -18 -18 -18h-32q-18 0 -18 18v422
q0 23 7.5 34t30.5 21z" />
    <glyph glyph-name="Eng" unicode="&#x14a;" horiz-adv-x="691" 
d="M593 710q11 0 15.5 -4.5t4.5 -15.5v-702q0 -103 -58 -160.5t-168 -57.5q-11 0 -14.5 4t-3.5 14v26q0 11 3.5 15t14.5 4q77 0 116 41.5t39 116.5v16l-321 462q-21 31 -48 83.5t-32 59.5h-4q0 -6 5.5 -64.5t5.5 -99.5v-428q0 -20 -19 -20h-31q-11 0 -15.5 4.5t-4.5 15.5
v670q0 11 4.5 15.5t15.5 4.5h32q14 0 21 -10l311 -449q23 -33 52.5 -87t36.5 -64h3q0 10 -6 75.5t-6 110.5v405q0 19 20 19h31z" />
    <glyph glyph-name="eng" unicode="&#x14b;" 
d="M102 495q83 34 186 34q199 0 199 -196v-349q0 -102 -56.5 -158t-164.5 -56q-10 0 -13.5 4t-3.5 14v25q0 10 3.5 13.5t13.5 3.5q76 0 115 41t39 115v345q0 136 -140 136q-71 0 -133 -22q-15 -7 -15 -25v-402q0 -18 -18 -18h-32q-18 0 -18 18v422q0 23 7.5 34t30.5 21z" />
    <glyph glyph-name="Omacron" unicode="&#x14c;" horiz-adv-x="663" 
d="M450 860q10 0 13.5 -3.5t3.5 -13.5v-16q0 -10 -3.5 -13.5t-13.5 -3.5h-236q-10 0 -13.5 3.5t-3.5 13.5v16q0 17 17 17h236zM57 473q0 118 71 184.5t204 66.5q132 0 203 -66.5t71 -184.5v-236q0 -118 -71 -184.5t-203 -66.5q-133 0 -204 66.5t-71 184.5v236zM534 473
q0 88 -52 136t-150 48t-150.5 -48t-52.5 -136v-236q0 -88 52.5 -136t150.5 -48t150 48t52 136v236z" />
    <glyph glyph-name="omacron" unicode="&#x14d;" horiz-adv-x="539" 
d="M377 664q9 0 12.5 -3t3.5 -13v-15q0 -10 -3.5 -13t-12.5 -3h-216q-9 0 -12.5 3t-3.5 13v15q0 16 16 16h216zM50 345q0 86 58.5 135t160.5 49q103 0 162 -49t59 -135v-176q0 -86 -59 -134.5t-162 -48.5q-102 0 -160.5 49t-58.5 134v176zM422 345q0 57 -41 90t-112 33
q-70 0 -111 -33t-41 -90v-176q0 -57 41.5 -89.5t110.5 -32.5q71 0 112 32.5t41 89.5v176z" />
    <glyph glyph-name="Obreve" unicode="&#x14e;" horiz-adv-x="663" 
d="M484 881q-33 -108 -152 -108q-120 0 -151 108q-4 13 8 18l24 9q14 4 19 -7q21 -78 100 -78t101 78q5 11 16 7l27 -9q12 -5 8 -18zM57 473q0 118 71 184.5t204 66.5q132 0 203 -66.5t71 -184.5v-236q0 -118 -71 -184.5t-203 -66.5q-133 0 -204 66.5t-71 184.5v236z
M534 473q0 88 -52 136t-150 48t-150.5 -48t-52.5 -136v-236q0 -88 52.5 -136t150.5 -48t150 48t52 136v236z" />
    <glyph glyph-name="obreve" unicode="&#x14f;" horiz-adv-x="539" 
d="M421 692q-33 -109 -152 -109q-118 0 -151 109q-4 12 8 17l24 9q14 4 19 -7q21 -77 100 -77t101 77q5 11 16 8l27 -10q12 -5 8 -17zM50 345q0 86 58.5 135t160.5 49q103 0 162 -49t59 -135v-176q0 -86 -59 -134.5t-162 -48.5q-102 0 -160.5 49t-58.5 134v176zM422 345
q0 57 -41 90t-112 33q-70 0 -111 -33t-41 -90v-176q0 -57 41.5 -89.5t110.5 -32.5q71 0 112 32.5t41 89.5v176z" />
    <glyph glyph-name="Ohungarumlaut" unicode="&#x150;" horiz-adv-x="663" 
d="M284 901q12 18 30 12l22 -6q19 -7 6 -20l-109 -107q-13 -12 -22 -7l-12 3q-15 5 -6 19zM457 901q13 18 30 12l24 -6q20 -8 6 -20l-114 -109q-13 -12 -23 -8l-11 4q-16 5 -6 19zM57 473q0 118 71 184.5t204 66.5q132 0 203 -66.5t71 -184.5v-236q0 -118 -71 -184.5
t-203 -66.5q-133 0 -204 66.5t-71 184.5v236zM534 473q0 88 -52 136t-150 48t-150.5 -48t-52.5 -136v-236q0 -88 52.5 -136t150.5 -48t150 48t52 136v236z" />
    <glyph glyph-name="ohungarumlaut" unicode="&#x151;" horiz-adv-x="539" 
d="M225 692q11 16 28 11l20 -6q18 -5 6 -19l-101 -98q-11 -10 -20 -7l-11 4q-14 4 -6 17zM385 691q12 15 28 11l22 -6q19 -8 5 -19l-107 -97q-11 -11 -20 -8l-11 4q-15 4 -5 17zM50 345q0 86 58.5 135t160.5 49q103 0 162 -49t59 -135v-176q0 -86 -59 -134.5t-162 -48.5
q-102 0 -160.5 49t-58.5 134v176zM422 345q0 57 -41 90t-112 33q-70 0 -111 -33t-41 -90v-176q0 -57 41.5 -89.5t110.5 -32.5q71 0 112 32.5t41 89.5v176z" />
    <glyph glyph-name="OE" unicode="&#x152;" horiz-adv-x="845" 
d="M787 68q11 0 15.5 -4.5t4.5 -15.5v-28q0 -11 -4.5 -15.5t-15.5 -4.5h-344q-55 -15 -111 -15q-133 0 -204 67t-71 185v236q0 118 71 185t204 67q58 0 111 -15h331q11 0 15.5 -4.5t4.5 -15.5v-28q0 -11 -4.5 -15.5t-15.5 -4.5h-279v-249h234q11 0 15.5 -4.5t4.5 -15.5v-28
q0 -11 -4.5 -15.5t-15.5 -4.5h-234v-257h292zM129 237q0 -88 52.5 -136t150.5 -48q54 0 91 13v578q-41 13 -91 13q-98 0 -150.5 -48t-52.5 -136v-236z" />
    <glyph glyph-name="oe" unicode="&#x153;" horiz-adv-x="817" 
d="M415 441q43 88 163 88q101 0 149.5 -55.5t48.5 -150.5v-56q0 -28 -30 -28h-299v-59q0 -136 128 -136q52 0 80 20t52 62q12 16 29 7l21 -12q20 -9 7 -28q-29 -53 -71.5 -80t-117.5 -27q-120 0 -161 85q-20 -41 -63.5 -63t-101.5 -22q-92 0 -144.5 48.5t-52.5 133.5v177
q0 86 52.5 135t144.5 49q59 0 102.5 -23.5t63.5 -64.5zM709 327q0 144 -131 144t-131 -144v-36h262v36zM380 346q0 57 -35.5 89.5t-95.5 32.5t-95 -32.5t-35 -89.5v-178q0 -57 35 -89t95 -32t95.5 32t35.5 89v178z" />
    <glyph glyph-name="Racute" unicode="&#x154;" horiz-adv-x="644" 
d="M374 898q23 11 34 -2l15 -18q12 -15 -3 -21l-176 -93q-18 -6 -24 2l-9 11q-12 13 1 20zM381 710q99 0 154.5 -54.5t55.5 -152.5q0 -82 -42.5 -133t-118.5 -63q39 -18 65 -69l112 -218q13 -20 -10 -20h-33q-31 0 -39 18l-97 193q-24 48 -54.5 67.5t-88.5 19.5h-135v-278
q0 -11 -4 -15.5t-15 -4.5h-33q-11 0 -15.5 4.5t-4.5 15.5v670q0 11 4.5 15.5t15.5 4.5h283zM516 503q0 67 -37 103t-105 36h-224v-276h224q67 0 104.5 35.5t37.5 101.5z" />
    <glyph glyph-name="racute" unicode="&#x155;" horiz-adv-x="342" 
d="M261 720q23 11 34 -2l15 -18q12 -15 -3 -21l-176 -93q-18 -6 -24 2l-9 11q-11 13 1 20zM283 529h31q18 0 18 -18v-26q0 -18 -18 -18h-33q-75 0 -132 -21q-17 -7 -17 -26v-402q0 -18 -18 -18h-32q-18 0 -18 18v424q0 23 8 34.5t30 21.5q76 29 181 31z" />
    <glyph glyph-name="Rcommaaccent" unicode="&#x156;" horiz-adv-x="644" 
d="M381 710q99 0 154.5 -54.5t55.5 -152.5q0 -82 -42.5 -133t-118.5 -63q39 -18 65 -69l112 -218q13 -20 -10 -20h-33q-31 0 -39 18l-97 193q-24 48 -54.5 67.5t-88.5 19.5h-135v-278q0 -11 -4 -15.5t-15 -4.5h-33q-11 0 -15.5 4.5t-4.5 15.5v670q0 11 4.5 15.5t15.5 4.5
h283zM516 503q0 67 -37 103t-105 36h-224v-276h224q67 0 104.5 35.5t37.5 101.5zM331 -232q-5 -17 -22 -17h-21q-9 0 -11.5 2.5t-0.5 10.5l33 145q1 11 6 15t16 4h30q23 0 17 -20z" />
    <glyph glyph-name="rcommaaccent" unicode="&#x157;" horiz-adv-x="342" 
d="M283 529h31q18 0 18 -18v-26q0 -18 -18 -18h-33q-75 0 -132 -21q-17 -7 -17 -26v-402q0 -18 -18 -18h-32q-18 0 -18 18v424q0 23 8 34.5t30 21.5q76 29 181 31zM93 -205q-5 -18 -23 -18h-18q-16 0 -13 15l28 146q1 12 6 16t17 4h26q22 0 16 -20z" />
    <glyph glyph-name="Rcaron" unicode="&#x158;" horiz-adv-x="644" 
d="M467 901q11 0 13 -5t-4 -10l-122 -107q-17 -17 -34 -17h-8q-13 0 -18.5 2.5t-17.5 14.5l-122 107q-6 5 -4.5 10t12.5 5h26q18 0 29 -10l97 -83l96 83q10 10 30 10h27zM381 710q99 0 154.5 -54.5t55.5 -152.5q0 -82 -42.5 -133t-118.5 -63q39 -18 65 -69l112 -218
q13 -20 -10 -20h-33q-31 0 -39 18l-97 193q-24 48 -54.5 67.5t-88.5 19.5h-135v-278q0 -11 -4 -15.5t-15 -4.5h-33q-11 0 -15.5 4.5t-4.5 15.5v670q0 11 4.5 15.5t15.5 4.5h283zM516 503q0 67 -37 103t-105 36h-224v-276h224q67 0 104.5 35.5t37.5 101.5z" />
    <glyph glyph-name="rcaron" unicode="&#x159;" horiz-adv-x="342" 
d="M342 703q10 0 11.5 -5t-4.5 -10l-111 -99q-16 -15 -31 -15h-8q-17 0 -32 15l-113 100q-6 5 -4 9.5t11 4.5h25q17 0 26 -10l90 -76l87 76q10 10 28 10h25zM283 529h31q18 0 18 -18v-26q0 -18 -18 -18h-33q-75 0 -132 -21q-17 -7 -17 -26v-402q0 -18 -18 -18h-32
q-18 0 -18 18v424q0 23 8 34.5t30 21.5q76 29 181 31z" />
    <glyph glyph-name="Sacute" unicode="&#x15a;" horiz-adv-x="626" 
d="M374 907q22 13 34 -1l15 -18q13 -15 -3 -22l-177 -92q-17 -8 -23 1l-9 12q-11 13 1 20zM52 519q0 94 68 149.5t190 55.5q102 0 163 -37t100 -117q9 -17 -11 -26l-31 -14q-10 -4 -15 -2.5t-11 11.5q-30 60 -75.5 88t-119.5 28q-89 0 -136.5 -34t-47.5 -98q0 -30 12 -52
t29.5 -35t48 -22.5t54.5 -13.5t63 -8q44 -5 73 -10.5t66 -19t59 -33t37.5 -53.5t15.5 -80q0 -99 -70 -154.5t-202 -55.5q-107 0 -171.5 42t-99.5 130q-6 19 12 27l31 11q17 6 26 -12q55 -130 202 -130q199 0 199 140q0 30 -11.5 51.5t-27.5 34.5t-44.5 22t-51.5 12.5
t-60 7.5q-47 5 -76 10t-69 18.5t-63 33t-39.5 54t-16.5 81.5z" />
    <glyph glyph-name="sacute" unicode="&#x15b;" horiz-adv-x="496" 
d="M307 720q22 13 34 -1l14 -18q13 -14 -2 -22l-177 -92q-16 -7 -23 1l-10 12q-10 13 2 20zM46 379q0 70 50.5 110t146.5 40q156 0 204 -109q10 -18 -9 -26l-25 -11q-16 -7 -25 9q-17 38 -49.5 57t-94.5 19q-131 0 -131 -87q0 -23 8 -39.5t19 -25.5t33.5 -15t40 -8.5
t50.5 -5.5q46 -4 77 -11.5t60 -23t43.5 -43.5t14.5 -70q0 -72 -52 -112.5t-153 -40.5q-168 0 -216 124q-8 18 11 24l26 9q16 5 24 -11q33 -87 153 -87q141 0 141 91q0 49 -34.5 66.5t-110.5 25.5q-38 4 -60.5 7.5t-53 13.5t-47.5 25t-29 41.5t-12 63.5z" />
    <glyph glyph-name="Scircumflex" unicode="&#x15c;" horiz-adv-x="626" 
d="M321 911q18 0 35 -17l122 -107q13 -15 -9 -15h-27q-21 0 -30 10l-96 83l-97 -83q-11 -10 -29 -10h-26q-22 0 -9 15l123 107q11 12 17 14.5t19 2.5h7zM52 519q0 94 68 149.5t190 55.5q102 0 163 -37t100 -117q9 -17 -11 -26l-31 -14q-10 -4 -15 -2.5t-11 11.5
q-30 60 -75.5 88t-119.5 28q-89 0 -136.5 -34t-47.5 -98q0 -30 12 -52t29.5 -35t48 -22.5t54.5 -13.5t63 -8q44 -5 73 -10.5t66 -19t59 -33t37.5 -53.5t15.5 -80q0 -99 -70 -154.5t-202 -55.5q-107 0 -171.5 42t-99.5 130q-6 19 12 27l31 11q17 6 26 -12q55 -130 202 -130
q199 0 199 140q0 30 -11.5 51.5t-27.5 34.5t-44.5 22t-51.5 12.5t-60 7.5q-47 5 -76 10t-69 18.5t-63 33t-39.5 54t-16.5 81.5z" />
    <glyph glyph-name="scircumflex" unicode="&#x15d;" horiz-adv-x="496" 
d="M254 715q17 0 33 -16l120 -105q13 -15 -9 -15h-26q-19 0 -30 10l-93 81l-95 -81q-11 -10 -28 -10h-26q-22 0 -9 15l120 105q12 11 17.5 13.5t17.5 2.5h8zM46 379q0 70 50.5 110t146.5 40q156 0 204 -109q10 -18 -9 -26l-25 -11q-16 -7 -25 9q-17 38 -49.5 57t-94.5 19
q-131 0 -131 -87q0 -23 8 -39.5t19 -25.5t33.5 -15t40 -8.5t50.5 -5.5q46 -4 77 -11.5t60 -23t43.5 -43.5t14.5 -70q0 -72 -52 -112.5t-153 -40.5q-168 0 -216 124q-8 18 11 24l26 9q16 5 24 -11q33 -87 153 -87q141 0 141 91q0 49 -34.5 66.5t-110.5 25.5q-38 4 -60.5 7.5
t-53 13.5t-47.5 25t-29 41.5t-12 63.5z" />
    <glyph glyph-name="Scedilla" unicode="&#x15e;" horiz-adv-x="625" 
d="M333 392q44 -5 73 -10.5t66 -19t58.5 -33t37 -53.5t15.5 -80q0 -94 -61.5 -148t-179.5 -61l-23 -62q21 3 26 3q40 0 63.5 -22.5t21.5 -58.5q-3 -47 -35.5 -70.5t-83.5 -23.5q-48 0 -80 19q-12 5 -12 19v19q0 13 10 7q33 -23 74 -23q33 0 51 15t18 41q0 42 -60 42
q-18 0 -33 -3q-9 -1 -12 3t1 13l32 81q-102 2 -163.5 44t-95.5 128q-7 19 12 27l31 11q11 4 15.5 1.5t9.5 -13.5q57 -130 203 -130q198 0 198 140q0 30 -11.5 51.5t-27.5 34.5t-44.5 22t-51 12.5t-59.5 7.5q-39 4 -63.5 8t-59.5 13t-57 22.5t-43.5 33.5t-31.5 50.5t-10 69.5
q0 94 68 149.5t191 55.5q101 0 162.5 -37t99.5 -117q10 -18 -10 -26l-31 -14q-11 -4 -16 -2.5t-10 11.5q-30 60 -75.5 88t-119.5 28q-89 0 -136.5 -34t-47.5 -98q0 -30 12 -52t29.5 -35t48 -22.5t54.5 -13.5t63 -8z" />
    <glyph glyph-name="scedilla" unicode="&#x15f;" horiz-adv-x="496" 
d="M46 379q0 70 50.5 110t146.5 40q156 0 204 -109q10 -18 -9 -26l-25 -11q-16 -7 -25 9q-17 38 -49.5 57t-94.5 19q-131 0 -131 -87q0 -23 8 -39.5t19 -25.5t33.5 -15t40 -8.5t50.5 -5.5q46 -4 77 -11.5t60 -23t43.5 -43.5t14.5 -70q0 -68 -47 -108t-139 -45l-24 -63
q6 2 25 2q39 0 62 -21.5t21 -55.5q-2 -46 -34 -68t-82 -22q-48 0 -79 18q-11 5 -11 18v19q0 12 9 6q34 -22 73 -22q32 0 49.5 14.5t17.5 39.5q0 39 -58 41q-21 0 -33 -4q-9 -1 -11.5 3t1.5 13l33 82q-151 8 -194 124q-8 18 11 24l26 9q16 5 24 -11q33 -87 153 -87
q141 0 141 91q0 49 -34.5 66.5t-110.5 25.5q-38 4 -60.5 7.5t-53 13.5t-47.5 25t-29 41.5t-12 63.5z" />
    <glyph glyph-name="Scaron" unicode="&#x160;" horiz-adv-x="626" 
d="M467 910q22 0 9 -15l-122 -107q-16 -16 -34 -16h-8q-13 0 -18.5 2.5t-17.5 13.5l-122 107q-15 15 8 15h26q18 0 29 -10l97 -83l96 83q10 10 30 10h27zM52 519q0 94 68 149.5t190 55.5q102 0 163 -37t100 -117q9 -17 -11 -26l-31 -14q-10 -4 -15 -2.5t-11 11.5
q-30 60 -75.5 88t-119.5 28q-89 0 -136.5 -34t-47.5 -98q0 -30 12 -52t29.5 -35t48 -22.5t54.5 -13.5t63 -8q44 -5 73 -10.5t66 -19t59 -33t37.5 -53.5t15.5 -80q0 -99 -70 -154.5t-202 -55.5q-107 0 -171.5 42t-99.5 130q-6 19 12 27l31 11q17 6 26 -12q55 -130 202 -130
q199 0 199 140q0 30 -11.5 51.5t-27.5 34.5t-44.5 22t-51.5 12.5t-60 7.5q-47 5 -76 10t-69 18.5t-63 33t-39.5 54t-16.5 81.5z" />
    <glyph glyph-name="scaron" unicode="&#x161;" horiz-adv-x="496" 
d="M385 700q11 0 12.5 -5t-4.5 -10l-110 -96q-14 -15 -31 -15h-7q-17 0 -32 15l-111 97q-6 5 -4 9.5t11 4.5h25q16 0 25 -10l88 -75l87 75q10 10 27 10h24zM46 379q0 70 50.5 110t146.5 40q156 0 204 -109q10 -18 -9 -26l-25 -11q-16 -7 -25 9q-17 38 -49.5 57t-94.5 19
q-131 0 -131 -87q0 -23 8 -39.5t19 -25.5t33.5 -15t40 -8.5t50.5 -5.5q46 -4 77 -11.5t60 -23t43.5 -43.5t14.5 -70q0 -72 -52 -112.5t-153 -40.5q-168 0 -216 124q-8 18 11 24l26 9q16 5 24 -11q33 -87 153 -87q141 0 141 91q0 49 -34.5 66.5t-110.5 25.5q-38 4 -60.5 7.5
t-53 13.5t-47.5 25t-29 41.5t-12 63.5z" />
    <glyph glyph-name="Tcaron" unicode="&#x164;" horiz-adv-x="543" 
d="M423 901q11 0 13 -5t-4 -10l-122 -107q-17 -17 -34 -17h-8q-13 0 -18.5 2.5t-17.5 14.5l-122 107q-6 5 -4 10t13 5h26q18 0 28 -10l97 -83l96 83q10 10 30 10h27zM510 710q11 0 15.5 -4.5t4.5 -15.5v-28q0 -11 -4.5 -15.5t-15.5 -4.5h-202v-622q0 -11 -4.5 -15.5
t-15.5 -4.5h-33q-11 0 -15.5 4.5t-4.5 15.5v622h-202q-11 0 -15.5 4.5t-4.5 15.5v28q0 11 4.5 15.5t15.5 4.5h477z" />
    <glyph glyph-name="tcaron" unicode="&#x165;" horiz-adv-x="359" 
d="M323 572q-7 -17 -21 -17h-16q-8 0 -10.5 2.5t-1.5 10.5l27 154q1 11 5.5 14.5t16.5 3.5h27q23 0 17 -18zM167 634q11 0 14.5 -4t3.5 -14v-102h145q18 0 18 -18v-26q0 -18 -18 -18h-145v-260q0 -87 29.5 -114.5t113.5 -27.5q18 0 18 -19v-27q0 -10 -4 -14t-14 -4
q-117 -2 -163.5 41.5t-46.5 162.5v262h-95q-18 0 -18 18v26q0 18 18 18h95v102q0 18 18 18h31z" />
    <glyph glyph-name="Tbar" unicode="&#x166;" horiz-adv-x="565" 
d="M521 710q11 0 15.5 -4.5t4.5 -15.5v-28q0 -11 -4.5 -15.5t-15.5 -4.5h-202v-286h140q13 0 13 -14v-25q0 -9 -2.5 -11.5t-10.5 -2.5h-140v-283q0 -11 -4.5 -15.5t-15.5 -4.5h-33q-11 0 -15.5 4.5t-4.5 15.5v283h-140q-8 0 -10.5 2.5t-2.5 11.5v25q0 14 13 14h140v286h-202
q-11 0 -15.5 4.5t-4.5 15.5v28q0 11 4.5 15.5t15.5 4.5h477z" />
    <glyph glyph-name="tbar" unicode="&#x167;" horiz-adv-x="366" 
d="M174 635q18 0 18 -18v-102h144q18 0 18 -18v-27q0 -18 -18 -18h-144v-163h116q13 0 13 -14v-21q0 -14 -13 -14h-116v-49q0 -86 29.5 -113.5t113.5 -27.5q11 0 14.5 -4t3.5 -14v-27q0 -18 -18 -19q-118 -2 -164 41.5t-46 163.5v49h-86q-13 0 -13 14v21q0 14 13 14h86v163
h-95q-18 0 -18 18v27q0 18 18 18h95v102q0 18 18 18h31z" />
    <glyph glyph-name="Utilde" unicode="&#x168;" horiz-adv-x="682" 
d="M481 882q11 0 11 -12q0 -100 -78 -100q-36 0 -78.5 33.5t-67.5 33.5q-40 0 -40 -55q0 -12 -12 -12h-20q-12 0 -12 12q0 100 78 100q30 0 56 -17t48 -33.5t44 -16.5q40 0 40 55q0 12 11 12h20zM145 241q0 -89 49.5 -138.5t146.5 -49.5t146.5 49.5t49.5 138.5v449
q0 11 4.5 15.5t15.5 4.5h33q11 0 15.5 -4.5t4.5 -15.5v-448q0 -120 -69 -188.5t-200 -68.5t-200 68.5t-69 188.5v448q0 11 4.5 15.5t15.5 4.5h33q11 0 15.5 -4.5t4.5 -15.5v-449z" />
    <glyph glyph-name="utilde" unicode="&#x169;" 
d="M413 706q12 0 12 -12q0 -100 -78 -100q-36 0 -79 33.5t-68 33.5q-40 0 -40 -55q0 -12 -12 -12h-20q-12 0 -12 12q0 100 78 100q30 0 56 -17t48 -33.5t44 -16.5q40 0 40 55q0 12 11 12h20zM467 514q18 0 18 -18v-422q0 -23 -7.5 -34t-30.5 -21q-80 -33 -187 -33
q-198 0 -198 195v315q0 10 4 14t14 4h31q11 0 14.5 -4t3.5 -14v-312q0 -137 140 -137q75 0 130 22q18 8 18 28v399q0 18 18 18h32z" />
    <glyph glyph-name="Umacron" unicode="&#x16a;" horiz-adv-x="682" 
d="M459 850q10 0 13.5 -3.5t3.5 -13.5v-16q0 -10 -3.5 -13.5t-13.5 -3.5h-236q-10 0 -13.5 3.5t-3.5 13.5v16q0 17 17 17h236zM145 241q0 -89 49.5 -138.5t146.5 -49.5t146.5 49.5t49.5 138.5v449q0 11 4.5 15.5t15.5 4.5h33q11 0 15.5 -4.5t4.5 -15.5v-448
q0 -120 -69 -188.5t-200 -68.5t-200 68.5t-69 188.5v448q0 11 4.5 15.5t15.5 4.5h33q11 0 15.5 -4.5t4.5 -15.5v-449z" />
    <glyph glyph-name="umacron" unicode="&#x16b;" 
d="M391 671q10 0 13.5 -3.5t3.5 -13.5v-16q0 -10 -3.5 -13.5t-13.5 -3.5h-236q-10 0 -13.5 3.5t-3.5 13.5v16q0 17 17 17h236zM467 514q18 0 18 -18v-422q0 -23 -7.5 -34t-30.5 -21q-80 -33 -187 -33q-198 0 -198 195v315q0 10 4 14t14 4h31q11 0 14.5 -4t3.5 -14v-312
q0 -137 140 -137q75 0 130 22q18 8 18 28v399q0 18 18 18h32z" />
    <glyph glyph-name="Ubreve" unicode="&#x16c;" horiz-adv-x="682" 
d="M493 871q-33 -108 -152 -108t-151 108q-4 13 8 18l24 9q14 4 19 -7q21 -78 100 -78t101 78q5 11 16 7l27 -9q12 -5 8 -18zM145 241q0 -89 49.5 -138.5t146.5 -49.5t146.5 49.5t49.5 138.5v449q0 11 4.5 15.5t15.5 4.5h33q11 0 15.5 -4.5t4.5 -15.5v-448
q0 -120 -69 -188.5t-200 -68.5t-200 68.5t-69 188.5v448q0 11 4.5 15.5t15.5 4.5h33q11 0 15.5 -4.5t4.5 -15.5v-449z" />
    <glyph glyph-name="ubreve" unicode="&#x16d;" 
d="M425 692q-33 -109 -152 -109q-118 0 -151 109q-4 12 8 17l24 9q14 4 19 -7q21 -77 100 -77t101 77q5 11 16 8l27 -10q12 -5 8 -17zM467 514q18 0 18 -18v-422q0 -23 -7.5 -34t-30.5 -21q-80 -33 -187 -33q-198 0 -198 195v315q0 10 4 14t14 4h31q11 0 14.5 -4t3.5 -14
v-312q0 -137 140 -137q75 0 130 22q18 8 18 28v399q0 18 18 18h32z" />
    <glyph glyph-name="Uring" unicode="&#x16e;" horiz-adv-x="682" 
d="M242 841q0 44 28 71.5t74 27.5q45 0 72 -27.5t27 -71.5t-27 -71t-72 -27q-46 0 -74 27t-28 71zM407 841q0 29 -17 46t-46 17q-30 0 -48 -17t-18 -46t18 -46t48 -17q29 0 46 17t17 46zM145 241q0 -89 49.5 -138.5t146.5 -49.5t146.5 49.5t49.5 138.5v449q0 11 4.5 15.5
t15.5 4.5h33q11 0 15.5 -4.5t4.5 -15.5v-448q0 -120 -69 -188.5t-200 -68.5t-200 68.5t-69 188.5v448q0 11 4.5 15.5t15.5 4.5h33q11 0 15.5 -4.5t4.5 -15.5v-449z" />
    <glyph glyph-name="uring" unicode="&#x16f;" 
d="M175 647q0 44 28 71t75 27q45 0 72 -27t27 -71t-27 -71t-72 -27q-47 0 -75 27t-28 71zM341 647q0 29 -17.5 46t-45.5 17q-31 0 -49 -17t-18 -46t18 -46t49 -17q28 0 45.5 17t17.5 46zM467 514q18 0 18 -18v-422q0 -23 -7.5 -34t-30.5 -21q-80 -33 -187 -33
q-198 0 -198 195v315q0 10 4 14t14 4h31q11 0 14.5 -4t3.5 -14v-312q0 -137 140 -137q75 0 130 22q18 8 18 28v399q0 18 18 18h32z" />
    <glyph glyph-name="Uhungarumlaut" unicode="&#x170;" horiz-adv-x="682" 
d="M293 891q12 18 30 12l22 -6q19 -7 6 -20l-109 -107q-13 -12 -22 -7l-12 3q-15 5 -6 19zM466 891q13 18 30 12l24 -6q20 -8 6 -20l-114 -109q-13 -12 -23 -8l-11 4q-16 5 -6 19zM145 241q0 -89 49.5 -138.5t146.5 -49.5t146.5 49.5t49.5 138.5v449q0 11 4.5 15.5t15.5 4.5
h33q11 0 15.5 -4.5t4.5 -15.5v-448q0 -120 -69 -188.5t-200 -68.5t-200 68.5t-69 188.5v448q0 11 4.5 15.5t15.5 4.5h33q11 0 15.5 -4.5t4.5 -15.5v-449z" />
    <glyph glyph-name="uhungarumlaut" unicode="&#x171;" 
d="M225 707q12 17 30 12l22 -6q20 -7 6 -21l-109 -106q-13 -11 -22 -8l-12 4q-14 5 -6 19zM399 706q14 17 31 12l23 -7q22 -6 6 -20l-116 -106q-13 -12 -23 -8l-11 4q-15 5 -6 19zM467 514q18 0 18 -18v-422q0 -23 -7.5 -34t-30.5 -21q-80 -33 -187 -33q-198 0 -198 195v315
q0 10 4 14t14 4h31q11 0 14.5 -4t3.5 -14v-312q0 -137 140 -137q75 0 130 22q18 8 18 28v399q0 18 18 18h32z" />
    <glyph glyph-name="Uogonek" unicode="&#x172;" horiz-adv-x="682" 
d="M590 710q11 0 15.5 -4.5t4.5 -15.5v-448q0 -139 -89 -205q-65 -57 -100.5 -117t-25.5 -87q9 -28 39 -28q29 0 51 22q7 6 12 -3l8 -21q3 -9 -2 -14q-38 -36 -90 -36q-63 0 -77 52q-10 37 16 89t77 103q-37 -12 -88 -12q-131 0 -200 68.5t-69 188.5v448q0 11 4.5 15.5
t15.5 4.5h33q11 0 15.5 -4.5t4.5 -15.5v-449q0 -89 49.5 -138.5t146.5 -49.5t146.5 49.5t49.5 138.5v449q0 11 4.5 15.5t15.5 4.5h33z" />
    <glyph glyph-name="uogonek" unicode="&#x173;" 
d="M467 514q18 0 18 -18v-422q0 -29 -16 -42q-53 -51 -79.5 -110.5t-16.5 -88.5q10 -28 39 -28t51 22q9 7 12 -3l8 -21q4 -8 -1 -14q-39 -36 -90 -36q-65 0 -77 52q-11 38 12 94.5t72 104.5q-61 -18 -139 -18q-198 0 -198 195v315q0 10 4 14t14 4h31q11 0 14.5 -4t3.5 -14
v-312q0 -137 140 -137q75 0 130 22q18 8 18 28v399q0 18 18 18h32z" />
    <glyph glyph-name="Wcircumflex" unicode="&#x174;" horiz-adv-x="881" 
d="M449 901q12 0 17.5 -2.5t16.5 -13.5l123 -108q14 -14 -9 -14h-28q-20 0 -29 10l-96 82l-97 -82q-11 -10 -29 -10h-26q-23 0 -9 14l123 108q11 11 16.5 13.5t19.5 2.5h7zM844 710q19 0 13 -19l-178 -674q-5 -17 -26 -17h-31q-22 0 -26 16l-133 484q-11 42 -20 98h-4
q-5 -41 -20 -97l-135 -484q-5 -17 -25 -17h-32q-21 0 -25 16l-179 675q-4 19 13 19h40q13 0 18.5 -3.5t8.5 -14.5l122 -483q4 -18 10.5 -60t7.5 -47h4q14 83 21 107l133 472q5 18 27 18h31q22 0 27 -18l131 -473q7 -24 22 -106h4q11 72 18 105l122 485q2 11 7.5 14.5
t18.5 3.5h35z" />
    <glyph glyph-name="wcircumflex" unicode="&#x175;" horiz-adv-x="731" 
d="M372 714q18 0 34 -16l119 -105q14 -14 -9 -14h-26q-20 0 -30 10l-93 80l-95 -80q-11 -10 -28 -10h-26q-11 0 -13 4.5t4 9.5l121 105q11 11 16.5 13.5t18.5 2.5h7zM692 514q13 0 16 -4.5t-1 -16.5l-148 -480q-4 -16 -24 -16h-21q-20 0 -25 16l-103 327q-6 21 -12.5 51
t-7.5 34h-3q-2 -5 -8 -35t-12 -50l-103 -327q-5 -16 -24 -16h-21q-19 0 -24 16l-147 480q-4 12 -1 16.5t16 4.5h23q16 0 22.5 -3.5t8.5 -14.5l91 -310q5 -20 12.5 -58.5t9.5 -45.5h3q2 6 10.5 45t14.5 60l96 298q3 11 8 14.5t21 3.5h15q15 0 20 -3.5t9 -14.5l95 -295
q7 -23 15.5 -62t10.5 -46h3q2 6 9 44t14 62l90 308q3 12 9 15t23 3h20z" />
    <glyph glyph-name="Ycircumflex" unicode="&#x176;" horiz-adv-x="627" 
d="M320 901q12 0 17.5 -2.5t17.5 -13.5l122 -108q14 -14 -9 -14h-27q-21 0 -30 10l-96 82l-97 -82q-11 -10 -29 -10h-26q-23 0 -9 14l123 108q11 11 17 13.5t19 2.5h7zM601 710q10 0 13 -6t-3 -14l-261 -402v-268q0 -11 -4.5 -15.5t-15.5 -4.5h-33q-11 0 -15.5 4.5
t-4.5 15.5v269l-261 401q-6 8 -3 14t13 6h41q18 0 25 -3t13 -15l209 -329l211 329q6 12 13 15t25 3h38z" />
    <glyph glyph-name="ycircumflex" unicode="&#x177;" horiz-adv-x="551" 
d="M278 714q12 0 17.5 -2.5t16.5 -13.5l119 -105q14 -14 -9 -14h-26q-20 0 -29 10l-94 80l-95 -80q-11 -10 -28 -10h-26q-11 0 -12.5 4.5t4.5 9.5l120 105q11 11 16.5 13.5t18.5 2.5h7zM467 514q18 0 18 -18v-527q0 -216 -213 -216q-141 0 -199 107q-12 20 7 30l22 11
q18 10 29 -7q43 -80 140 -80q146 0 146 152v59q-88 -26 -157 -26q-198 0 -198 195v302q0 10 4 14t14 4h31q11 0 14.5 -4t3.5 -14v-299q0 -137 140 -137q64 0 148 27v409q0 18 18 18h32z" />
    <glyph glyph-name="Ydieresis" unicode="&#x178;" horiz-adv-x="627" 
d="M221 864q19 0 26 -7t7 -25v-8q0 -19 -7 -25.5t-26 -6.5h-6q-19 0 -26 6.5t-7 25.5v8q0 18 7 25t26 7h6zM415 864q19 0 26 -7t7 -25v-8q0 -19 -7 -25.5t-26 -6.5h-6q-19 0 -26 6.5t-7 25.5v8q0 18 7 25t26 7h6zM601 710q10 0 13 -6t-3 -14l-261 -402v-268
q0 -11 -4.5 -15.5t-15.5 -4.5h-33q-11 0 -15.5 4.5t-4.5 15.5v269l-261 401q-6 8 -3 14t13 6h41q18 0 25 -3t13 -15l209 -329l211 329q6 12 13 15t25 3h38z" />
    <glyph glyph-name="Zacute" unicode="&#x179;" horiz-adv-x="566" 
d="M345 898q23 11 34 -2l15 -18q5 -6 6.5 -9.5t-1 -6.5t-8.5 -5l-176 -93q-17 -6 -24 2l-9 11q-11 13 1 20zM506 710q11 0 15.5 -4.5t4.5 -15.5v-27q0 -12 -7 -22l-396 -573h393q20 0 20 -19v-29q0 -11 -4.5 -15.5t-15.5 -4.5h-464q-19 0 -19 20v27q0 15 7 23l395 572h-378
q-11 0 -15.5 4.5t-4.5 15.5v28q0 11 4.5 15.5t15.5 4.5h449z" />
    <glyph glyph-name="zacute" unicode="&#x17a;" horiz-adv-x="455" 
d="M286 720q22 11 33 -2l15 -18q5 -6 6.5 -9.5t-1 -6.5t-8.5 -5l-176 -93q-17 -6 -24 2l-9 11q-11 14 2 20zM407 61q18 0 18 -18v-25q0 -18 -18 -18h-358q-11 0 -14.5 4t-3.5 14v25q0 12 6 20l297 390h-282q-17 0 -17 18v25q0 10 3.5 14t13.5 4h350q10 0 14 -4t4 -14v-25
q0 -12 -7 -21l-297 -389h291z" />
    <glyph glyph-name="Zdotaccent" unicode="&#x17b;" horiz-adv-x="566" 
d="M290 862q20 0 27 -7t7 -27v-6q0 -19 -7 -26t-27 -7h-5q-20 0 -27 7t-7 26v6q0 20 7.5 27t26.5 7h5zM506 710q11 0 15.5 -4.5t4.5 -15.5v-27q0 -12 -7 -22l-396 -573h393q20 0 20 -19v-29q0 -11 -4.5 -15.5t-15.5 -4.5h-464q-19 0 -19 20v27q0 15 7 23l395 572h-378
q-11 0 -15.5 4.5t-4.5 15.5v28q0 11 4.5 15.5t15.5 4.5h449z" />
    <glyph glyph-name="zdotaccent" unicode="&#x17c;" horiz-adv-x="455" 
d="M230 683q20 0 27 -7.5t7 -26.5v-5q0 -20 -7 -27t-27 -7h-5q-20 0 -27 7t-7 27v5q0 19 7.5 26.5t26.5 7.5h5zM407 61q18 0 18 -18v-25q0 -18 -18 -18h-358q-11 0 -14.5 4t-3.5 14v25q0 12 6 20l297 390h-282q-17 0 -17 18v25q0 10 3.5 14t13.5 4h350q10 0 14 -4t4 -14v-25
q0 -12 -7 -21l-297 -389h291z" />
    <glyph glyph-name="Zcaron" unicode="&#x17d;" horiz-adv-x="566" 
d="M438 901q11 0 13 -5t-4 -10l-122 -107q-12 -12 -17.5 -14.5t-16.5 -2.5h-8q-13 0 -18.5 2.5t-16.5 14.5l-123 107q-6 5 -4 10t13 5h26q18 0 28 -10l98 -83l95 83q10 10 30 10h27zM506 710q11 0 15.5 -4.5t4.5 -15.5v-27q0 -12 -7 -22l-396 -573h393q20 0 20 -19v-29
q0 -11 -4.5 -15.5t-15.5 -4.5h-464q-19 0 -19 20v27q0 15 7 23l395 572h-378q-11 0 -15.5 4.5t-4.5 15.5v28q0 11 4.5 15.5t15.5 4.5h449z" />
    <glyph glyph-name="zcaron" unicode="&#x17e;" horiz-adv-x="455" 
d="M364 699q20 0 8 -14l-110 -97q-15 -15 -31 -15h-7q-17 0 -32 15l-111 97q-12 14 7 14h25q16 0 25 -10l88 -75l86 75q10 10 27 10h25zM407 61q18 0 18 -18v-25q0 -18 -18 -18h-358q-11 0 -14.5 4t-3.5 14v25q0 12 6 20l297 390h-282q-17 0 -17 18v25q0 10 3.5 14t13.5 4
h350q10 0 14 -4t4 -14v-25q0 -12 -7 -21l-297 -389h291z" />
    <glyph glyph-name="longs" unicode="&#x17f;" horiz-adv-x="260" 
d="M106 540q0 107 49 153.5t161 46.5q10 0 14 -4t4 -14v-26q0 -19 -18 -19q-81 0 -112 -31t-31 -111v-517q0 -10 -3.5 -14t-14.5 -4h-31q-18 0 -18 18v434h-78q-18 0 -18 18v26q0 10 4 14t14 4h78v26z" />
    <glyph glyph-name="florin" unicode="&#x192;" horiz-adv-x="445" 
d="M200 536q10 99 60.5 151.5t155.5 52.5q10 0 14 -4t4 -14v-26q0 -19 -18 -19q-73 0 -107 -36.5t-41 -107.5l-16 -144h137q11 0 14.5 -3.5t3.5 -14.5v-27q0 -18 -18 -18h-143l-37 -340q-20 -206 -216 -206q-11 0 -14.5 4t-3.5 14v26q0 19 18 19q73 0 107 37t42 108l36 338
h-129q-18 0 -18 18v27q0 11 3.5 14.5t14.5 3.5h136z" />
    <glyph glyph-name="Aringacute" unicode="&#x1fa;" horiz-adv-x="640" 
d="M379 957q22 9 33 -1l13 -15q11 -11 -3 -15l-167 -66q-16 -4 -22 2l-8 8q-9 11 7 18zM218 753q0 43 29 70t74 27q44 0 72 -27t28 -70q0 -27 -15 -47t-41 -28l263 -659q8 -19 -13 -19h-30q-30 0 -36 18l-76 195h-309l-77 -195q-6 -18 -36 -18h-26q-22 0 -14 19l264 659
q-57 18 -57 75zM382 755q0 26 -17.5 42.5t-43.5 16.5q-28 0 -46 -16.5t-18 -42.5q0 -24 18 -39.5t46 -15.5q26 0 43.5 15.5t17.5 39.5zM361 509q-11 29 -24 77t-16 56h-5q-2 -6 -14.5 -54t-24.5 -78l-92 -236h266z" />
    <glyph glyph-name="aringacute" unicode="&#x1fb;" horiz-adv-x="512" 
d="M308 890q21 9 32 -1l14 -13q11 -11 -3 -16l-165 -69q-16 -5 -22 1l-9 9q-10 8 1 15zM155 671q0 44 28 71.5t74 27.5q45 0 72 -27.5t27 -71.5t-27 -71t-72 -27q-46 0 -74 27t-28 71zM320 671q0 29 -17 46t-46 17q-30 0 -48 -17t-18 -46t18 -46t48 -17q29 0 46 17t17 46z
M54 424q56 105 201 105q111 0 155.5 -53.5t44.5 -144.5v-262q0 -26 -7.5 -37t-28.5 -20q-60 -26 -166 -26q-124 0 -170 37.5t-46 117.5q0 85 50.5 120t169.5 35q41 0 131 -10v46q0 65 -29.5 101t-105.5 36q-99 0 -140 -73q-11 -15 -25 -8l-24 10q-19 7 -10 26zM388 231
q-90 9 -138 9q-79 0 -111.5 -23t-32.5 -75q0 -51 29.5 -75.5t112.5 -24.5q76 0 121 16q12 5 15.5 10t3.5 19v144z" />
    <glyph glyph-name="AEacute" unicode="&#x1fc;" horiz-adv-x="831" 
d="M657 898q23 11 34 -2l14 -18q12 -15 -2 -21l-177 -93q-17 -6 -23 2l-10 11q-11 14 2 20zM774 68q19 0 19 -20v-28q0 -20 -19 -20h-332q-11 0 -15.5 4.5t-4.5 15.5v155h-249l-95 -157q-6 -11 -12.5 -14.5t-23.5 -3.5h-31q-21 0 -13 19l414 674q7 11 11.5 14t14.5 3h323
q11 0 15.5 -4.5t4.5 -15.5v-28q0 -11 -4.5 -15.5t-15.5 -4.5h-268v-249h223q11 0 15 -4.5t4 -15.5v-28q0 -11 -4 -15.5t-15 -4.5h-223v-257h281zM422 589l-213 -354h213v354z" />
    <glyph glyph-name="aeacute" unicode="&#x1fd;" horiz-adv-x="788" 
d="M448 725q23 12 34 -1l15 -18q12 -15 -3 -21l-176 -93q-16 -7 -24 1l-9 12q-10 13 1 20zM55 424q56 105 182 105q115 0 151 -87q43 87 161 87q101 0 149.5 -55.5t48.5 -150.5v-56q0 -28 -30 -28h-299v-59q0 -136 128 -136q52 0 80 20t52 62q12 16 30 7l20 -12q20 -9 7 -28
q-29 -53 -71.5 -80t-117.5 -27q-100 0 -144 60q-52 -60 -166 -60q-113 0 -155.5 36.5t-42.5 116.5q0 86 46 120.5t156 34.5q56 0 110 -9v55q0 62 -23.5 95.5t-91.5 33.5q-80 0 -121 -72q-10 -15 -25 -9l-24 10q-19 9 -10 26zM680 327q0 144 -131 144t-131 -144v-36h262v36z
M350 229q-67 10 -118 10q-71 0 -98.5 -23t-27.5 -76q0 -51 26 -74.5t98 -23.5q35 0 60.5 6.5t39 16.5t19 17.5t8.5 14.5q-7 28 -7 66v66z" />
    <glyph glyph-name="Oslashacute" unicode="&#x1fe;" horiz-adv-x="663" 
d="M394 908q23 11 34 -2l15 -18q5 -6 6.5 -9.5t-1 -6.5t-8.5 -5l-176 -93q-17 -6 -24 2l-9 11q-11 14 2 20zM610 751q8 0 4 -7l-65 -101q57 -63 57 -170v-236q0 -118 -71 -184t-203 -67q-105 -1 -174 44l-42 -65q-4 -7 -15 -7h-38q-9 0 -4 7l60 96q-62 64 -62 176v236
q0 118 71 184.5t204 66.5q113 0 180 -50l44 70q6 7 14 7h40zM473 614q-51 43 -141 43q-98 0 -150.5 -48t-52.5 -136v-236q0 -65 36 -106zM197 91q50 -38 135 -38q98 0 150 48t52 136v236q0 62 -30 98z" />
    <glyph glyph-name="oslashacute" unicode="&#x1ff;" horiz-adv-x="539" 
d="M327 720q23 11 34 -2l15 -18q12 -15 -3 -21l-176 -93q-18 -6 -24 2l-9 11q-12 13 1 20zM472 552q8 0 3 -7l-42 -67q57 -49 57 -133v-176q0 -86 -59 -134.5t-162 -48.5q-77 0 -130 29l-27 -44q-5 -6 -14 -6h-28q-4 0 -4.5 2.5t1.5 4.5l40 64q-57 49 -57 133v176
q0 86 58.5 135t160.5 49q77 0 131 -30l30 47q5 6 13 6h29zM366 445q-41 23 -97 23q-70 0 -111 -33t-41 -90v-176q0 -43 30 -70zM174 70q38 -23 95 -23q71 0 112 32.5t41 89.5v176q0 43 -29 70z" />
    <glyph glyph-name="Scommaaccent" unicode="&#x218;" horiz-adv-x="626" 
d="M52 519q0 94 68 149.5t190 55.5q102 0 163 -37t100 -117q9 -17 -11 -26l-31 -14q-10 -4 -15 -2.5t-11 11.5q-30 60 -75.5 88t-119.5 28q-89 0 -136.5 -34t-47.5 -98q0 -30 12 -52t29.5 -35t48 -22.5t54.5 -13.5t63 -8q44 -5 73 -10.5t66 -19t59 -33t37.5 -53.5t15.5 -80
q0 -99 -70 -154.5t-202 -55.5q-107 0 -171.5 42t-99.5 130q-6 19 12 27l31 11q17 6 26 -12q55 -130 202 -130q199 0 199 140q0 30 -11.5 51.5t-27.5 34.5t-44.5 22t-51.5 12.5t-60 7.5q-47 5 -76 10t-69 18.5t-63 33t-39.5 54t-16.5 81.5zM319 -237q-5 -17 -21 -17h-22
q-8 0 -10.5 2.5t-1.5 10.5l33 145q1 11 6 15t16 4h30q25 0 17 -20z" />
    <glyph glyph-name="scommaaccent" unicode="&#x219;" horiz-adv-x="496" 
d="M46 379q0 70 50.5 110t146.5 40q156 0 204 -109q10 -18 -9 -26l-25 -11q-16 -7 -25 9q-17 38 -49.5 57t-94.5 19q-131 0 -131 -87q0 -23 8 -39.5t19 -25.5t33.5 -15t40 -8.5t50.5 -5.5q46 -4 77 -11.5t60 -23t43.5 -43.5t14.5 -70q0 -72 -52 -112.5t-153 -40.5
q-168 0 -216 124q-8 18 11 24l26 9q16 5 24 -11q33 -87 153 -87q141 0 141 91q0 49 -34.5 66.5t-110.5 25.5q-38 4 -60.5 7.5t-53 13.5t-47.5 25t-29 41.5t-12 63.5zM256 -204q-5 -17 -23 -17h-17q-16 0 -13 14l29 137q1 12 6 16t17 4h26q23 0 15 -20z" />
    <glyph glyph-name="uni021A" unicode="&#x21a;" horiz-adv-x="543" 
d="M510 710q11 0 15.5 -4.5t4.5 -15.5v-28q0 -11 -4.5 -15.5t-15.5 -4.5h-202v-622q0 -11 -4.5 -15.5t-15.5 -4.5h-33q-11 0 -15.5 4.5t-4.5 15.5v622h-202q-11 0 -15.5 4.5t-4.5 15.5v28q0 11 4.5 15.5t15.5 4.5h477zM265 -232q-5 -17 -21 -17h-21q-9 0 -11.5 2.5
t-1.5 10.5l33 145q1 11 6.5 15t16.5 4h29q25 0 17 -20z" />
    <glyph glyph-name="uni021B" unicode="&#x21b;" horiz-adv-x="359" 
d="M167 634q11 0 14.5 -4t3.5 -14v-102h145q18 0 18 -18v-26q0 -18 -18 -18h-145v-260q0 -87 29.5 -114.5t113.5 -27.5q18 0 18 -19v-27q0 -10 -4 -14t-14 -4q-117 -2 -163.5 41.5t-46.5 162.5v262h-95q-18 0 -18 18v26q0 18 18 18h95v102q0 18 18 18h31zM213 -232
q-5 -17 -22 -17h-21q-9 0 -11.5 2.5t-0.5 10.5l33 145q1 19 22 19h30q23 0 17 -20z" />
    <glyph glyph-name="dotlessj" unicode="&#x237;" horiz-adv-x="201" 
d="M116 514q10 0 14 -4t4 -14v-505q0 -109 -49 -165t-159 -56q-10 0 -14 4t-4 14v26q0 19 18 19q78 0 109.5 39.5t31.5 119.5v504q0 10 3.5 14t14.5 4h31z" />
    <glyph glyph-name="circumflex" unicode="&#x2c6;" horiz-adv-x="378" 
d="M192 724q12 0 17.5 -2.5t16.5 -13.5l123 -107q13 -15 -9 -15h-28q-20 0 -29 10l-96 83l-97 -83q-11 -10 -29 -10h-26q-22 0 -9 15l123 107q11 12 16.5 14t19.5 2h7z" />
    <glyph glyph-name="caron" unicode="&#x2c7;" horiz-adv-x="332" 
d="M318 724q22 0 8 -16l-122 -107q-11 -11 -16.5 -13.5t-17.5 -2.5h-8q-13 0 -18.5 2.5t-16.5 13.5l-123 108q-6 5 -4.5 10t12.5 5h27q18 0 28 -11l98 -82l95 82q11 11 30 11h28z" />
    <glyph glyph-name="breve" unicode="&#x2d8;" horiz-adv-x="287" 
d="M290 698q-33 -109 -152 -109q-120 0 -151 109q-4 12 8 17l24 9q13 4 19 -7q21 -78 100 -78t101 78q4 11 16 7l27 -9q12 -5 8 -17z" />
    <glyph glyph-name="dotaccent" unicode="&#x2d9;" horiz-adv-x="216" 
d="M110 689q20 0 27 -7.5t7 -26.5v-6q0 -19 -7 -26.5t-27 -7.5h-4q-20 0 -27 7.5t-7 26.5v6q0 19 7 26.5t27 7.5h4z" />
    <glyph glyph-name="ring" unicode="&#x2da;" horiz-adv-x="240" 
d="M20 647q0 44 28 71t74 27q45 0 72 -27t27 -71t-27 -71t-72 -27q-46 0 -74 27t-28 71zM185 647q0 29 -17 46t-46 17q-31 0 -48.5 -17t-17.5 -46t17.5 -46t48.5 -17q29 0 46 17t17 46z" />
    <glyph glyph-name="ogonek" unicode="&#x2db;" horiz-adv-x="252" 
d="M190 0q-51 -47 -74 -93.5t-14 -73.5q9 -28 39 -28q29 0 51 22q8 6 12 -3l8 -21q4 -8 -2 -14q-38 -36 -89 -36q-64 0 -78 52q-12 41 14.5 94t84.5 101h48z" />
    <glyph glyph-name="tilde" unicode="&#x2dc;" horiz-adv-x="305" 
d="M295 711q12 0 12 -12q0 -99 -78 -99q-36 0 -79 33.5t-68 33.5q-40 0 -40 -55q0 -12 -12 -12h-20q-12 0 -12 12q0 99 78 99q30 0 56 -16.5t48 -33.5t44 -17q40 0 40 55q0 12 11 12h20z" />
    <glyph glyph-name="hungarumlaut" unicode="&#x2dd;" horiz-adv-x="395" 
d="M147 713q12 17 31 12l21 -7q20 -6 6 -20l-109 -106q-12 -12 -22 -8l-12 4q-16 4 -5 18zM321 712q14 17 31 12l23 -7q22 -6 6 -20l-116 -106q-12 -12 -23 -8l-11 4q-16 4 -6 18z" />
    <glyph glyph-name="uni0326" unicode="&#x326;" horiz-adv-x="0" 
d="M121 -232q-5 -17 -21 -17h-22q-15 0 -12 13l33 145q1 11 6 15t16 4h30q25 0 17 -20z" />
    <glyph glyph-name="pi" unicode="&#x3c0;" horiz-adv-x="617" 
d="M579 514q18 0 18 -18v-25q0 -19 -18 -19h-57v-306q0 -64 25 -108q9 -19 -9 -27l-26 -11q-17 -8 -26 9q-31 57 -31 140v303h-248v-434q0 -10 -3.5 -14t-14.5 -4h-31q-10 0 -14 4t-4 14v434q-50 -1 -95 -27q-18 -8 -25 7l-11 25q-7 16 9 24q61 33 147 33h414z" />
    <glyph glyph-name="uni0401" unicode="&#x401;" horiz-adv-x="573" 
d="M208 855q19 0 26 -7t7 -25v-8q0 -18 -7 -25t-26 -7h-6q-19 0 -26 7t-7 25v8q0 18 7 25t26 7h6zM402 855q19 0 26 -7t7 -25v-8q0 -18 -7 -25t-26 -7h-6q-19 0 -26 7t-7 25v8q0 18 7 25t26 7h6zM503 710q19 0 19 -20v-28q0 -20 -19 -20h-353v-248h308q19 0 19 -20v-28
q0 -20 -19 -20h-308v-258h366q19 0 19 -20v-28q0 -20 -19 -20h-418q-11 0 -15.5 4.5t-4.5 15.5v670q0 11 4.5 15.5t15.5 4.5h405z" />
    <glyph glyph-name="uni0410" unicode="&#x410;" horiz-adv-x="641" 
d="M629 19q8 -19 -14 -19h-29q-31 0 -36 18l-75 190h-313l-75 -190q-3 -11 -10 -14.5t-25 -3.5h-27q-21 0 -13 19l268 677q6 17 25 17h30q20 0 26 -16zM335 575q-14 40 -14 69h-5q0 -32 -12 -69l-121 -307h272z" />
    <glyph glyph-name="uni0411" unicode="&#x411;" horiz-adv-x="628" 
d="M524 710q11 0 15.5 -4.5t4.5 -15.5v-28q0 -11 -4.5 -15.5t-15.5 -4.5h-374v-232h236q97 0 153 -54t56 -151q0 -96 -56 -150.5t-153 -54.5h-289q-11 0 -15 4t-4 15v671q0 11 4.5 15.5t15.5 4.5h426zM519 205q0 65 -37 101.5t-103 36.5h-229v-275h229q66 0 103 36t37 101z
" />
    <glyph glyph-name="uni0412" unicode="&#x412;" horiz-adv-x="643" 
d="M380 710q92 0 142.5 -47t50.5 -135q0 -119 -94 -160v-2q119 -31 119 -175q0 -91 -56 -141t-151 -50h-293q-11 0 -15.5 4.5t-4.5 15.5v670q0 11 4.5 15.5t15.5 4.5h282zM499 519q0 123 -128 123h-221v-248h221q62 0 95 31.5t33 93.5zM522 198q0 64 -34.5 97.5t-99.5 33.5
h-238v-261h238q65 0 99.5 33t34.5 97z" />
    <glyph glyph-name="uni0413" unicode="&#x413;" horiz-adv-x="512" 
d="M476 710q11 0 15.5 -4.5t4.5 -15.5v-28q0 -11 -4.5 -15.5t-15.5 -4.5h-326v-622q0 -11 -4 -15.5t-15 -4.5h-33q-11 0 -15.5 4.5t-4.5 15.5v670q0 11 4.5 15.5t15.5 4.5h378z" />
    <glyph glyph-name="uni0414" unicode="&#x414;" horiz-adv-x="712" 
d="M589 710q11 0 15.5 -4.5t4.5 -15.5v-622h63q11 0 15.5 -4.5t4.5 -15.5v-181q0 -11 -4.5 -15.5t-15.5 -4.5h-32q-11 0 -15 4.5t-4 15.5v133h-535v-133q0 -20 -19 -20h-32q-11 0 -15.5 4.5t-4.5 15.5v181q0 11 4.5 15.5t15.5 4.5h35q21 14 36 34t32.5 63.5t26.5 124.5
t9 197v203q0 11 4.5 15.5t15.5 4.5h395zM244 642v-155q0 -192 -23.5 -283.5t-62.5 -135.5h378v574h-292z" />
    <glyph glyph-name="uni0415" unicode="&#x415;" horiz-adv-x="573" 
d="M503 710q19 0 19 -20v-28q0 -20 -19 -20h-353v-248h308q19 0 19 -20v-28q0 -20 -19 -20h-308v-258h366q19 0 19 -20v-28q0 -20 -19 -20h-418q-11 0 -15.5 4.5t-4.5 15.5v670q0 11 4.5 15.5t15.5 4.5h405z" />
    <glyph glyph-name="uni0416" unicode="&#x416;" horiz-adv-x="917" 
d="M876 710q10 0 12.5 -6t-3.5 -13l-215 -321q60 -24 100 -103l126 -247q13 -20 -10 -20h-33q-31 0 -39 18l-111 222q-24 48 -54.5 67.5t-88.5 19.5h-65v-307q0 -11 -4.5 -15.5t-15.5 -4.5h-33q-11 0 -15.5 4.5t-4.5 15.5v307h-64q-58 0 -88.5 -19.5t-55.5 -67.5l-111 -222
q-8 -18 -39 -18h-33q-23 0 -10 20l126 247q40 79 100 103l-215 321q-13 19 10 19h36q18 0 25.5 -3t14.5 -14l199 -302q13 2 41 2h64v297q0 11 4.5 15.5t15.5 4.5h33q11 0 15.5 -4.5t4.5 -15.5v-297h65q28 0 40 -2l199 302q7 11 14.5 14t25.5 3h37z" />
    <glyph glyph-name="uni0417" unicode="&#x417;" horiz-adv-x="620" 
d="M553 525q0 -119 -91 -157q113 -39 113 -174q0 -99 -63.5 -153.5t-190.5 -54.5q-120 0 -187.5 44t-94.5 130q-4 11 -1.5 16.5t13.5 9.5l31 11q18 7 26 -13q21 -67 69.5 -99t143.5 -32q90 0 134 37.5t44 106.5q0 61 -33.5 97t-96.5 36h-173q-19 0 -19 19v27q0 20 19 20h165
q59 0 89 34.5t30 88.5q0 67 -41.5 102.5t-121.5 35.5q-90 0 -136 -30.5t-67 -97.5q-7 -17 -26 -12l-31 11q-19 7 -12 25q27 86 92.5 128.5t183.5 42.5q114 0 173 -52t59 -147z" />
    <glyph glyph-name="uni0418" unicode="&#x418;" horiz-adv-x="694" 
d="M596 710q11 0 15.5 -4.5t4.5 -15.5v-670q0 -11 -4.5 -15.5t-15.5 -4.5h-33q-11 0 -15.5 4.5t-4.5 15.5v393q0 97 13 204h-2q-36 -69 -107 -177l-295 -429q-7 -11 -21 -11h-33q-11 0 -15.5 4.5t-4.5 15.5v670q0 11 4.5 15.5t15.5 4.5h33q11 0 15 -4.5t4 -15.5v-382
q0 -111 -12 -215h3q43 84 113 188l288 419q7 10 21 10h33z" />
    <glyph glyph-name="uni0419" unicode="&#x419;" horiz-adv-x="694" 
d="M514 875q-36 -108 -164 -108q-127 0 -163 108q-4 13 9 17l26 9q15 4 20 -7q24 -77 108 -77t109 77q4 11 17 8l29 -10q12 -6 9 -17zM596 710q11 0 15.5 -4.5t4.5 -15.5v-670q0 -11 -4.5 -15.5t-15.5 -4.5h-33q-11 0 -15.5 4.5t-4.5 15.5v393q0 97 13 204h-2
q-36 -69 -107 -177l-295 -429q-7 -11 -21 -11h-33q-11 0 -15.5 4.5t-4.5 15.5v670q0 11 4.5 15.5t15.5 4.5h33q11 0 15 -4.5t4 -15.5v-382q0 -111 -12 -215h3q43 84 113 188l288 419q7 10 21 10h33z" />
    <glyph glyph-name="uni041A" unicode="&#x41a;" horiz-adv-x="609" 
d="M589 20q11 -20 -11 -20h-32q-19 0 -26.5 3.5t-13.5 14.5l-111 222q-24 48 -54.5 67.5t-88.5 19.5h-102v-307q0 -11 -4 -15.5t-15 -4.5h-33q-11 0 -15.5 4.5t-4.5 15.5v670q0 11 4.5 15.5t15.5 4.5h33q11 0 15 -4.5t4 -15.5v-297h96h22l224 300q13 17 40 17h36
q11 0 13.5 -6t-3.5 -13l-237 -312q75 -21 121 -112z" />
    <glyph glyph-name="uni041B" unicode="&#x41b;" horiz-adv-x="656" 
d="M558 710q11 0 15.5 -4.5t4.5 -15.5v-670q0 -11 -4.5 -15.5t-15.5 -4.5h-33q-11 0 -15 4.5t-4 15.5v622h-288v-177q0 -112 -9.5 -193t-23 -127.5t-39 -79.5t-45 -46t-54.5 -30q-18 -9 -26 9l-15 29q-9 17 10 27q27 14 41 23.5t34.5 37.5t30.5 67.5t17.5 111t7.5 170.5v226
q0 20 19 20h392z" />
    <glyph glyph-name="uni041C" unicode="&#x41c;" horiz-adv-x="800" 
d="M703 710q11 0 15.5 -4.5t4.5 -15.5v-670q0 -11 -4.5 -15.5t-15.5 -4.5h-30q-11 0 -15.5 4.5t-4.5 15.5l1 408q0 92 12 177h-4q-32 -76 -77 -156l-152 -268q-7 -15 -23 -15h-20q-16 0 -24 15l-154 271q-37 63 -73 154h-4q11 -91 11 -179v-407q0 -11 -4.5 -15.5t-15.5 -4.5
h-28q-11 0 -15.5 4.5t-4.5 15.5v670q0 11 4.5 15.5t15.5 4.5h26q19 0 28 -16l248 -439l246 438q6 11 11 14t17 3h29z" />
    <glyph glyph-name="uni041D" unicode="&#x41d;" horiz-adv-x="681" 
d="M584 710q19 0 19 -20v-670q0 -20 -19 -20h-33q-11 0 -15.5 4.5t-4.5 15.5v306h-381v-306q0 -11 -4 -15.5t-15 -4.5h-33q-11 0 -15.5 4.5t-4.5 15.5v670q0 11 4.5 15.5t15.5 4.5h33q11 0 15 -4.5t4 -15.5v-296h381v296q0 11 4.5 15.5t15.5 4.5h33z" />
    <glyph glyph-name="uni041E" unicode="&#x41e;" horiz-adv-x="663" 
d="M57 473q0 118 71 184.5t204 66.5q132 0 203 -66.5t71 -184.5v-236q0 -118 -71 -184.5t-203 -66.5q-133 0 -204 66.5t-71 184.5v236zM534 473q0 88 -52 136t-150 48t-150.5 -48t-52.5 -136v-236q0 -88 52.5 -136t150.5 -48t150 48t52 136v236z" />
    <glyph glyph-name="uni041F" unicode="&#x41f;" horiz-adv-x="675" 
d="M578 710q19 0 19 -20v-670q0 -20 -19 -20h-34q-19 0 -19 20v622h-375v-622q0 -11 -4 -15.5t-15 -4.5h-33q-11 0 -15.5 4.5t-4.5 15.5v670q0 11 4.5 15.5t15.5 4.5h480z" />
    <glyph glyph-name="uni0420" unicode="&#x420;" horiz-adv-x="622" 
d="M365 710q105 0 165.5 -59t60.5 -163t-60.5 -162.5t-165.5 -58.5h-215v-247q0 -11 -4 -15.5t-15 -4.5h-33q-11 0 -15.5 4.5t-4.5 15.5v670q0 11 4.5 15.5t15.5 4.5h267zM359 334q73 0 115 41t42 113t-42 113t-115 41h-209v-308h209z" />
    <glyph glyph-name="uni0421" unicode="&#x421;" horiz-adv-x="636" 
d="M57 473q0 118 70.5 184.5t203.5 66.5q112 0 175.5 -42.5t90.5 -128.5q4 -11 1.5 -16.5t-13.5 -9.5l-31 -11q-19 -5 -26 12q-21 67 -66.5 98t-130.5 31q-98 0 -149.5 -48t-51.5 -135v-238q0 -86 52 -134.5t149 -48.5q86 0 132 32t67 100q8 18 26 13l31 -12q18 -7 12 -25
q-27 -87 -91 -131t-177 -44q-131 0 -202.5 66.5t-71.5 184.5v236z" />
    <glyph glyph-name="uni0422" unicode="&#x422;" horiz-adv-x="543" 
d="M510 710q11 0 15.5 -4.5t4.5 -15.5v-28q0 -11 -4.5 -15.5t-15.5 -4.5h-202v-622q0 -11 -4.5 -15.5t-15.5 -4.5h-33q-11 0 -15.5 4.5t-4.5 15.5v622h-202q-11 0 -15.5 4.5t-4.5 15.5v28q0 11 4.5 15.5t15.5 4.5h477z" />
    <glyph glyph-name="uni0423" unicode="&#x423;" horiz-adv-x="593" 
d="M571 710q20 0 11 -20l-330 -672q-5 -11 -11.5 -14.5t-21.5 -3.5h-38q-21 0 -11 20l94 183l-257 487q-9 20 11 20h34q18 0 25 -3t13 -15l212 -409l201 409q6 12 11.5 15t23.5 3h33z" />
    <glyph glyph-name="uni0424" unicode="&#x424;" horiz-adv-x="828" 
d="M430 735q11 0 15.5 -4.5t4.5 -15.5v-65h63q131 0 200.5 -67t69.5 -187v-77q0 -120 -69.5 -187t-200.5 -67h-63v-65q0 -11 -4.5 -15.5t-15.5 -4.5h-33q-11 0 -15 4.5t-4 15.5v65h-64q-131 0 -200.5 67t-69.5 187v77q0 120 69.5 187t200.5 67h64v65q0 11 4 15.5t15 4.5h33z
M314 585q-96 0 -146.5 -48.5t-50.5 -137.5v-83q0 -89 50.5 -137.5t146.5 -48.5h64v455h-64zM710 399q0 89 -50.5 137.5t-146.5 48.5h-63v-455h63q96 0 146.5 48.5t50.5 137.5v83z" />
    <glyph glyph-name="uni0425" unicode="&#x425;" horiz-adv-x="617" 
d="M600 21q6 -8 4 -14.5t-14 -6.5h-40q-18 0 -25 3t-13 15l-206 287l-203 -287q-7 -12 -14 -15t-24 -3h-38q-11 0 -13 6.5t4 14.5l244 340l-237 330q-5 7 -2.5 13t12.5 6h40q16 0 23 -3t15 -14l196 -275l197 275q7 11 13.5 14t22.5 3h40q10 0 12.5 -6t-2.5 -13l-238 -330z
" />
    <glyph glyph-name="uni0426" unicode="&#x426;" horiz-adv-x="696" 
d="M655 68q11 0 15.5 -4.5t4.5 -15.5v-181q0 -11 -4.5 -15.5t-15.5 -4.5h-30q-11 0 -15.5 4.5t-4.5 15.5v133h-507q-11 0 -15.5 4.5t-4.5 15.5v670q0 11 4.5 15.5t15.5 4.5h33q11 0 15 -4.5t4 -15.5v-622h371v622q0 11 4.5 15.5t15.5 4.5h33q19 0 19 -20v-622h62z" />
    <glyph glyph-name="uni0427" unicode="&#x427;" horiz-adv-x="629" 
d="M531 710q11 0 15.5 -4.5t4.5 -15.5v-670q0 -11 -4.5 -15.5t-15.5 -4.5h-33q-11 0 -15 4.5t-4 15.5v267q-85 -20 -186 -20q-134 0 -193.5 61.5t-59.5 183.5v178q0 11 4.5 15.5t15.5 4.5h33q11 0 15.5 -4.5t4.5 -15.5v-178q0 -89 42.5 -133t140.5 -44q116 0 183 21v334
q0 11 4 15.5t15 4.5h33z" />
    <glyph glyph-name="uni0428" unicode="&#x428;" horiz-adv-x="912" 
d="M814 710q11 0 15.5 -4.5t4.5 -15.5v-670q0 -11 -4.5 -15.5t-15.5 -4.5h-716q-11 0 -15.5 4.5t-4.5 15.5v670q0 11 4.5 15.5t15.5 4.5h33q11 0 15 -4.5t4 -15.5v-622h269v622q0 11 4.5 15.5t15.5 4.5h33q11 0 15.5 -4.5t4.5 -15.5v-622h269v622q0 11 4.5 15.5t15.5 4.5h33
z" />
    <glyph glyph-name="uni0429" unicode="&#x429;" horiz-adv-x="937" 
d="M897 68q11 0 15 -4.5t4 -15.5v-181q0 -11 -4 -15.5t-15 -4.5h-31q-11 0 -15 4.5t-4 15.5v133h-749q-11 0 -15.5 4.5t-4.5 15.5v670q0 11 4.5 15.5t15.5 4.5h33q11 0 15 -4.5t4 -15.5v-622h269v622q0 11 4.5 15.5t15.5 4.5h33q11 0 15.5 -4.5t4.5 -15.5v-622h269v622
q0 11 4.5 15.5t15.5 4.5h33q11 0 15.5 -4.5t4.5 -15.5v-622h63z" />
    <glyph glyph-name="uni042A" unicode="&#x42a;" horiz-adv-x="729" 
d="M472 443q105 0 165.5 -58.5t60.5 -162.5t-60.5 -163t-165.5 -59h-268q-11 0 -15 4.5t-4 15.5v622h-152q-11 0 -15.5 4.5t-4.5 15.5v28q0 11 4.5 15.5t15.5 4.5h204q11 0 15.5 -4.5t4.5 -15.5v-247h215zM465 68q74 0 115.5 40.5t41.5 113.5t-41.5 113.5t-115.5 40.5h-208
v-308h208z" />
    <glyph glyph-name="uni042B" unicode="&#x42b;" horiz-adv-x="863" 
d="M98 0q-11 0 -15.5 4.5t-4.5 15.5v670q0 11 4.5 15.5t15.5 4.5h33q11 0 15 -4.5t4 -15.5v-247h215q105 0 165.5 -58.5t60.5 -162.5t-60.5 -163t-165.5 -59h-267zM712 690q0 11 4.5 15.5t15.5 4.5h33q11 0 15.5 -4.5t4.5 -15.5v-670q0 -11 -4.5 -15.5t-15.5 -4.5h-33
q-11 0 -15.5 4.5t-4.5 15.5v670zM150 376v-308h209q73 0 115 41t42 113t-42 113t-115 41h-209z" />
    <glyph glyph-name="uni042C" unicode="&#x42c;" horiz-adv-x="622" 
d="M98 0q-11 0 -15.5 4.5t-4.5 15.5v670q0 11 4.5 15.5t15.5 4.5h33q11 0 15 -4.5t4 -15.5v-247h215q105 0 165.5 -58.5t60.5 -162.5t-60.5 -163t-165.5 -59h-267zM150 376v-308h209q73 0 115 41t42 113t-42 113t-115 41h-209z" />
    <glyph glyph-name="uni042D" unicode="&#x42d;" horiz-adv-x="640" 
d="M43 553q27 86 90.5 128.5t175.5 42.5q133 0 204 -66t71 -184v-237q0 -118 -71.5 -184.5t-203.5 -66.5q-113 0 -177 44t-91 130q-6 19 13 26l31 11q18 7 25 -13q22 -67 68 -99t131 -32q97 0 149 48.5t52 134.5v89h-299q-11 0 -15.5 4.5t-4.5 15.5v28q0 11 4.5 15.5
t15.5 4.5h299v82q0 87 -51 134.5t-150 47.5q-85 0 -130.5 -30.5t-66.5 -97.5q-6 -17 -26 -12l-31 11q-18 7 -12 25z" />
    <glyph glyph-name="uni042E" unicode="&#x42e;" horiz-adv-x="921" 
d="M324 474q0 118 70 184t201 66q130 0 199.5 -66t69.5 -184v-238q0 -118 -69.5 -184t-199.5 -66q-131 0 -201 66t-70 184v90h-174v-306q0 -11 -4 -15.5t-15 -4.5h-33q-11 0 -15.5 4.5t-4.5 15.5v670q0 11 4.5 15.5t15.5 4.5h33q11 0 15 -4.5t4 -15.5v-296h174v80zM792 474
q0 88 -51 135.5t-146 47.5q-96 0 -147 -47.5t-51 -135.5v-238q0 -88 51 -135.5t147 -47.5q95 0 146 47.5t51 135.5v238z" />
    <glyph glyph-name="uni042F" unicode="&#x42f;" horiz-adv-x="642" 
d="M51 503q0 98 56 152.5t154 54.5h284q11 0 15.5 -4.5t4.5 -15.5v-670q0 -11 -4.5 -15.5t-15.5 -4.5h-33q-11 0 -15.5 4.5t-4.5 15.5v278h-138q-58 0 -89 -19.5t-53 -67.5l-90 -193q-5 -11 -13 -14.5t-27 -3.5h-32q-21 0 -10 20l105 218q23 51 60 69q-74 14 -114 64
t-40 132zM268 642q-68 0 -104.5 -36t-36.5 -103q0 -66 37 -101.5t104 -35.5h224v276h-224z" />
    <glyph glyph-name="uni0430" unicode="&#x430;" horiz-adv-x="512" 
d="M54 424q56 105 201 105q111 0 155.5 -53.5t44.5 -144.5v-262q0 -26 -7.5 -37t-28.5 -20q-60 -26 -166 -26q-124 0 -170 37.5t-46 117.5q0 85 50.5 120t169.5 35q41 0 131 -10v46q0 65 -29.5 101t-105.5 36q-99 0 -140 -73q-11 -15 -25 -8l-24 10q-19 7 -10 26zM388 231
q-90 9 -138 9q-79 0 -111.5 -23t-32.5 -75q0 -51 29.5 -75.5t112.5 -24.5q76 0 121 16q12 5 15.5 10t3.5 19v144z" />
    <glyph glyph-name="uni0431" unicode="&#x431;" horiz-adv-x="553" 
d="M368 732q54 0 78 13q18 9 26 -12l8 -23q3 -11 1 -15t-12 -10q-31 -16 -99 -16h-36q-121 0 -165 -48.5t-44 -174.5v-21q52 79 171 79q100 0 154.5 -52t54.5 -143v-128q0 -92 -56.5 -143.5t-165.5 -51.5q-107 0 -164 51.5t-57 143.5v248q0 164 59.5 233.5t211.5 69.5h35z
M437 309q0 64 -39 99t-115 35q-68 0 -107.5 -32.5t-45.5 -66.5v-163q0 -64 39 -99t114 -35q76 0 115 35t39 99v128z" />
    <glyph glyph-name="uni0432" unicode="&#x432;" horiz-adv-x="533" 
d="M473 380q0 -80 -61 -111q79 -34 79 -127q0 -66 -39.5 -104t-108.5 -38h-258q-19 0 -19 19v477q0 18 19 18h245q68 0 105.5 -35.5t37.5 -98.5zM323 293q37 0 59.5 22t22.5 60q0 82 -86 82h-185v-164h189zM331 58q43 0 66.5 23.5t23.5 66.5q0 42 -24 65.5t-68 23.5h-195
v-179h197z" />
    <glyph glyph-name="uni0433" unicode="&#x433;" horiz-adv-x="425" 
d="M392 514q10 0 14 -4t4 -14v-26q0 -18 -18 -18h-258v-434q0 -18 -18 -18h-32q-18 0 -18 18v478q0 18 18 18h308z" />
    <glyph glyph-name="uni0434" unicode="&#x434;" horiz-adv-x="594" 
d="M557 62q11 0 14.5 -4t3.5 -14v-165q0 -11 -3.5 -14.5t-14.5 -3.5h-29q-18 0 -18 18v121h-428v-121q0 -18 -19 -18h-29q-18 0 -18 18v165q0 18 18 18h30q34 28 52.5 85.5t18.5 193.5v155q0 10 3.5 14t14.5 4h331q18 0 18 -18v-434h55zM200 337q0 -204 -57 -275h291v390
h-234v-115z" />
    <glyph glyph-name="uni0435" unicode="&#x435;" horiz-adv-x="530" 
d="M47 318q0 100 56.5 155.5t164.5 55.5q109 0 165.5 -56.5t56.5 -150.5v-55q0 -28 -30 -28h-346v-58q0 -65 38.5 -101t111.5 -36q111 0 157 83q12 16 29 7l21 -11q19 -10 7 -29q-60 -108 -214 -108q-109 0 -163 54t-54 148v130zM423 326q0 68 -39.5 106.5t-115.5 38.5
q-75 0 -114.5 -38.5t-39.5 -106.5v-35h309v35z" />
    <glyph glyph-name="uni0436" unicode="&#x436;" horiz-adv-x="745" 
d="M387 514q11 0 15 -3.5t4 -14.5v-201h69q13 0 19 -1l142 206q6 9 12.5 11.5t23.5 2.5h28q26 0 11 -21l-154 -217q42 -16 72 -75l90 -180q6 -11 4 -16t-15 -5h-30q-15 0 -20.5 3t-9.5 13l-76 156q-15 32 -37.5 46.5t-60.5 14.5h-68v-214q0 -11 -4 -15t-15 -4h-29
q-11 0 -15 4t-4 15v214h-68q-38 0 -60.5 -14.5t-37.5 -46.5l-76 -156q-4 -10 -9.5 -13t-20.5 -3h-30q-13 0 -15 5t4 16l90 180q30 59 72 75l-154 217q-14 21 11 21h28q17 0 23.5 -2.5t12.5 -11.5l142 -206q6 1 19 1h69v201q0 11 4 14.5t15 3.5h29z" />
    <glyph glyph-name="uni0437" unicode="&#x437;" horiz-adv-x="513" 
d="M41 398q4 12 12 26t25.5 33.5t40.5 34.5t59.5 26t79.5 11q103 0 152.5 -41t49.5 -108q0 -86 -72 -112v-4q82 -26 82 -126q0 -70 -50.5 -111t-157.5 -41q-56 0 -100 15.5t-70 40.5t-38.5 43.5t-20.5 37.5q-7 19 13 25l26 9q19 5 26 -13q42 -99 164 -99q71 0 105 26.5
t34 72.5q0 90 -101 90h-109q-18 0 -18 19v19q0 19 18 19h104q46 0 71 22t25 61q0 43 -32 69t-100 26q-40 0 -71 -11.5t-48 -30t-24 -29.5t-11 -22q-7 -19 -26 -13l-26 9q-19 6 -12 26z" />
    <glyph glyph-name="uni0438" unicode="&#x438;" horiz-adv-x="562" 
d="M116 514q18 0 18 -18v-289q0 -56 -11 -117h2q22 42 52 82l252 333q6 9 17 9h32q18 0 18 -18v-478q0 -18 -18 -18h-32q-18 0 -18 18v283q0 48 12 122h-3q-14 -27 -55 -85l-248 -328q-6 -10 -18 -10h-32q-18 0 -18 18v478q0 18 18 18h32z" />
    <glyph glyph-name="uni0439" unicode="&#x439;" horiz-adv-x="562" 
d="M436 698q-33 -109 -152 -109q-120 0 -151 109q-4 12 8 17l24 9q14 4 19 -7q21 -78 100 -78t101 78q5 11 16 7l27 -9q12 -5 8 -17zM116 514q18 0 18 -18v-289q0 -56 -11 -117h2q22 42 52 82l252 333q6 9 17 9h32q18 0 18 -18v-478q0 -18 -18 -18h-32q-18 0 -18 18v283
q0 48 12 122h-3q-14 -27 -55 -85l-248 -328q-6 -10 -18 -10h-32q-18 0 -18 18v478q0 18 18 18h32z" />
    <glyph glyph-name="uni043A" unicode="&#x43a;" horiz-adv-x="517" 
d="M494 21q6 -11 3.5 -16t-14.5 -5h-30q-15 0 -20.5 3t-10.5 13l-76 156q-15 32 -37.5 46.5t-59.5 14.5h-115v-214q0 -11 -4 -15t-15 -4h-30q-11 0 -15 4t-4 15v477q0 18 19 18h30q19 0 19 -18v-201h106h10l160 205q7 10 13.5 12t22.5 2h28q27 0 12 -21l-169 -211
q54 -14 87 -81z" />
    <glyph glyph-name="uni043B" unicode="&#x43b;" horiz-adv-x="537" 
d="M453 514q18 0 18 -18v-478q0 -18 -18 -18h-32q-18 0 -18 18v433h-226v-123q0 -92 -10.5 -156t-32 -100t-42 -53.5t-51.5 -31.5q-15 -6 -22 9l-15 31q-7 13 7 20q19 9 29 16t26 27t24.5 47.5t15 77.5t6.5 117v164q0 10 4 14t14 4h323z" />
    <glyph glyph-name="uni043C" unicode="&#x43c;" horiz-adv-x="638" 
d="M552 514q12 0 16 -4t4 -15v-476q0 -11 -4 -15t-15 -4h-25q-12 0 -15.5 4t-3.5 15v272q0 46 11 127h-3q-17 -45 -49 -99l-117 -207q-8 -14 -23 -14h-16q-16 0 -24 15l-116 202q-27 47 -51 103h-3q11 -86 11 -133v-266q0 -11 -3.5 -15t-14.5 -4h-26q-11 0 -15 4t-4 15v476
q0 11 4.5 15t16.5 4h22q18 0 27 -15l184 -326l182 325q8 16 25 16h25z" />
    <glyph glyph-name="uni043D" unicode="&#x43d;" horiz-adv-x="557" 
d="M473 514q18 0 18 -18v-478q0 -18 -18 -18h-32q-18 0 -18 18v215h-289v-215q0 -18 -18 -18h-32q-18 0 -18 18v478q0 18 18 18h32q18 0 18 -18v-201h289v201q0 18 18 18h32z" />
    <glyph glyph-name="uni043E" unicode="&#x43e;" horiz-adv-x="539" 
d="M50 345q0 86 58.5 135t160.5 49q103 0 162 -49t59 -135v-176q0 -86 -59 -134.5t-162 -48.5q-102 0 -160.5 49t-58.5 134v176zM422 345q0 57 -41 90t-112 33q-70 0 -111 -33t-41 -90v-176q0 -57 41.5 -89.5t110.5 -32.5q71 0 112 32.5t41 89.5v176z" />
    <glyph glyph-name="uni043F" unicode="&#x43f;" horiz-adv-x="552" 
d="M468 514q10 0 14 -4t4 -14v-478q0 -10 -4 -14t-14 -4h-31q-11 0 -14.5 4t-3.5 14v434h-285v-434q0 -18 -18 -18h-32q-18 0 -18 18v478q0 18 18 18h384z" />
    <glyph glyph-name="uni0440" unicode="&#x440;" horiz-adv-x="537" 
d="M104 500q73 29 175 29q208 0 208 -200v-144q0 -199 -205 -199q-65 0 -150 34v-222q0 -18 -18 -18h-32q-18 0 -18 18v646q0 24 8 35t32 21zM420 327q0 140 -149 140q-67 0 -120 -19q-13 -5 -16 -10t-3 -17v-339q73 -35 145 -35q143 0 143 140v140z" />
    <glyph glyph-name="uni0441" unicode="&#x441;" horiz-adv-x="515" 
d="M49 332q0 93 55 145t163 52q168 0 209 -135q6 -19 -12 -26l-26 -9q-18 -6 -25 12q-16 51 -50.5 74.5t-97.5 23.5q-73 0 -111 -35.5t-38 -99.5v-153q0 -64 38.5 -100t110.5 -36q117 0 149 103q7 17 26 12l26 -8q19 -7 12 -26q-46 -140 -215 -140q-105 0 -159.5 52
t-54.5 145v149z" />
    <glyph glyph-name="uni0442" unicode="&#x442;" horiz-adv-x="449" 
d="M417 514q11 0 14.5 -4t3.5 -14v-26q0 -18 -18 -18h-158v-434q0 -18 -18 -18h-31q-18 0 -18 18v434h-160q-18 0 -18 18v26q0 18 18 18h385z" />
    <glyph glyph-name="uni0443" unicode="&#x443;" horiz-adv-x="551" 
d="M467 514q18 0 18 -18v-527q0 -216 -213 -216q-141 0 -199 107q-12 20 7 30l22 11q18 10 29 -7q43 -80 140 -80q146 0 146 152v59q-88 -26 -157 -26q-198 0 -198 195v302q0 10 4 14t14 4h31q11 0 14.5 -4t3.5 -14v-299q0 -137 140 -137q64 0 148 27v409q0 18 18 18h32z
" />
    <glyph glyph-name="uni0444" unicode="&#x444;" horiz-adv-x="739" 
d="M403 524q26 3 73 5q96 0 155.5 -48t59.5 -160v-128q0 -207 -215 -207q-31 0 -73 5v-193q0 -10 -3.5 -14t-13.5 -4h-32q-18 0 -18 18v193q-40 -5 -74 -5q-214 0 -214 207v123q0 112 59.5 162.5t154.5 50.5q48 -2 74 -5v198q0 18 18 18h32q17 0 17 -18v-198zM116 195
q0 -147 150 -147q40 0 72 4v411q-48 4 -72 4q-28 0 -53 -7t-47.5 -23t-36 -47.5t-13.5 -75.5v-119zM623 320q0 147 -151 147q-22 0 -70 -4v-411q32 -4 70 -4q151 0 151 147v125z" />
    <glyph glyph-name="uni0445" unicode="&#x445;" horiz-adv-x="487" 
d="M445 514q26 0 12 -20l-171 -230l182 -244q14 -20 -13 -20h-30q-22 0 -32 15l-150 201l-149 -201q-9 -15 -32 -15h-28q-28 0 -13 20l182 244l-174 230q-13 20 14 20h28q23 0 33 -15l140 -186l140 186q7 10 12 12.5t19 2.5h30z" />
    <glyph glyph-name="uni0446" unicode="&#x446;" horiz-adv-x="572" 
d="M535 62q11 0 14.5 -4t3.5 -14v-165q0 -11 -3.5 -14.5t-14.5 -3.5h-29q-18 0 -18 18v121h-404q-18 0 -18 18v478q0 18 18 18h32q18 0 18 -18v-434h279v434q0 10 3.5 14t14.5 4h31q18 0 18 -18v-434h55z" />
    <glyph glyph-name="uni0447" unicode="&#x447;" horiz-adv-x="509" 
d="M34 496q0 18 18 18h32q18 0 18 -18v-124q0 -64 34 -94t108 -30q48 0 132 21v227q0 10 3.5 14t13.5 4h32q18 0 18 -18v-478q0 -18 -18 -18h-32q-10 0 -13.5 4t-3.5 14v188q-76 -19 -141 -19q-103 0 -152 45.5t-49 137.5v126z" />
    <glyph glyph-name="uni0448" unicode="&#x448;" horiz-adv-x="763" 
d="M678 514q10 0 14 -4t4 -14v-478q0 -10 -4 -14t-14 -4h-594q-18 0 -18 18v478q0 18 18 18h32q18 0 18 -18v-434h214v434q0 10 4 14t14 4h31q18 0 18 -18v-434h214v434q0 18 18 18h31z" />
    <glyph glyph-name="uni0449" unicode="&#x449;" horiz-adv-x="788" 
d="M751 62q18 0 18 -18v-165q0 -18 -18 -18h-29q-19 0 -19 18v121h-619q-18 0 -18 18v478q0 18 18 18h32q18 0 18 -18v-434h214v434q0 10 4 14t14 4h31q18 0 18 -18v-434h214v434q0 18 18 18h31q10 0 14 -4t4 -14v-434h55z" />
    <glyph glyph-name="uni044A" unicode="&#x44a;" horiz-adv-x="610" 
d="M402 352q84 0 131.5 -46t47.5 -129q0 -84 -47.5 -130.5t-131.5 -46.5h-223q-11 0 -14.5 4t-3.5 14v434h-129q-18 0 -18 18v26q0 10 4 14t14 4h178q10 0 14 -4t4 -14v-144h174zM394 61q55 0 86 30.5t31 85.5t-30.5 84.5t-86.5 29.5h-166v-230h166z" />
    <glyph glyph-name="uni044B" unicode="&#x44b;" horiz-adv-x="701" 
d="M307 352q84 0 132 -46t48 -129q0 -84 -47.5 -130.5t-132.5 -46.5h-223q-18 0 -18 18v478q0 18 18 18h32q18 0 18 -18v-144h173zM617 514q18 0 18 -18v-478q0 -18 -18 -18h-32q-18 0 -18 18v478q0 18 18 18h32zM299 61q56 0 87 30.5t31 85.5q0 54 -31 84t-87 30h-165v-230
h165z" />
    <glyph glyph-name="uni044C" unicode="&#x44c;" horiz-adv-x="516" 
d="M307 352q84 0 132 -46t48 -129q0 -84 -47.5 -130.5t-132.5 -46.5h-223q-18 0 -18 18v478q0 18 18 18h32q18 0 18 -18v-144h173zM299 61q56 0 87 30.5t31 85.5q0 54 -31 84t-87 30h-165v-230h165z" />
    <glyph glyph-name="uni044D" unicode="&#x44d;" horiz-adv-x="512" 
d="M37 394q41 135 208 135q108 0 163 -52t55 -145v-148q0 -94 -54 -146t-159 -52q-169 0 -215 141q-7 17 12 25l27 8q18 7 25 -12q31 -102 149 -102q72 0 109.5 35.5t37.5 99.5v51h-203q-18 0 -18 18v24q0 18 18 18h203v42q0 64 -37 99.5t-110 35.5q-62 0 -96.5 -23.5
t-50.5 -74.5q-7 -19 -25 -12l-27 9q-17 7 -12 26z" />
    <glyph glyph-name="uni044E" unicode="&#x44e;" horiz-adv-x="746" 
d="M265 347q0 85 57 133.5t157 48.5q102 0 159 -48.5t57 -133.5v-180q0 -85 -57 -133t-159 -48q-100 0 -157 48t-57 133v63h-131v-212q0 -18 -18 -18h-32q-18 0 -18 18v478q0 18 18 18h32q18 0 18 -18v-204h131v55zM627 347q0 57 -39.5 89t-108.5 32q-67 0 -106.5 -32
t-39.5 -89v-180q0 -56 39.5 -88t106.5 -32q69 0 108.5 32t39.5 88v180z" />
    <glyph glyph-name="uni044F" unicode="&#x44f;" horiz-adv-x="526" 
d="M442 514q18 0 18 -18v-478q0 -10 -4 -14t-14 -4h-31q-11 0 -14.5 4t-3.5 14v167h-163l-111 -169q-6 -11 -12 -13.5t-21 -2.5h-29q-16 0 -18.5 5.5t5.5 16.5l117 172q-55 11 -86.5 52t-31.5 103q0 77 45 121t123 44h231zM219 454q-49 0 -77.5 -28.5t-28.5 -76.5
q0 -47 28.5 -75t77.5 -28h174v208h-174z" />
    <glyph glyph-name="uni0451" unicode="&#x451;" horiz-adv-x="530" 
d="M174 688q19 0 26 -7.5t7 -25.5v-8q0 -18 -7 -25t-26 -7h-6q-19 0 -25.5 7t-6.5 25v8q0 18 7 25.5t25 7.5h6zM368 688q19 0 26 -7.5t7 -25.5v-8q0 -18 -7 -25t-26 -7h-5q-19 0 -26.5 7t-7.5 25v8q0 18 7.5 25.5t26.5 7.5h5zM47 318q0 100 56.5 155.5t164.5 55.5
q109 0 165.5 -56.5t56.5 -150.5v-55q0 -28 -30 -28h-346v-58q0 -65 38.5 -101t111.5 -36q111 0 157 83q12 16 29 7l21 -11q19 -10 7 -29q-60 -108 -214 -108q-109 0 -163 54t-54 148v130zM423 326q0 68 -39.5 106.5t-115.5 38.5q-75 0 -114.5 -38.5t-39.5 -106.5v-35h309v35
z" />
    <glyph glyph-name="Wgrave" unicode="&#x1e80;" horiz-adv-x="881" 
d="M353 891q11 13 34 1l164 -97q12 -7 1 -20l-9 -11q-7 -8 -24 -1l-178 89q-6 2 -8.5 5t-1 6.5t6.5 9.5zM844 710q19 0 13 -19l-178 -674q-5 -17 -26 -17h-31q-22 0 -26 16l-133 484q-11 42 -20 98h-4q-5 -41 -20 -97l-135 -484q-5 -17 -25 -17h-32q-21 0 -25 16l-179 675
q-4 19 13 19h40q13 0 18.5 -3.5t8.5 -14.5l122 -483q4 -18 10.5 -60t7.5 -47h4q14 83 21 107l133 472q5 18 27 18h31q22 0 27 -18l131 -473q7 -24 22 -106h4q11 72 18 105l122 485q2 11 7.5 14.5t18.5 3.5h35z" />
    <glyph glyph-name="wgrave" unicode="&#x1e81;" horiz-adv-x="731" 
d="M277 718q11 13 34 2l162 -101q12 -7 1 -20l-9 -11q-7 -8 -24 -2l-176 93q-15 6 -3 21zM692 514q13 0 16 -4.5t-1 -16.5l-148 -480q-4 -16 -24 -16h-21q-20 0 -25 16l-103 327q-6 21 -12.5 51t-7.5 34h-3q-2 -5 -8 -35t-12 -50l-103 -327q-5 -16 -24 -16h-21q-19 0 -24 16
l-147 480q-4 12 -1 16.5t16 4.5h23q16 0 22.5 -3.5t8.5 -14.5l91 -310q5 -20 12.5 -58.5t9.5 -45.5h3q2 6 10.5 45t14.5 60l96 298q3 11 8 14.5t21 3.5h15q15 0 20 -3.5t9 -14.5l95 -295q7 -23 15.5 -62t10.5 -46h3q2 6 9 44t14 62l90 308q3 12 9 15t23 3h20z" />
    <glyph glyph-name="Wacute" unicode="&#x1e82;" horiz-adv-x="881" 
d="M502 898q23 11 34 -2l14 -18q13 -15 -2 -21l-177 -93q-17 -6 -23 2l-10 11q-11 14 2 20zM844 710q19 0 13 -19l-178 -674q-5 -17 -26 -17h-31q-22 0 -26 16l-133 484q-11 42 -20 98h-4q-5 -41 -20 -97l-135 -484q-5 -17 -25 -17h-32q-21 0 -25 16l-179 675q-4 19 13 19
h40q13 0 18.5 -3.5t8.5 -14.5l122 -483q4 -18 10.5 -60t7.5 -47h4q14 83 21 107l133 472q5 18 27 18h31q22 0 27 -18l131 -473q7 -24 22 -106h4q11 72 18 105l122 485q2 11 7.5 14.5t18.5 3.5h35z" />
    <glyph glyph-name="wacute" unicode="&#x1e83;" horiz-adv-x="731" 
d="M425 720q23 11 34 -2l15 -18q12 -15 -3 -21l-177 -93q-17 -6 -23 2l-9 11q-12 13 1 20zM692 514q13 0 16 -4.5t-1 -16.5l-148 -480q-4 -16 -24 -16h-21q-20 0 -25 16l-103 327q-6 21 -12.5 51t-7.5 34h-3q-2 -5 -8 -35t-12 -50l-103 -327q-5 -16 -24 -16h-21
q-19 0 -24 16l-147 480q-4 12 -1 16.5t16 4.5h23q16 0 22.5 -3.5t8.5 -14.5l91 -310q5 -20 12.5 -58.5t9.5 -45.5h3q2 6 10.5 45t14.5 60l96 298q3 11 8 14.5t21 3.5h15q15 0 20 -3.5t9 -14.5l95 -295q7 -23 15.5 -62t10.5 -46h3q2 6 9 44t14 62l90 308q3 12 9 15t23 3h20z
" />
    <glyph glyph-name="Wdieresis" unicode="&#x1e84;" horiz-adv-x="881" 
d="M350 864q19 0 26 -7t7 -25v-8q0 -19 -7 -25.5t-26 -6.5h-7q-18 0 -25 6.5t-7 25.5v8q0 18 7 25t25 7h7zM544 864q18 0 25.5 -7t7.5 -25v-8q0 -18 -7.5 -25t-25.5 -7h-6q-19 0 -26 6.5t-7 25.5v8q0 18 7 25t26 7h6zM844 710q19 0 13 -19l-178 -674q-5 -17 -26 -17h-31
q-22 0 -26 16l-133 484q-11 42 -20 98h-4q-5 -41 -20 -97l-135 -484q-5 -17 -25 -17h-32q-21 0 -25 16l-179 675q-4 19 13 19h40q13 0 18.5 -3.5t8.5 -14.5l122 -483q4 -18 10.5 -60t7.5 -47h4q14 83 21 107l133 472q5 18 27 18h31q22 0 27 -18l131 -473q7 -24 22 -106h4
q11 72 18 105l122 485q2 11 7.5 14.5t18.5 3.5h35z" />
    <glyph glyph-name="wdieresis" unicode="&#x1e85;" horiz-adv-x="731" 
d="M273 687q19 0 26 -7t7 -25v-8q0 -19 -7 -26t-26 -7h-6q-19 0 -26 7t-7 26v8q0 18 7 25t26 7h6zM467 687q19 0 26 -7t7 -25v-8q0 -19 -7 -26t-26 -7h-6q-19 0 -26 7t-7 26v8q0 18 7 25t26 7h6zM692 514q13 0 16 -4.5t-1 -16.5l-148 -480q-4 -16 -24 -16h-21q-20 0 -25 16
l-103 327q-6 21 -12.5 51t-7.5 34h-3q-2 -5 -8 -35t-12 -50l-103 -327q-5 -16 -24 -16h-21q-19 0 -24 16l-147 480q-4 12 -1 16.5t16 4.5h23q16 0 22.5 -3.5t8.5 -14.5l91 -310q5 -20 12.5 -58.5t9.5 -45.5h3q2 6 10.5 45t14.5 60l96 298q3 11 8 14.5t21 3.5h15
q15 0 20 -3.5t9 -14.5l95 -295q7 -23 15.5 -62t10.5 -46h3q2 6 9 44t14 62l90 308q3 12 9 15t23 3h20z" />
    <glyph glyph-name="Ygrave" unicode="&#x1ef2;" horiz-adv-x="627" 
d="M224 891q11 13 34 1l164 -97q12 -7 1 -20l-9 -11q-6 -8 -24 -1l-178 89q-15 6 -3 21zM601 710q10 0 13 -6t-3 -14l-261 -402v-268q0 -11 -4.5 -15.5t-15.5 -4.5h-33q-11 0 -15.5 4.5t-4.5 15.5v269l-261 401q-6 8 -3 14t13 6h41q18 0 25 -3t13 -15l209 -329l211 329
q6 12 13 15t25 3h38z" />
    <glyph glyph-name="ygrave" unicode="&#x1ef3;" horiz-adv-x="551" 
d="M183 718q11 13 34 2l162 -101q13 -7 1 -20l-9 -11q-6 -8 -24 -2l-176 93q-15 6 -3 21zM467 514q18 0 18 -18v-527q0 -216 -213 -216q-141 0 -199 107q-12 20 7 30l22 11q18 10 29 -7q43 -80 140 -80q146 0 146 152v59q-88 -26 -157 -26q-198 0 -198 195v302q0 10 4 14
t14 4h31q11 0 14.5 -4t3.5 -14v-299q0 -137 140 -137q64 0 148 27v409q0 18 18 18h32z" />
    <glyph glyph-name="endash" unicode="&#x2013;" horiz-adv-x="575" 
d="M494 300q11 0 15.5 -4.5t4.5 -15.5v-25q0 -11 -4.5 -15.5t-15.5 -4.5h-413q-19 0 -19 20v25q0 20 19 20h413z" />
    <glyph glyph-name="emdash" unicode="&#x2014;" horiz-adv-x="774" 
d="M693 300q11 0 15.5 -4.5t4.5 -15.5v-26q0 -11 -4.5 -15.5t-15.5 -4.5h-612q-11 0 -15.5 4.5t-4.5 15.5v26q0 11 4.5 15.5t15.5 4.5h612z" />
    <glyph glyph-name="quoteleft" unicode="&#x2018;" horiz-adv-x="198" 
d="M107 692q7 18 23 18h12q9 0 11.5 -3t1.5 -11l-34 -166q-2 -13 -7.5 -17.5t-17.5 -4.5h-27q-27 0 -18 22z" />
    <glyph glyph-name="quoteright" unicode="&#x2019;" horiz-adv-x="193" 
d="M102 526q-7 -18 -23 -18h-12q-9 0 -11.5 3t-1.5 11l34 166q2 13 7.5 17.5t17.5 4.5h27q27 0 18 -22z" />
    <glyph glyph-name="quotesinglbase" unicode="&#x201a;" horiz-adv-x="171" 
d="M107 -108q-3 -18 -20 -18h-15q-18 0 -18 18v200q0 18 18 18h29q19 0 18 -18z" />
    <glyph glyph-name="quotedblleft" unicode="&#x201c;" horiz-adv-x="319" 
d="M107 692q7 18 23 18h12q9 0 11.5 -3t1.5 -11l-34 -166q-2 -13 -7.5 -17.5t-17.5 -4.5h-27q-27 0 -18 22zM228 692q7 18 23 18h12q9 0 11.5 -3t1.5 -11l-34 -166q-2 -13 -7.5 -17.5t-18.5 -4.5h-26q-26 0 -19 22z" />
    <glyph glyph-name="quotedblright" unicode="&#x201d;" horiz-adv-x="314" 
d="M102 526q-7 -18 -23 -18h-12q-9 0 -11.5 3t-1.5 11l34 166q2 13 7.5 17.5t17.5 4.5h27q27 0 18 -22zM223 526q-7 -18 -23 -18h-12q-16 0 -13 14l34 166q2 13 7.5 17.5t17.5 4.5h26q28 0 19 -22z" />
    <glyph glyph-name="quotedblbase" unicode="&#x201e;" horiz-adv-x="302" 
d="M71 -103q-5 -18 -22 -18h-13q-15 0 -12 14l34 166q1 13 6.5 17.5t18.5 4.5h26q28 0 19 -22zM192 -103q-5 -18 -22 -18h-13q-9 0 -11.5 3t-0.5 11l33 166q2 13 7.5 17.5t18.5 4.5h26q28 0 19 -22z" />
    <glyph glyph-name="dagger" unicode="&#x2020;" horiz-adv-x="532" 
d="M481 478q11 0 15.5 -4.5t4.5 -15.5v-28q0 -11 -4.5 -15.5t-15.5 -4.5h-180v-490q0 -11 -4.5 -15.5t-15.5 -4.5h-29q-19 0 -19 20v490h-182q-19 0 -19 20v28q0 20 19 20h182v212q0 20 19 20h29q11 0 15.5 -4.5t4.5 -15.5v-212h180z" />
    <glyph glyph-name="daggerdbl" unicode="&#x2021;" horiz-adv-x="578" 
d="M304 710q19 0 19 -20v-212h180q11 0 15.5 -4.5t4.5 -15.5v-28q0 -11 -4.5 -15.5t-15.5 -4.5h-180v-212h181q11 0 15.5 -4t4.5 -15v-28q0 -11 -4.5 -15.5t-15.5 -4.5h-181v-211q0 -20 -19 -20h-29q-11 0 -15.5 4.5t-4.5 15.5v211h-181q-11 0 -15 4.5t-4 15.5v28q0 11 4 15
t15 4h181v212h-181q-11 0 -15.5 4.5t-4.5 15.5v28q0 11 4.5 15.5t15.5 4.5h181v212q0 11 4.5 15.5t15.5 4.5h29z" />
    <glyph glyph-name="bullet" unicode="&#x2022;" horiz-adv-x="304" 
d="M152 192q-31 0 -51 20.5t-20 50.5q0 31 20 51.5t51 20.5t51 -20.5t20 -51.5q0 -30 -20 -50.5t-51 -20.5z" />
    <glyph glyph-name="ellipsis" unicode="&#x2026;" horiz-adv-x="607" 
d="M96 80q23 0 31 -8.5t8 -31.5v-6q0 -23 -8.5 -31.5t-30.5 -8.5h-6q-23 0 -31.5 8.5t-8.5 31.5v6q0 23 8.5 31.5t31.5 8.5h6zM306 80q23 0 31.5 -8.5t8.5 -31.5v-6q0 -22 -9 -31t-31 -9h-6q-23 0 -31 8.5t-8 31.5v6q0 23 8 31.5t31 8.5h6zM517 80q23 0 31 -8.5t8 -31.5v-6
q0 -23 -8.5 -31.5t-30.5 -8.5h-6q-23 0 -31.5 8.5t-8.5 31.5v6q0 23 8.5 31.5t31.5 8.5h6z" />
    <glyph glyph-name="perthousand" unicode="&#x2030;" horiz-adv-x="1181" 
d="M36 578q0 69 41 108t117 39q77 0 118 -39t41 -108v-73q0 -69 -41 -107.5t-118 -38.5q-76 0 -117 38.5t-41 107.5v73zM681 710q23 0 9 -19l-495 -673q-8 -12 -14.5 -15t-24.5 -3h-23q-11 0 -14 6t3 14l496 673q8 11 14 14t22 3h27zM296 576q0 45 -26.5 69.5t-75.5 24.5
q-48 0 -74.5 -24.5t-26.5 -69.5v-68q0 -45 26.5 -69.5t74.5 -24.5q49 0 75.5 24.5t26.5 69.5v68zM459 204q0 69 41 108t117 39q77 0 118 -39t41 -108v-74q0 -68 -41 -106.5t-118 -38.5q-76 0 -117 38.5t-41 106.5v74zM831 204q0 69 41 108t117 39q77 0 118 -39t41 -108v-74
q0 -68 -41 -106.5t-118 -38.5q-76 0 -117 38.5t-41 106.5v74zM718 201q0 45 -26 70t-75 25t-75 -25t-26 -70v-67q0 -45 26 -70t75 -25t75 25t26 70v67zM1090 201q0 45 -26 70t-75 25t-75 -25t-26 -70v-67q0 -45 26 -70t75 -25t75 25t26 70v67z" />
    <glyph glyph-name="guilsinglleft" unicode="&#x2039;" horiz-adv-x="336" 
d="M282 97q11 -11 0 -23l-21 -21q-12 -11 -24 0l-198 198q-10 11 0 23l201 201q12 13 23 0l20 -20q11 -12 0 -23l-168 -168z" />
    <glyph glyph-name="guilsinglright" unicode="&#x203a;" horiz-adv-x="336" 
d="M52 432q-11 11 0 23l20 20q12 13 23 0l201 -201q10 -12 0 -23l-198 -198q-12 -11 -24 0l-21 21q-11 12 0 23l167 167z" />
    <glyph glyph-name="fraction" unicode="&#x2044;" horiz-adv-x="159" 
d="M291 693q7 11 13.5 14t22.5 3h26q10 0 13 -5.5t-3 -13.5l-494 -673q-9 -12 -15.5 -15t-24.5 -3h-24q-10 0 -13 6t4 14z" />
    <glyph glyph-name="zerosuperior" unicode="&#x2070;" horiz-adv-x="374" 
d="M41 683q0 62 38.5 98.5t108.5 36.5q68 0 107 -36.5t39 -98.5v-141q0 -63 -38.5 -99.5t-107.5 -36.5q-70 0 -108.5 36t-38.5 100v141zM276 683q0 37 -23 59t-65 22q-43 0 -66.5 -22t-23.5 -59v-141q0 -38 23.5 -59.5t66.5 -21.5q42 0 65 21.5t23 59.5v141z" />
    <glyph glyph-name="foursuperior" unicode="&#x2074;" horiz-adv-x="362" 
d="M320 565q11 0 14 -3t3 -13v-16q0 -11 -3 -14t-14 -3h-41v-85q0 -10 -3 -13.5t-13 -3.5h-20q-10 0 -13 3.5t-3 13.5v85h-190q-10 0 -13.5 3.5t-3.5 14.5v14q0 13 6 20l188 231q9 11 25 11h23q11 0 14 -3t3 -15v-227h41zM227 739l-142 -174h142v174z" />
    <glyph glyph-name="fivesuperior" unicode="&#x2075;" horiz-adv-x="352" 
d="M291 810q8 0 11 -3t3 -11v-21q0 -9 -2.5 -11.5t-11.5 -2.5h-179l-11 -101h77q71 0 106.5 -33t35.5 -90q0 -56 -36 -93.5t-104 -37.5q-118 0 -149 105q-7 19 9 25l17 5q11 4 15.5 2t8.5 -12q23 -74 97 -74q42 0 64.5 22t22.5 57q0 76 -89 76h-113q-19 0 -17 18l16 163
q1 10 5 13.5t15 3.5h209z" />
    <glyph glyph-name="sixsuperior" unicode="&#x2076;" horiz-adv-x="374" 
d="M97 631q60 22 108 22q135 0 135 -122q0 -62 -39.5 -93.5t-112.5 -31.5q-148 0 -148 150v111q0 73 38.5 112t113.5 39q101 0 136 -73q7 -11 -7 -19l-23 -11q-14 -6 -21 4q-25 47 -85 47q-95 0 -95 -97v-38zM97 555q0 -96 91 -96q94 0 94 72q0 69 -85 69q-54 0 -100 -23
v-22z" />
    <glyph glyph-name="sevensuperior" unicode="&#x2077;" horiz-adv-x="315" 
d="M284 810q9 0 12 -3t3 -11v-14q0 -11 -4 -20l-145 -336q-4 -8 -8 -10t-16 -2h-23q-11 0 -13.5 4.5t2.5 15.5l141 323h-196q-15 0 -15 15v23q0 9 3 12t12 3h247z" />
    <glyph glyph-name="eightsuperior" unicode="&#x2078;" horiz-adv-x="377" 
d="M46 708q0 52 38 81t105 29t104 -27.5t37 -74.5q0 -67 -67 -97q40 -12 60 -34.5t20 -60.5q0 -58 -39.5 -88t-114.5 -30t-114.5 28t-39.5 78q0 71 79 101q-68 27 -68 95zM273 710q0 28 -21.5 45t-63.5 17q-40 0 -62.5 -17t-22.5 -48q0 -30 23 -45.5t79 -24.5q68 20 68 73z
M283 522q0 32 -24.5 46.5t-86.5 23.5q-1 0 -9 -3t-13.5 -5t-14.5 -6.5t-15 -10t-12.5 -12.5t-9.5 -16.5t-3 -20.5q0 -65 95 -65q93 0 93 69z" />
    <glyph glyph-name="ninesuperior" unicode="&#x2079;" horiz-adv-x="374" 
d="M277 594q-63 -22 -108 -22q-135 0 -135 121q0 125 152 125q148 0 148 -150v-110q0 -73 -38.5 -112.5t-114.5 -39.5q-52 0 -86 21t-49 53q-7 11 7 19l23 11q13 6 21 -4q25 -47 84 -47q96 0 96 97v38zM277 670q0 96 -91 96q-95 0 -95 -72q0 -69 86 -69q47 0 100 22v23z" />
    <glyph glyph-name="zeroinferior" unicode="&#x2080;" horiz-adv-x="374" 
d="M41 149q0 62 38.5 99t108.5 37q68 0 107 -37t39 -99v-140q0 -63 -38.5 -99.5t-107.5 -36.5q-70 0 -108.5 36t-38.5 100v140zM276 149q0 38 -23 59.5t-65 21.5q-43 0 -66.5 -21.5t-23.5 -59.5v-140q0 -39 23.5 -60.5t66.5 -21.5q42 0 65 22t23 60v140z" />
    <glyph glyph-name="oneinferior" unicode="&#x2081;" horiz-adv-x="281" 
d="M204 277q11 0 15.5 -4.5t4.5 -15.5v-356q0 -11 -4.5 -15.5t-15.5 -4.5h-18q-11 0 -15.5 4.5t-4.5 15.5v304l-110 -61q-18 -10 -28 7l-8 14q-8 17 9 27l140 79q8 6 24 6h11z" />
    <glyph glyph-name="twoinferior" unicode="&#x2082;" horiz-adv-x="355" 
d="M39 178q6 15 9 21.5t15.5 26t26 30t38 20t54.5 9.5q65 0 100.5 -34t35.5 -87t-28.5 -78.5t-88.5 -45.5l-59 -20q-50 -17 -50 -62v-24h204q18 0 18 -18v-18q0 -17 -18 -17h-240q-19 0 -19 19v39q0 48 18.5 77t61.5 45l58 23q3 1 13 5t13 5t11.5 4.5t11.5 5.5t9.5 6t9 7.5
t6.5 8.5t5.5 10t3 11.5t1.5 14.5q0 31 -20 50t-58 19q-17 0 -31 -5t-22.5 -11.5t-15 -16t-9.5 -16.5l-6 -14t-3 -8q-5 -11 -9.5 -13.5t-15.5 0.5l-17 6q-20 6 -13 25z" />
    <glyph glyph-name="threeinferior" unicode="&#x2083;" horiz-adv-x="363" 
d="M36 178q17 55 53 81t99 26q61 0 94.5 -30.5t33.5 -81.5q0 -62 -48 -87q60 -29 60 -101q0 -52 -35.5 -82t-105.5 -30q-119 0 -152 104q-6 20 9 25l18 6q10 4 15.5 1.5t9.5 -13.5q12 -38 34 -54.5t66 -16.5q41 0 62.5 18t21.5 48q0 28 -16.5 46.5t-43.5 18.5h-60
q-11 0 -14.5 3.5t-3.5 14.5v15q0 13 3 16t16 3h55q27 0 41 16.5t14 42.5q0 31 -19.5 49t-53.5 18q-77 0 -99 -72q-8 -22 -29 -14l-13 5q-18 8 -12 25z" />
    <glyph glyph-name="fourinferior" unicode="&#x2084;" horiz-adv-x="363" 
d="M321 32q11 0 14 -3t3 -13v-17q0 -10 -3 -13t-14 -3h-39v-85q0 -10 -3.5 -13.5t-13.5 -3.5h-22q-10 0 -13 3.5t-3 13.5v85h-190q-10 0 -13.5 3.5t-3.5 14.5v13q0 14 6 21l188 231q9 11 25 11h25q11 0 14.5 -3.5t3.5 -14.5v-227h39zM227 205l-142 -173h142v173z" />
    <glyph glyph-name="fiveinferior" unicode="&#x2085;" horiz-adv-x="352" 
d="M291 277q8 0 11 -3t3 -11v-22q0 -8 -2.5 -11t-11.5 -3h-179l-11 -101h77q71 0 106.5 -32.5t35.5 -89.5t-36 -94t-104 -37q-118 0 -149 104q-6 19 9 25l17 6q11 4 15.5 2t8.5 -12q23 -74 97 -74q43 0 65 22t22 57q0 75 -89 75h-113q-19 0 -17 18l16 164q1 10 5 13.5
t15 3.5h209z" />
    <glyph glyph-name="sixinferior" unicode="&#x2086;" horiz-adv-x="374" 
d="M97 98q60 22 108 22q135 0 135 -122q0 -62 -39.5 -93.5t-112.5 -31.5q-148 0 -148 150v110q0 73 38.5 112.5t113.5 39.5q101 0 136 -73q8 -12 -7 -19l-23 -12q-13 -6 -21 5q-24 46 -85 46q-95 0 -95 -97v-37zM97 22q0 -96 91 -96q94 0 94 72q0 69 -85 69q-54 0 -100 -23
v-22z" />
    <glyph glyph-name="seveninferior" unicode="&#x2087;" horiz-adv-x="314" 
d="M283 277q10 0 13 -3t3 -12v-14q0 -11 -4 -20l-146 -335q-4 -8 -7.5 -10t-16.5 -2h-23q-11 0 -13.5 4t3.5 16l141 323h-196q-15 0 -15 15v23q0 9 3 12t12 3h246z" />
    <glyph glyph-name="eightinferior" unicode="&#x2088;" horiz-adv-x="377" 
d="M46 174q0 53 38 82t105 29t104 -27.5t37 -75.5q0 -68 -67 -96q40 -12 60 -34.5t20 -60.5q0 -118 -154 -118q-76 0 -115 27.5t-39 77.5q0 72 79 102q-68 26 -68 94zM273 176q0 29 -21.5 46t-63.5 17q-40 0 -62.5 -17t-22.5 -48q0 -30 23 -45.5t79 -24.5q68 20 68 72z
M283 -11q0 31 -24 45.5t-87 24.5l-9 -3q-9 -3 -13.5 -5t-14 -6.5t-15.5 -10t-12.5 -12.5t-9.5 -16.5t-3 -20.5q0 -65 95 -65q93 0 93 69z" />
    <glyph glyph-name="nineinferior" unicode="&#x2089;" horiz-adv-x="374" 
d="M277 61q-55 -22 -108 -22q-135 0 -135 121q0 62 39.5 93.5t112.5 31.5q148 0 148 -150v-110q0 -73 -38.5 -112.5t-114.5 -39.5q-100 0 -135 73q-8 12 7 19l23 12q13 6 21 -5q24 -46 84 -46q96 0 96 97v38zM277 136q0 96 -91 96q-95 0 -95 -72q0 -69 86 -69q54 0 100 23
v22z" />
    <glyph glyph-name="Euro" unicode="&#x20ac;" horiz-adv-x="727" 
d="M147 484q0 112 72.5 176.5t202.5 64.5q182 0 245 -118q14 -22 -8 -34l-23 -11q-20 -11 -34 9q-41 86 -180 86q-96 0 -148.5 -45t-52.5 -126v-34h310q18 0 13 -17l-6 -20q-5 -17 -24 -17h-295v-96h267q11 0 14 -3.5t0 -13.5l-6 -20q-5 -17 -24 -17h-249v-26
q2 -81 54.5 -125t146.5 -44q142 0 184 93q7 11 13.5 13t18.5 -4l24 -12q22 -11 9 -34q-64 -124 -249 -124q-129 0 -200 61.5t-74 175.5v26h-103q-18 0 -14 18l6 19q5 17 24 17h87v96h-64q-18 0 -14 18l6 19q5 17 24 17h47v32z" />
    <glyph glyph-name="uni20BD" unicode="&#x20bd;" horiz-adv-x="649" 
d="M175 189h344q19 0 19 -18v-17q0 -18 -19 -18h-344v-116q0 -11 -4.5 -15.5t-15.5 -4.5h-33q-11 0 -15.5 4.5t-4.5 15.5v116h-47q-19 0 -19 18v17q0 18 19 18h47v501q0 11 4.5 15.5t15.5 4.5h272q103 0 162 -56t59 -156t-59 -155.5t-162 -55.5h-219v-98zM175 354h212
q71 0 112 38.5t41 105.5t-41 105.5t-112 38.5h-212v-288z" />
    <glyph glyph-name="uni2113" unicode="&#x2113;" horiz-adv-x="424" 
d="M123 555q0 93 39 135t100 42t96 -38.5t35 -112.5q0 -163 -210 -332v-81q0 -58 20.5 -85.5t70.5 -27.5q10 0 19.5 2t16.5 4.5t14 5.5t11 5.5t8 5.5l4 3q11 8 18 -1l20 -24q9 -12 -1 -20q-52 -42 -114 -42q-147 0 -147 155v53l-58 -42q-13 -10 -22 5l-16 25q-9 15 4 22
q62 44 92 66v277zM332 582q0 48 -19.5 71t-51.5 23q-78 0 -78 -122v-222q149 130 149 250z" />
    <glyph glyph-name="uni2116" unicode="&#x2116;" horiz-adv-x="1040" 
d="M987 504q0 -68 -41.5 -106.5t-117.5 -38.5t-117 38.5t-41 106.5v74q0 69 41 108t117 39t117.5 -39t41.5 -108v-74zM583 710q11 0 15.5 -4.5t4.5 -15.5v-670q0 -11 -4.5 -15.5t-15.5 -4.5h-32q-15 0 -21 11l-319 458q-21 31 -48 83.5t-32 59.5h-4q0 -8 5.5 -71t5.5 -106
v-415q0 -20 -19 -20h-31q-11 0 -15.5 4.5t-4.5 15.5v670q0 11 4.5 15.5t15.5 4.5h32q14 0 21 -10l311 -449q23 -33 52.5 -87t36.5 -64h3q0 10 -6 75.5t-6 110.5v405q0 19 20 19h31zM727 508q0 -45 26 -70t75 -25t75 25t26 70v67q0 45 -26 70t-75 25t-75 -25t-26 -70v-67z
M968 299q11 0 15.5 -4.5t4.5 -15.5v-21q0 -11 -4.5 -15.5t-15.5 -4.5h-280q-11 0 -15 4.5t-4 15.5v21q0 11 4 15.5t15 4.5h280z" />
    <glyph glyph-name="uni2117" unicode="&#x2117;" horiz-adv-x="808" 
d="M45 351q0 150 104.5 254.5t255.5 104.5q150 0 254 -104.5t104 -254.5q0 -151 -104 -255t-254 -104t-255 105t-105 254zM94 351q0 -131 89.5 -221t221.5 -90q130 0 219.5 90t89.5 221q0 132 -89 221.5t-220 89.5q-132 0 -221.5 -89.5t-89.5 -221.5zM433 541
q63 0 100.5 -36.5t37.5 -99.5t-37.5 -99t-100.5 -36h-105v-102q0 -8 -3 -11t-11 -3h-19q-8 0 -11 3t-3 11v358q0 9 3 12t12 3h137zM430 314q43 0 68.5 24.5t25.5 66.5t-25.5 66.5t-68.5 24.5h-102v-182h102z" />
    <glyph glyph-name="trademark" unicode="&#x2122;" horiz-adv-x="626" 
d="M259 695q8 0 10.5 -2.5t2.5 -11.5v-12q0 -8 -2.5 -10.5t-10.5 -2.5h-80v-200q0 -8 -3.5 -10.5t-12.5 -2.5h-11q-15 0 -15 13v200h-82q-9 0 -10.5 2t-1.5 11v12q0 9 1.5 11.5t10.5 2.5h204zM541 695q8 0 11 -2.5t3 -10.5v-226q0 -8 -2.5 -10.5t-10.5 -2.5h-13
q-9 0 -11.5 2.5t-2.5 10.5v113q0 14 2 52q-2 -3 -9 -14.5t-11 -17.5l-52 -78q-6 -9 -16 -9h-6q-9 0 -15 7l-52 77q-14 20 -21 31q2 -34 2 -48v-113q0 -8 -2 -10.5t-11 -2.5h-13q-9 0 -11.5 2.5t-2.5 10.5v225q0 9 3 11.5t12 2.5h7q11 0 17 -9l90 -138l90 137q7 10 16 10h9z
" />
    <glyph glyph-name="Omega" unicode="&#x2126;" horiz-adv-x="755" 
d="M56 378q0 152 89.5 249t230.5 97q142 0 233 -96.5t91 -247.5q0 -102 -43 -181t-119 -129h150q20 0 20 -19v-31q0 -11 -4.5 -15.5t-15.5 -4.5h-245q-15 0 -15 16v25q0 12 12 19q87 44 138 124.5t51 182.5q0 127 -67.5 208t-185.5 81q-114 0 -182 -81t-68 -207
q0 -101 48 -181t139 -128q13 -5 13 -19v-24q0 -16 -15 -16h-245q-11 0 -15.5 4.5t-4.5 15.5v31q0 19 20 19h150q-160 108 -160 308z" />
    <glyph glyph-name="estimated" unicode="&#x212e;" horiz-adv-x="820" 
d="M785 337q0 -17 -18 -17h-543v-203q86 -67 191 -67q81 0 155 43t117 124q8 14 28 14h31q10 0 12.5 -3.5t-1.5 -13.5q-41 -102 -134 -165.5t-208 -63.5q-153 0 -261.5 108.5t-108.5 261.5t108.5 261.5t261.5 108.5t261.5 -108.5t108.5 -261.5v-18zM606 595q-82 68 -191 68
q-107 0 -191 -67v-212h382v211z" />
    <glyph glyph-name="uni2153" unicode="&#x2153;" horiz-adv-x="858" 
d="M217 715q11 0 15.5 -4.5t4.5 -15.5v-356q0 -11 -4.5 -15.5t-15.5 -4.5h-18q-11 0 -15.5 4.5t-4.5 15.5v304l-110 -61q-18 -10 -28 6l-8 15q-8 17 8 27l141 79q8 6 24 6h11zM679 710q10 0 13 -5.5t-3 -13.5l-495 -673q-8 -12 -14.5 -15t-24.5 -3h-24q-11 0 -13.5 6t3.5 14
l495 673q8 11 14.5 14t22.5 3h26zM529 297q17 55 53 81t99 26q60 0 94 -30.5t34 -81.5q0 -62 -48 -87q59 -28 59 -101q0 -52 -35.5 -82t-104.5 -30q-119 0 -153 104q-5 20 10 25l18 6q18 7 25 -12q12 -38 34 -54.5t66 -16.5q41 0 62 18t21 48q0 29 -16 47t-44 18h-60
q-11 0 -14 3.5t-3 14.5v15q0 13 3 16t15 3h56q27 0 41 16.5t14 42.5q0 31 -19.5 49t-53.5 18q-41 0 -64.5 -17.5t-34.5 -54.5q-8 -22 -30 -14l-12 5q-18 8 -12 25z" />
    <glyph glyph-name="uni2154" unicode="&#x2154;" horiz-adv-x="880" 
d="M48 618q39 107 143 107q65 0 100.5 -34t35.5 -87q0 -52 -28.5 -78t-88.5 -46l-59 -20q-50 -17 -50 -62v-24h204q18 0 18 -18v-18q0 -17 -18 -17h-240q-20 0 -20 19v39q0 48 18.5 77t61.5 45l59 23q3 1 13 5t13 5t11.5 4.5t11.5 5.5t9.5 6t9 7.5t6.5 8.5t5.5 10t3 11.5
t1.5 14.5q0 31 -20 50t-58 19q-15 0 -27 -3.5t-20.5 -9.5t-15.5 -12.5t-11 -14.5l-6.5 -13t-4.5 -11l-2 -6q-5 -11 -9.5 -14t-15.5 0l-18 6q-20 7 -12 25zM725 710q10 0 13 -5.5t-3 -13.5l-495 -673q-8 -12 -15 -15t-24 -3h-24q-11 0 -13.5 6t3.5 14l495 673q8 11 14.5 14
t22.5 3h26zM553 297q32 107 151 107q61 0 95 -30.5t34 -81.5q0 -62 -48 -87q59 -28 59 -101q0 -52 -35.5 -82t-104.5 -30q-119 0 -153 104q-6 20 10 25l18 6q18 7 25 -12q11 -38 33 -54.5t67 -16.5q41 0 62 18t21 48q0 29 -16 47t-44 18h-60q-11 0 -14.5 3.5t-3.5 14.5v15
q0 13 3.5 16t15.5 3h55q27 0 41 16.5t14 42.5q0 31 -19 49t-54 18q-77 0 -99 -72q-5 -12 -10.5 -15t-18.5 1l-13 5q-17 7 -11 25z" />
    <glyph glyph-name="oneeighth" unicode="&#x215b;" horiz-adv-x="857" 
d="M217 717q20 0 20 -19v-357q0 -11 -4.5 -15.5t-15.5 -4.5h-18q-11 0 -15.5 4.5t-4.5 15.5v304l-110 -61q-18 -11 -27 7l-8 14q-10 17 8 27l140 79q10 6 24 6h11zM674 710q22 0 10 -19l-495 -673q-9 -12 -15.5 -15t-24.5 -3h-23q-11 0 -13.5 6t3.5 14l495 673q8 11 14 14
t22 3h27zM523 293q0 53 38 82t105 29t104 -27.5t37 -75.5q0 -68 -67 -96q40 -12 60 -34.5t20 -60.5q0 -118 -154 -118q-76 0 -115.5 27.5t-39.5 77.5q0 71 80 102q-68 26 -68 94zM750 295q0 29 -21.5 46t-63.5 17q-40 0 -62.5 -17t-22.5 -48q0 -30 23 -45.5t79 -24.5
q68 20 68 72zM760 108q0 31 -24 45.5t-87 24.5l-9 -3q-9 -3 -13.5 -5t-14 -6.5t-15.5 -10t-12.5 -12.5t-9.5 -16.5t-3 -20.5q0 -65 95 -65q93 0 93 69z" />
    <glyph glyph-name="threeeighths" unicode="&#x215c;" horiz-adv-x="885" 
d="M42 619q17 55 53.5 81t98.5 26q60 0 94 -30.5t34 -82.5q0 -61 -48 -86q59 -28 59 -101q0 -52 -35.5 -82t-104.5 -30q-120 0 -152 104q-7 20 9 25l18 6q18 5 25 -13q12 -37 34 -54t66 -17q41 0 62.5 18t21.5 49q0 28 -16.5 46.5t-44.5 18.5h-60q-11 0 -14 3t-3 14v16
q0 12 3 15t16 3h55q27 0 41 16.5t14 43.5q0 30 -19.5 48t-53.5 18q-41 0 -64.5 -17t-34.5 -54q-8 -23 -30 -14l-12 4q-19 8 -12 26zM712 710q10 0 13 -6t-3 -14l-495 -672q-8 -12 -14.5 -15t-24.5 -3h-24q-23 0 -10 20l495 672q8 11 14.5 14.5t22.5 3.5h26zM553 293
q0 53 38 82t105 29t104 -27.5t37 -75.5q0 -68 -67 -96q40 -12 60 -34.5t20 -60.5q0 -118 -154 -118q-76 0 -115.5 27.5t-39.5 77.5q0 71 80 102q-68 26 -68 94zM780 295q0 29 -21.5 46t-63.5 17q-40 0 -62.5 -17t-22.5 -48q0 -30 23 -45.5t79 -24.5q68 20 68 72zM790 108
q0 31 -24 45.5t-87 24.5l-9 -3q-9 -3 -13.5 -5t-14 -6.5t-15.5 -10t-12.5 -12.5t-9.5 -16.5t-3 -20.5q0 -65 95 -65q93 0 93 69z" />
    <glyph glyph-name="fiveeighths" unicode="&#x215d;" horiz-adv-x="876" 
d="M296 717q14 0 14 -14v-22q0 -8 -3 -11t-11 -3h-180l-10 -101h76q71 0 106.5 -33t35.5 -90q0 -56 -36 -93t-103 -37q-117 0 -150 104q-6 19 9 25l17 6q17 6 25 -10q21 -74 96 -74q43 0 65 21.5t22 57.5q0 75 -88 75h-114q-19 0 -16 18l16 164q1 17 20 17h209zM696 710
q10 0 13 -5.5t-3 -13.5l-494 -673q-9 -12 -15.5 -15t-24.5 -3h-23q-11 0 -13.5 6t3.5 14l495 673q8 11 14 14t22 3h26zM544 293q0 53 38 82t104 29q68 0 105 -27.5t37 -75.5q0 -68 -67 -96q80 -25 80 -95q0 -118 -155 -118q-75 0 -114.5 27.5t-39.5 77.5q0 72 79 102
q-67 26 -67 94zM771 295q0 29 -22 46t-63 17q-40 0 -62.5 -17t-22.5 -48q0 -30 23 -45.5t79 -24.5q68 21 68 72zM780 108q0 31 -24 45.5t-86 24.5l-8 -2q-8 -3 -11.5 -4.5t-12 -5.5t-14 -7.5t-12 -9.5t-10.5 -12t-7 -14.5t-3 -18.5q0 -65 95 -65q93 0 93 69z" />
    <glyph glyph-name="seveneighths" unicode="&#x215e;" horiz-adv-x="842" 
d="M293 717q10 0 13 -3t3 -12v-13q0 -11 -4 -20l-146 -336q-4 -8 -7.5 -10t-16.5 -2h-23q-21 0 -10 20l141 323h-196q-15 0 -15 15v23q0 9 3 12t12 3h246zM640 710q22 0 10 -19l-495 -673q-9 -12 -15.5 -15t-23.5 -3h-24q-11 0 -13.5 6t3.5 14l495 673q8 11 14 14t22 3h27z
M509 293q0 53 38 82t105 29t104 -27.5t37 -75.5q0 -69 -67 -96q40 -12 60 -34.5t20 -60.5q0 -118 -154 -118q-76 0 -115 27.5t-39 77.5q0 72 79 102q-68 26 -68 94zM736 295q0 29 -21.5 46t-63.5 17q-40 0 -62.5 -17t-22.5 -48q0 -30 23 -45.5t79 -24.5q68 20 68 72z
M746 108q0 31 -24 45.5t-87 24.5l-9 -3q-9 -3 -13.5 -5t-14 -6.5t-15.5 -10t-12.5 -12.5t-9.5 -16.5t-3 -20.5q0 -65 95 -65q93 0 93 69z" />
    <glyph glyph-name="arrowleft" unicode="&#x2190;" horiz-adv-x="745" 
d="M685 362q16 0 16 -17v-23q0 -16 -16 -16h-554l185 -186q10 -11 0 -22l-18 -18q-11 -11 -22 1l-238 238q-16 15 0 31l238 238q12 12 22 0l18 -18q11 -11 0 -22l-186 -186h555z" />
    <glyph glyph-name="arrowup" unicode="&#x2191;" horiz-adv-x="745" 
d="M626 423q11 -13 0 -23l-17 -17q-12 -12 -22 0l-186 184v-554q0 -16 -16 -16h-25q-16 0 -16 16v554l-186 -185q-11 -10 -22 0l-18 18q-10 10 1 23l238 237q16 17 31 0z" />
    <glyph glyph-name="arrowright" unicode="&#x2192;" horiz-adv-x="745" 
d="M707 350q15 -16 0 -31l-238 -238q-11 -12 -22 -1l-18 18q-10 11 0 22l185 186h-554q-16 0 -16 16v23q0 17 16 17h555l-186 186q-11 11 0 22l18 18q10 12 22 0z" />
    <glyph glyph-name="arrowdown" unicode="&#x2193;" horiz-adv-x="745" 
d="M385 666q16 0 16 -16v-554l186 184q10 12 22 0l17 -17q12 -10 0 -22l-238 -238q-16 -15 -31 0l-238 238q-11 11 -1 22l18 18q11 11 22 0l186 -185v554q0 16 16 16h25z" />
    <glyph glyph-name="uni2196" unicode="&#x2196;" horiz-adv-x="745" 
d="M583 576q22 0 22 -23v-336q0 -16 -15 -16h-26q-14 0 -14 17v261l-392 -392q-12 -11 -23 0l-18 17q-12 11 0 23l392 392h-262q-16 0 -16 16v25q0 16 16 16h336z" />
    <glyph glyph-name="uni2197" unicode="&#x2197;" horiz-adv-x="745" 
d="M498 576q16 0 16 -16v-25q0 -16 -16 -16h-262l392 -392q12 -12 0 -23l-18 -17q-12 -11 -23 0l-392 392v-261q0 -17 -14 -17h-26q-15 0 -15 16v336q0 23 22 23h336z" />
    <glyph glyph-name="uni2198" unicode="&#x2198;" horiz-adv-x="745" 
d="M135 567q13 11 23 0l392 -392v261q0 17 15 17h25q16 0 16 -16v-337q0 -22 -22 -22h-336q-16 0 -16 16v25q0 16 15 16h263l-392 392q-12 12 0 23z" />
    <glyph glyph-name="uni2199" unicode="&#x2199;" horiz-adv-x="745" 
d="M587 567q10 11 23 0l17 -17q12 -11 0 -23l-392 -392h263q15 0 15 -16v-25q0 -16 -16 -16h-336q-22 0 -22 22v337q0 16 16 16h25q15 0 15 -17v-261z" />
    <glyph glyph-name="partialdiff" unicode="&#x2202;" horiz-adv-x="551" 
d="M126 723q0 19 18 19q187 0 266.5 -82.5t79.5 -260.5v-220q0 -92 -56.5 -143t-163.5 -51q-109 0 -165.5 51t-56.5 143v131q0 91 55 143t154 52q128 0 169 -79q-3 130 -67.5 192t-212.5 62q-11 0 -15 3.5t-4 13.5zM423 311q0 64 -39.5 98.5t-113.5 34.5q-76 0 -115 -35
t-39 -99v-130q0 -64 39 -99t115 -35q74 0 113.5 35t39.5 99v131z" />
    <glyph glyph-name="Delta" unicode="&#x2206;" horiz-adv-x="619" 
d="M327 710q20 0 25 -16l229 -613q10 -24 10 -37v-24q0 -20 -19 -20h-524q-11 0 -15.5 4.5t-4.5 15.5v24q0 10 10 37l229 613q6 16 26 16h34zM368 464q-15 42 -32.5 104t-23.5 77h-5q-5 -15 -23 -77.5t-33 -103.5l-145 -403h408z" />
    <glyph glyph-name="product" unicode="&#x220f;" horiz-adv-x="669" 
d="M618 710q19 0 19 -20v-28q0 -20 -19 -20h-63v-722q0 -20 -19 -20h-34q-19 0 -19 20v722h-295v-722q0 -11 -4.5 -15.5t-15.5 -4.5h-33q-11 0 -15.5 4.5t-4.5 15.5v722h-64q-11 0 -15.5 4.5t-4.5 15.5v28q0 11 4.5 15.5t15.5 4.5h567z" />
    <glyph glyph-name="summation" unicode="&#x2211;" horiz-adv-x="574" 
d="M317 332q8 -13 8.5 -21.5t-8.5 -23.5l-193 -319h386q11 0 15.5 -4.5t4.5 -15.5v-28q0 -11 -4.5 -15.5t-15.5 -4.5h-455q-11 0 -15.5 4.5t-4.5 15.5v27q0 11 7 21l207 341l-204 332q-6 8 -6 22v27q0 20 19 20h448q19 0 19 -20v-28q0 -20 -19 -20h-379z" />
    <glyph glyph-name="minus" unicode="&#x2212;" horiz-adv-x="598" 
d="M515 358q11 0 15.5 -4.5t4.5 -15.5v-26q0 -19 -20 -19h-433q-19 0 -19 19v26q0 20 19 20h433z" />
    <glyph glyph-name="uni2215" unicode="&#x2215;" horiz-adv-x="581" 
d="M501 693q8 11 14.5 14t22.5 3h26q10 0 13 -6t-3 -14l-494 -672q-9 -12 -15.5 -15t-24.5 -3h-24q-24 0 -10 21z" />
    <glyph glyph-name="uni2219" unicode="&#x2219;" horiz-adv-x="207" 
d="M106 273q23 0 31.5 -8.5t8.5 -31.5v-6q0 -23 -9 -31.5t-31 -8.5h-5q-23 0 -31.5 8.5t-8.5 31.5v6q0 23 8.5 31.5t31.5 8.5h5z" />
    <glyph glyph-name="radical" unicode="&#x221a;" horiz-adv-x="686" 
d="M665 750q10 0 13 -4t0 -15l-253 -821q-5 -16 -24 -16h-30q-19 0 -24 15l-163 466h-138q-11 0 -15 4t-4 15v26q0 20 19 20h160q18 0 25 -3.5t11 -14.5l109 -320q10 -31 20.5 -79.5t13.5 -57.5h4q2 8 11.5 56.5t19.5 80.5l185 631q3 11 9 14t24 3h27z" />
    <glyph glyph-name="infinity" unicode="&#x221e;" horiz-adv-x="716" 
d="M359 333q57 108 154 108q67 0 109 -44t42 -113q0 -66 -44.5 -110t-107.5 -44q-55 0 -93.5 31t-60.5 73q-21 -40 -59.5 -72t-96.5 -32q-63 0 -107 44t-44 109q0 69 43.5 113.5t111.5 44.5q95 0 153 -108zM324 285q-1 1 -13.5 21t-23 34t-33 27.5t-48.5 13.5
q-43 0 -69.5 -27t-26.5 -69q0 -40 26.5 -67.5t66.5 -27.5q22 0 40.5 7.5t32 21.5t22 25t17 25t9.5 16zM606 285q0 41 -26 68.5t-69 27.5q-21 0 -39.5 -7.5t-32 -22t-21.5 -25t-16 -26.5l-9 -15q1 -2 8 -13.5t12.5 -20t16.5 -21t22 -20.5t27.5 -14t34.5 -6q40 0 66 27.5
t26 67.5z" />
    <glyph glyph-name="integral" unicode="&#x222b;" horiz-adv-x="369" 
d="M150 552q0 96 44 142t147 46q19 0 19 -18v-26q0 -19 -19 -19q-71 0 -97 -30t-26 -96v-583q0 -96 -44 -142t-147 -46q-19 0 -19 18v26q0 19 19 19q71 0 97 30t26 96v583z" />
    <glyph glyph-name="approxequal" unicode="&#x2248;" horiz-adv-x="563" 
d="M69 426q54 49 117 49q38 1 95 -20t87 -21q43 1 80 35q14 11 26 -1l20 -20q16 -14 0 -27q-50 -47 -115 -50q-40 -1 -96 20.5t-87 21.5q-43 -1 -80 -35q-15 -11 -26 1l-21 19q-14 15 0 28zM71 243q52 49 115 49q39 1 95.5 -20t86.5 -21q44 0 81 34q9 8 14 7.5t12 -8.5
l21 -19q15 -15 0 -28q-52 -48 -115 -49q-41 -1 -97 20t-86 21q-42 0 -81 -34q-13 -12 -26 1l-20 19q-15 14 0 28z" />
    <glyph glyph-name="notequal" unicode="&#x2260;" horiz-adv-x="608" 
d="M290 261h230q11 0 15.5 -4.5t4.5 -15.5v-26q0 -11 -4.5 -15.5t-15.5 -4.5h-264l-61 -120q-4 -6 -15 -6h-25q-8 0 -3 7l60 119h-124q-11 0 -15.5 4.5t-4.5 15.5v26q0 11 4.5 15.5t15.5 4.5h158l67 132h-225q-11 0 -15.5 4.5t-4.5 15.5v26q0 19 20 19h259l61 119q3 6 12 6
h28q6 0 3 -7l-60 -118h129q20 0 20 -19v-26q0 -11 -4.5 -15.5t-15.5 -4.5h-163z" />
    <glyph glyph-name="lessequal" unicode="&#x2264;" horiz-adv-x="562" 
d="M480 585q0 -16 -3.5 -21.5t-14.5 -10.5l-301 -130v-3l300 -129q12 -5 15.5 -11t3.5 -22v-27q0 -13 -4.5 -16.5t-16.5 1.5l-370 170q-16 9 -16 25v19q0 17 16 25l370 169q12 5 16.5 2t4.5 -17v-24zM460 142q11 0 15.5 -4t4.5 -16v-24q0 -12 -4.5 -16t-15.5 -4h-367
q-11 0 -15.5 4.5t-4.5 15.5v24q0 11 4.5 15.5t15.5 4.5h367z" />
    <glyph glyph-name="greaterequal" unicode="&#x2265;" horiz-adv-x="562" 
d="M82 609q0 14 4.5 17t16.5 -2l370 -169q16 -8 16 -25v-19q0 -16 -16 -25l-370 -170q-12 -5 -16.5 -1.5t-4.5 16.5v27q0 16 3.5 22t15.5 11l300 129v3l-300 130q-12 5 -15.5 10.5t-3.5 21.5v24zM469 142q11 0 15.5 -4.5t4.5 -15.5v-24q0 -11 -4.5 -15.5t-15.5 -4.5h-367
q-11 0 -15.5 4t-4.5 16v24q0 12 4.5 16t15.5 4h367z" />
    <glyph glyph-name="lozenge" unicode="&#x25ca;" horiz-adv-x="527" 
d="M274 710q14 0 25 -16l192 -324q9 -16 0 -30l-193 -324q-9 -16 -25 -16h-19q-14 0 -25 16l-193 324q-9 14 0 30l193 324q9 16 25 16h20zM263 629l-158 -274l158 -273h3l158 273l-158 274h-3z" />
    <glyph glyph-name="zero.denom" horiz-adv-x="374" 
d="M41 268q0 62 38.5 99t108.5 37q68 0 107 -37t39 -99v-140q0 -63 -38.5 -99.5t-107.5 -36.5q-70 0 -108.5 36t-38.5 100v140zM276 268q0 38 -23 59.5t-65 21.5q-43 0 -66.5 -21.5t-23.5 -59.5v-140q0 -39 23.5 -60.5t66.5 -21.5q42 0 65 22t23 60v140z" />
    <glyph glyph-name="one.denom" horiz-adv-x="281" 
d="M204 396q11 0 15.5 -4.5t4.5 -15.5v-356q0 -11 -4.5 -15.5t-15.5 -4.5h-18q-11 0 -15.5 4.5t-4.5 15.5v304l-110 -61q-18 -10 -28 7l-8 14q-8 17 9 27l140 79q8 6 24 6h11z" />
    <glyph glyph-name="two.denom" horiz-adv-x="355" 
d="M40 297q39 107 143 107q65 0 100.5 -34t35.5 -87t-28.5 -78.5t-88.5 -45.5l-59 -20q-50 -17 -50 -62v-24h204q18 0 18 -18v-18q0 -17 -18 -17h-240q-20 0 -20 19v39q0 48 18.5 77t61.5 45l59 23q3 1 13 5t13 5t11.5 4.5t11.5 5.5t9.5 6t9 7.5t6.5 8.5t5.5 10t3 11.5
t1.5 14.5q0 31 -20 50t-58 19q-13 0 -24 -3t-19 -7t-15 -10.5t-11 -12t-8 -12.5t-5.5 -11.5t-3.5 -9.5l-1 -5q-9 -19 -25 -13l-18 6q-20 6 -12 25z" />
    <glyph glyph-name="three.denom" horiz-adv-x="363" 
d="M36 297q17 55 53 81t99 26q61 0 94.5 -30.5t33.5 -81.5q0 -62 -48 -87q60 -29 60 -101q0 -52 -35.5 -82t-105.5 -30q-119 0 -152 104q-6 20 9 25l18 6q10 4 15.5 1.5t9.5 -13.5q12 -38 34 -54.5t66 -16.5q41 0 62.5 18t21.5 48q0 28 -16.5 46.5t-43.5 18.5h-60
q-11 0 -14.5 3.5t-3.5 14.5v15q0 13 3 16t16 3h55q27 0 41 16.5t14 42.5q0 31 -19.5 49t-53.5 18q-77 0 -99 -72q-8 -22 -29 -14l-13 5q-18 8 -12 25z" />
    <glyph glyph-name="four.denom" horiz-adv-x="363" 
d="M322 151q10 0 13.5 -3t3.5 -13v-17q0 -10 -3.5 -13t-13.5 -3h-40v-85q0 -10 -3.5 -13.5t-13.5 -3.5h-22q-10 0 -13 3.5t-3 13.5v85h-190q-10 0 -13.5 3.5t-3.5 14.5v13q0 14 6 21l188 231q9 11 25 11h25q11 0 14.5 -3.5t3.5 -14.5v-227h40zM227 324l-142 -173h142v173z
" />
    <glyph glyph-name="five.denom" horiz-adv-x="352" 
d="M291 396q8 0 11 -3t3 -11v-22q0 -8 -2.5 -11t-11.5 -3h-179l-11 -101h77q71 0 106.5 -32.5t35.5 -89.5t-36 -94t-104 -37q-118 0 -149 104q-6 19 9 25l17 6q11 4 15.5 2t8.5 -12q23 -74 97 -74q43 0 65 22t22 57q0 75 -89 75h-113q-19 0 -17 18l16 164q1 10 5 13.5
t15 3.5h209z" />
    <glyph glyph-name="six.denom" horiz-adv-x="373" 
d="M97 217q60 22 108 22q135 0 135 -122q0 -62 -39.5 -93.5t-112.5 -31.5q-148 0 -148 150v110q0 73 38.5 112.5t113.5 39.5q101 0 136 -73q8 -12 -7 -19l-23 -12q-13 -6 -21 5q-24 46 -85 46q-95 0 -95 -97v-37zM97 141q0 -96 91 -96q94 0 94 72q0 69 -85 69
q-54 0 -100 -23v-22z" />
    <glyph glyph-name="seven.denom" horiz-adv-x="313" 
d="M283 396q9 0 12 -3t3 -12v-14q0 -11 -4 -20l-145 -335q-4 -8 -8 -10t-17 -2h-22q-11 0 -13.5 4t2.5 16l141 323h-196q-15 0 -15 15v23q0 9 3 12t12 3h247z" />
    <glyph glyph-name="eight.denom" horiz-adv-x="377" 
d="M46 293q0 53 38 82t105 29t104 -27.5t37 -75.5q0 -68 -67 -96q40 -12 60 -34.5t20 -60.5q0 -118 -154 -118q-76 0 -115 27.5t-39 77.5q0 72 79 102q-68 26 -68 94zM273 295q0 29 -21.5 46t-63.5 17q-40 0 -62.5 -17t-22.5 -48q0 -30 23 -45.5t79 -24.5q68 20 68 72z
M283 108q0 31 -24 45.5t-87 24.5l-9 -3q-9 -3 -13.5 -5t-14 -6.5t-15.5 -10t-12.5 -12.5t-9.5 -16.5t-3 -20.5q0 -65 95 -65q93 0 93 69z" />
    <glyph glyph-name="nine.denom" horiz-adv-x="374" 
d="M277 180q-55 -22 -108 -22q-135 0 -135 121q0 62 39.5 93.5t112.5 31.5q148 0 148 -150v-110q0 -73 -38.5 -112.5t-114.5 -39.5q-100 0 -135 73q-8 12 7 19l23 12q13 6 21 -5q24 -46 84 -46q96 0 96 97v38zM277 255q0 96 -91 96q-95 0 -95 -72q0 -69 86 -69q54 0 100 23
v22z" />
    <glyph glyph-name="zero.num" horiz-adv-x="374" 
d="M41 590q0 62 38.5 98.5t108.5 36.5q68 0 107 -36.5t39 -98.5v-141q0 -63 -38.5 -99.5t-107.5 -36.5q-70 0 -108.5 36t-38.5 100v141zM276 590q0 37 -23 58.5t-65 21.5q-43 0 -66.5 -21.5t-23.5 -58.5v-141q0 -38 23.5 -59.5t66.5 -21.5q42 0 65 21.5t23 59.5v141z" />
    <glyph glyph-name="one.num" horiz-adv-x="281" 
d="M204 717q20 0 20 -19v-357q0 -11 -4.5 -15.5t-15.5 -4.5h-18q-11 0 -15.5 4.5t-4.5 15.5v304l-110 -61q-18 -10 -28 7l-8 14q-8 17 9 27l140 79q8 6 24 6h11z" />
    <glyph glyph-name="two.num" horiz-adv-x="355" 
d="M39 618q6 15 9 21.5t15.5 26t26 30t38 20t54.5 9.5q65 0 100.5 -34t35.5 -87q0 -52 -28.5 -78t-88.5 -46l-59 -20q-50 -17 -50 -62v-24h204q18 0 18 -18v-18q0 -17 -18 -17h-240q-19 0 -19 19v39q0 48 18.5 77t61.5 45l58 23q3 1 13 5t13 5t11.5 4.5t11.5 5.5t9.5 6
t9 7.5t6.5 8.5t5.5 10t3 11.5t1.5 14.5q0 31 -20 50t-58 19q-20 0 -35.5 -6.5t-25 -16.5t-14.5 -19t-8 -19l-4 -9q-5 -11 -9.5 -14t-15.5 0l-17 6q-19 7 -13 25z" />
    <glyph glyph-name="three.num" horiz-adv-x="364" 
d="M37 619q32 106 152 106q60 0 94 -30.5t34 -81.5q0 -62 -48 -87q59 -27 59 -101q0 -52 -35.5 -82t-104.5 -30q-119 0 -153 104q-6 21 10 26l18 6q18 5 25 -13q12 -38 34 -54.5t66 -16.5q41 0 62 18t21 49q0 28 -16 46t-44 18h-60q-11 0 -14 3.5t-3 14.5v15q0 13 3 16t15 3
h55q27 0 41.5 16.5t14.5 42.5q0 31 -19.5 49t-54.5 18q-41 0 -64 -17.5t-34 -54.5q-5 -12 -11 -15t-19 1l-12 5q-18 8 -12 26z" />
    <glyph glyph-name="four.num" horiz-adv-x="364" 
d="M323 472q10 0 13.5 -3t3.5 -13v-16q0 -10 -3 -13.5t-14 -3.5h-41v-85q0 -10 -3.5 -13.5t-13.5 -3.5h-22q-10 0 -13 3.5t-3 13.5v85h-190q-10 0 -13.5 3.5t-3.5 14.5v14q0 13 6 20l188 231q9 11 25 11h25q11 0 14.5 -3t3.5 -15v-227h41zM227 646l-142 -174h142v174z" />
    <glyph glyph-name="five.num" horiz-adv-x="352" 
d="M291 717q8 0 11 -3t3 -11v-21q0 -9 -2.5 -12t-11.5 -3h-179l-11 -100h77q71 0 106.5 -33t35.5 -90t-36 -94t-104 -37q-118 0 -149 105q-7 18 9 24l17 6q11 4 15.5 2t8.5 -12q23 -74 97 -74q42 0 64.5 22t22.5 57q0 75 -89 75h-113q-19 0 -17 18l16 164q1 10 5 13.5
t15 3.5h209z" />
    <glyph glyph-name="six.num" horiz-adv-x="374" 
d="M97 538q60 22 108 22q135 0 135 -122q0 -62 -39.5 -93.5t-112.5 -31.5q-148 0 -148 150v110q0 73 38.5 112.5t113.5 39.5q101 0 136 -73q8 -12 -7 -19l-23 -11q-13 -7 -21 4q-25 47 -85 47q-95 0 -95 -97v-38zM97 462q0 -96 91 -96q94 0 94 72q0 69 -85 69
q-54 0 -100 -23v-22z" />
    <glyph glyph-name="seven.num" horiz-adv-x="313" 
d="M283 717q10 0 13 -3t3 -12v-13q0 -11 -4 -20l-146 -336q-4 -8 -7.5 -10t-16.5 -2h-23q-11 0 -13.5 4.5t2.5 15.5l141 323h-195q-15 0 -15 15v23q0 9 3 12t12 3h246z" />
    <glyph glyph-name="eight.num" horiz-adv-x="377" 
d="M46 614q0 53 38 82t105 29t104 -27.5t37 -74.5q0 -69 -67 -97q40 -12 60 -34.5t20 -60.5q0 -118 -154 -118q-76 0 -115 27.5t-39 77.5q0 72 79 102q-68 27 -68 94zM273 616q0 29 -21.5 46t-63.5 17q-40 0 -62.5 -17t-22.5 -48q0 -30 23 -45.5t79 -24.5q68 20 68 72z
M283 429q0 31 -24.5 46t-86.5 24q-1 0 -9 -3t-13.5 -5t-14.5 -6.5t-15 -10t-12.5 -12.5t-9.5 -16.5t-3 -20.5q0 -65 95 -65q93 0 93 69z" />
    <glyph glyph-name="nine.num" horiz-adv-x="374" 
d="M277 501q-55 -22 -108 -22q-135 0 -135 121q0 62 39.5 93.5t112.5 31.5q148 0 148 -150v-110q0 -73 -38.5 -112.5t-114.5 -39.5q-101 0 -135 74q-7 12 7 18l23 12q13 6 21 -4q23 -47 84 -47q96 0 96 97v38zM277 576q0 97 -91 97q-95 0 -95 -72q0 -70 86 -70q45 0 100 23
v22z" />
    <glyph glyph-name="CR" horiz-adv-x="322" 
 />
    <glyph glyph-name="acute.case" horiz-adv-x="257" 
d="M190 898q23 11 34 -2l15 -18q5 -6 6.5 -9.5t-1 -6.5t-8.5 -5l-176 -93q-17 -6 -24 2l-9 11q-11 14 2 20z" />
    <glyph glyph-name="breve.case" horiz-adv-x="287" 
d="M290 871q-33 -108 -152 -108q-120 0 -151 108q-4 13 8 18l24 9q13 4 19 -7q21 -78 100 -78t101 78q4 11 16 7l27 -9q12 -5 8 -18z" />
    <glyph glyph-name="caron.case" horiz-adv-x="332" 
d="M318 901q11 0 12.5 -5t-4.5 -10l-122 -107q-12 -12 -17.5 -14.5t-16.5 -2.5h-8q-13 0 -18.5 2.5t-16.5 14.5l-123 107q-6 5 -4 10t13 5h26q18 0 28 -10l98 -83l95 83q10 10 30 10h28z" />
    <glyph glyph-name="cedilla.case" horiz-adv-x="251" 
d="M127 -74q10 3 25 3q40 0 63.5 -22t21.5 -58q-3 -48 -35.5 -71.5t-83.5 -23.5q-48 0 -80 19q-12 7 -12 20v19q0 13 10 7q33 -23 74 -23q33 0 51 15t18 41q0 42 -60 42q-20 0 -33 -4q-9 -1 -12 3t1 14l36 93h42z" />
    <glyph glyph-name="circumflex.case" horiz-adv-x="378" 
d="M192 901q12 0 17.5 -2.5t16.5 -13.5l123 -108q14 -14 -9 -14h-28q-20 0 -29 10l-96 82l-97 -82q-11 -10 -29 -10h-26q-23 0 -9 14l123 108q11 11 16.5 13.5t19.5 2.5h7z" />
    <glyph glyph-name="dieresis.case" horiz-adv-x="439" 
d="M122 864q19 0 26 -7t7 -25v-8q0 -19 -7 -25.5t-26 -6.5h-6q-19 0 -25.5 6.5t-6.5 25.5v8q0 18 6.5 25t25.5 7h6zM316 864q19 0 26 -7t7 -25v-8q0 -19 -7 -25.5t-26 -6.5h-6q-19 0 -26 6.5t-7 25.5v8q0 18 7 25t26 7h6z" />
    <glyph glyph-name="dotaccent.case" horiz-adv-x="216" 
d="M110 862q20 0 27 -7t7 -27v-6q0 -19 -7 -26t-27 -7h-4q-20 0 -27 7t-7 26v6q0 20 7 27t27 7h4z" />
    <glyph glyph-name="grave.case" horiz-adv-x="257" 
d="M38 891q12 14 34 1l164 -97q13 -6 2 -20l-9 -11q-7 -8 -24 -1l-179 89q-14 6 -2 21z" />
    <glyph glyph-name="hungarumlaut.case" horiz-adv-x="395" 
d="M147 891q12 18 31 12l21 -6q19 -7 6 -20l-109 -107q-13 -12 -22 -7l-12 3q-14 5 -5 19zM320 891q13 18 31 12l23 -6q20 -7 6 -20l-114 -109q-13 -11 -22 -8l-12 4q-16 5 -6 19z" />
    <glyph glyph-name="macron.case" horiz-adv-x="352" 
d="M293 850q10 0 13.5 -3.5t3.5 -13.5v-16q0 -10 -3.5 -13.5t-13.5 -3.5h-236q-10 0 -13.5 3.5t-3.5 13.5v16q0 17 17 17h236z" />
    <glyph glyph-name="ogonek.case" horiz-adv-x="252" 
d="M190 0q-51 -47 -74 -93.5t-14 -73.5q9 -28 39 -28q29 0 51 22q8 6 12 -3l8 -21q4 -8 -2 -14q-38 -36 -89 -36q-64 0 -78 52q-12 41 14.5 94t84.5 101h48z" />
    <glyph glyph-name="ring.case" horiz-adv-x="240" 
d="M20 850q0 44 28 71.5t74 27.5q45 0 72 -27.5t27 -71.5t-27 -71t-72 -27q-46 0 -74 27t-28 71zM185 850q0 29 -17 46t-46 17q-31 0 -48.5 -17t-17.5 -46t17.5 -46t48.5 -17q29 0 46 17t17 46z" />
    <glyph glyph-name="tilde.case" horiz-adv-x="305" 
d="M295 882q12 0 12 -12q0 -100 -78 -100q-36 0 -79 33.5t-68 33.5q-40 0 -40 -55q0 -12 -12 -12h-20q-12 0 -12 12q0 100 78 100q30 0 56 -17t48 -33.5t44 -16.5q40 0 40 55q0 12 11 12h20z" />
    <glyph glyph-name="uni0326.alt" horiz-adv-x="0" 
d="M127 743q5 17 21 17h21q16 0 13 -13l-39 -145q-2 -11 -6.5 -15t-15.5 -4h-30q-25 0 -17 20z" />
    <glyph glyph-name="_375" horiz-adv-x="664" 
d="M346 710q19 0 25 -16l229 -613q10 -27 10 -37v-24q0 -11 -4.5 -15.5t-15.5 -4.5h-523q-11 0 -15.5 4.5t-4.5 15.5v24q0 10 10 37l229 613q6 16 25 16h35zM366 521q-12 32 -22.5 75t-12.5 49h-5q-2 -6 -13 -50t-22 -75l-167 -459h409z" />
    <glyph glyph-name="_376" horiz-adv-x="744" 
d="M52 378q0 146 91 239t229 93t229 -93t91 -239q0 -102 -43.5 -181.5t-119.5 -128.5h156q11 0 15.5 -4.5t4.5 -15.5v-28q0 -11 -4.5 -15.5t-15.5 -4.5h-243q-11 0 -15.5 4.5t-4.5 15.5v22q0 11 11 16q88 44 138.5 125t50.5 188q0 115 -66.5 195.5t-183.5 80.5t-183.5 -80.5
t-66.5 -195.5q0 -102 48.5 -184t140.5 -129q11 -5 11 -16v-22q0 -11 -4.5 -15.5t-15.5 -4.5h-243q-11 0 -15.5 4.5t-4.5 15.5v28q0 11 4.5 15.5t15.5 4.5h157q-79 49 -121.5 129.5t-42.5 180.5z" />
    </font>
</defs>
</svg>
